<svg width="90" height="82" fill="none" xmlns="http://www.w3.org/2000/svg"><path d="M43.306 81.5c-1.417-1.397-2.54-2.502-3.66-3.608l-3.657-3.606V43.212l-.06-.112-2.574-4.705-2.572-4.704-.061-.11-.106-.07L2.632 15.374l-1.048-4.995L.536 5.385l1.858-2.786L7.46 1.564 12.53.531l25.925 16.804.124.081h12.837l.124-.081L77.47.531l5.07 1.033L87.606 2.6l1.86 2.79-1.046 4.99-1.048 4.996-27.984 18.139-.107.068-.06.111-2.574 4.705-2.572 4.704-.061.112v31.073l-3.657 3.605L46.7 81.5h-3.393z" stroke="#8A8A8A"/></svg>