<svg width="120" height="104" fill="none" xmlns="http://www.w3.org/2000/svg"><path d="M78.758 103.463H41.246L60.004 0l18.758 103.463h-.004zm-37.02-.409h36.525L60.001 2.312 41.738 103.054z" fill="#EF9033"/><path d="M93.523 103.533H26.469L59.996.263l33.527 103.27zm-66.297-.549h65.537L59.993 2.049l-32.77 100.935h.003z" fill="#EF9033"/><path d="M107.532 103.583H12.469L60.002.371l47.533 103.212h-.003zm-94.041-.653h93.016L59.999 1.938 13.49 102.93z" fill="#EF9033"/><path d="M120 103.624H0L60 .421l60 103.203zm-118.723-.733h117.446L60 1.889 1.277 102.891z" fill="#EF9033"/></svg>