<svg width="135" height="39" fill="none" xmlns="http://www.w3.org/2000/svg"><path d="M42.373 7.65L34 1.288 25.629 7.65l-8.373-6.362L8.884 7.65.204 1.055a.518.518 0 01-.102-.72.508.508 0 01.711-.102l8.068 6.129L17.253 0l8.372 6.362L33.997 0l8.373 6.362L50.742 0l8.372 6.362L67.49 0l8.372 6.362L84.237 0l8.376 6.362L100.985 0l8.376 6.362L117.736 0l8.376 6.362 8.071-6.13a.504.504 0 01.711.104.517.517 0 01-.102.72l-8.68 6.594-8.376-6.362-8.375 6.362-8.376-6.362-8.372 6.362-8.376-6.362-8.375 6.362-8.372-6.362-8.376 6.362-8.372-6.362L42.37 7.65h.003zm50.247 7.837l-8.375-6.362-8.376 6.362-8.372-6.362-8.376 6.362-8.372-6.362-8.372 6.362-8.372-6.362-8.373 6.362-8.372-6.362-8.372 6.362-8.68-6.595a.518.518 0 01-.102-.72.505.505 0 01.711-.102l8.067 6.129 8.373-6.362 8.372 6.362 8.372-6.362 8.372 6.362 8.373-6.362 8.372 6.362 8.375-6.362 8.373 6.362 8.375-6.362 8.376 6.362 8.372-6.362 8.376 6.362 8.375-6.362 8.376 6.362 8.07-6.13a.505.505 0 01.712.104.518.518 0 01-.102.72l-8.68 6.594-8.376-6.362-8.375 6.362-8.376-6.362-8.372 6.362h.003zm0 7.84l-8.375-6.362-8.376 6.362-8.372-6.362-8.376 6.362-8.372-6.362-8.372 6.362-8.372-6.362-8.373 6.362-8.372-6.362-8.372 6.362-8.68-6.595a.518.518 0 01-.102-.72.505.505 0 01.711-.102l8.067 6.129 8.373-6.362 8.372 6.362 8.372-6.362 8.372 6.362 8.373-6.362 8.372 6.362 8.375-6.362 8.373 6.362 8.375-6.362 8.376 6.362 8.372-6.362 8.376 6.362 8.375-6.362 8.376 6.362 8.07-6.13a.505.505 0 01.712.103.518.518 0 01-.102.72l-8.68 6.595-8.376-6.362-8.375 6.362-8.376-6.362-8.372 6.362h.003zm-50.247 7.835L34 24.8l-8.372 6.362-8.373-6.362-8.372 6.362-8.68-6.595a.518.518 0 01-.102-.72.505.505 0 01.711-.102l8.068 6.129 8.372-6.362 8.372 6.362 8.372-6.362 8.373 6.362 8.372-6.362 8.372 6.362 8.376-6.362 8.372 6.362 8.375-6.362 8.376 6.362 8.372-6.362 8.376 6.362 8.375-6.362 8.376 6.362 8.071-6.13a.504.504 0 01.711.104.517.517 0 01-.102.719l-8.68 6.595-8.376-6.362-8.375 6.362-8.376-6.362-8.372 6.362-8.376-6.362-8.375 6.362L67.49 24.8l-8.376 6.362-8.372-6.362-8.372 6.362h.003zm0 7.838L34 32.638 25.629 39l-8.373-6.362L8.884 39l-8.68-6.595a.518.518 0 01-.102-.72.505.505 0 01.711-.102l8.068 6.129 8.372-6.362 8.372 6.362 8.372-6.362 8.373 6.362 8.372-6.362 8.372 6.362 8.376-6.362 8.372 6.362 8.375-6.362 8.376 6.362 8.372-6.362 8.376 6.362 8.375-6.362 8.376 6.362 8.071-6.13a.504.504 0 01.711.103.517.517 0 01-.102.72L126.112 39l-8.376-6.362L109.361 39l-8.376-6.362L92.613 39l-8.376-6.362L75.862 39l-8.372-6.362L59.114 39l-8.372-6.362L42.37 39h.003z" fill="#EF9033"/></svg>