<svg width="120" height="120" fill="none" xmlns="http://www.w3.org/2000/svg"><path d="M55.442 75.367h-.19c-2.05-.056-3.753-1.01-4.936-2.756-3.229-4.781-1.567-14.329 3.703-21.282 3.25-4.288 7.253-6.794 10.738-6.692 2.049.056 3.753 1.01 4.936 2.756 3.228 4.781 1.566 14.329-3.704 21.282-3.19 4.207-7.115 6.696-10.547 6.696v-.004zm9.118-30.086c-3.225 0-6.96 2.394-10.023 6.439-5.115 6.749-6.767 15.955-3.683 20.521 1.06 1.567 2.584 2.422 4.412 2.472 3.253.084 7.076-2.317 10.199-6.436 5.115-6.749 6.766-15.955 3.682-20.521-1.06-1.567-2.584-2.422-4.411-2.471h-.176v-.004z" fill="#EF9033"/><path d="M59.065 76.832c-.992 0-1.978-.12-2.946-.37-7.584-1.93-12.016-10.882-9.879-19.961 1.148-4.88 4.024-9.027 7.89-11.371 3.055-1.852 6.52-2.423 9.751-1.599 7.584 1.93 12.016 10.886 9.879 19.961-1.148 4.883-4.024 9.027-7.89 11.372-2.14 1.299-4.481 1.964-6.805 1.964v.004zm1.87-33.012c-2.204 0-4.429.633-6.467 1.873-3.718 2.253-6.485 6.249-7.594 10.963-2.056 8.73 2.165 17.334 9.403 19.176 3.063.778 6.348.24 9.252-1.525 3.718-2.253 6.485-6.249 7.594-10.962 2.056-8.731-2.165-17.335-9.407-19.177a11.284 11.284 0 00-2.785-.348h.004z" fill="#EF9033"/><path d="M60.043 76.93c-9.308 0-17.075-7.178-17.462-16.289-.186-4.428 1.387-8.681 4.43-11.973 3.168-3.432 7.53-5.418 12.279-5.59 9.61-.352 17.736 6.946 18.13 16.275.187 4.429-1.387 8.678-4.428 11.973-3.169 3.433-7.53 5.418-12.28 5.59-.225.008-.447.015-.669.015zm-.084-33.212c-.215 0-.43.004-.645.01-4.573.17-8.773 2.082-11.822 5.384-2.922 3.165-4.435 7.248-4.256 11.501.377 8.97 8.21 15.987 17.455 15.653 4.573-.17 8.773-2.081 11.822-5.383 2.922-3.165 4.432-7.25 4.252-11.502-.37-8.762-7.847-15.663-16.81-15.663h.004z" fill="#EF9033"/><path d="M59.137 76.996c-8.79 0-16.821-4.35-19.564-11.3-1.447-3.672-1.239-7.714.585-11.379 2.422-4.858 7.361-8.628 13.554-10.346 11.251-3.12 23.231 1.513 26.71 10.329 1.447 3.672 1.239 7.713-.585 11.378-2.422 4.858-7.361 8.629-13.554 10.347-2.38.658-4.791.971-7.146.971zm-18.955-11.54c3.359 8.513 14.99 12.973 25.925 9.939 6.017-1.67 10.805-5.316 13.146-10.01 1.767-3.548 1.96-7.297.563-10.846-3.358-8.512-14.987-12.97-25.925-9.938-6.016 1.669-10.804 5.316-13.145 10.009-1.768 3.548-1.961 7.298-.564 10.846z" fill="#EF9033"/><path d="M55.268 77.673c-7.189 0-13.762-2.126-17.63-6.249-2.74-2.922-3.835-6.477-3.166-10.283.986-5.605 5.82-11.1 12.931-14.702 12.318-6.238 28.002-5.284 34.959 2.13 2.739 2.922 3.834 6.478 3.165 10.284-.986 5.604-5.82 11.1-12.931 14.701-5.464 2.767-11.593 4.12-17.328 4.12zm-17.152-6.696c6.773 7.217 22.109 8.111 34.184 1.993 6.929-3.51 11.632-8.83 12.582-14.23.634-3.595-.404-6.957-2.999-9.724-6.77-7.217-22.105-8.111-34.184-1.996-6.928 3.51-11.632 8.83-12.582 14.233-.634 3.595.405 6.957 3 9.724z" fill="#EF9033"/><path d="M39.529 86.164c-6.862 0-11.748-2.235-13.79-6.326-2.464-4.932-.535-12.082 5.299-19.616C42.12 45.907 64.084 34.068 80 33.832c7.1-.11 12.177 2.14 14.265 6.323 2.464 4.932.535 12.082-5.299 19.616-11.082 14.314-33.047 26.154-48.963 26.39h-.475v.003zm.468-.655c15.744-.232 37.48-11.955 48.456-26.136 5.672-7.326 7.58-14.226 5.232-18.926-1.972-3.947-6.83-6.062-13.674-5.96-15.743.232-37.48 11.955-48.456 26.136-5.672 7.326-7.58 14.226-5.232 18.926 1.972 3.947 6.823 6.059 13.674 5.96z" fill="#EF9033"/><path d="M34.926 95.423c-4.323 0-7.812-1.175-10.143-3.513-3.82-3.84-4.228-10.452-1.144-18.62 6.78-17.969 28.538-38.624 48.495-46.045 10.319-3.837 18.73-3.53 23.08.842 3.82 3.84 4.229 10.452 1.145 18.62-6.784 17.968-28.537 38.627-48.495 46.044-4.798 1.785-9.181 2.672-12.941 2.672h.003zm50.157-70.206c-3.676 0-7.985.877-12.72 2.637C52.56 35.22 30.976 55.702 24.252 73.52c-2.989 7.914-2.633 14.282.996 17.93 4.162 4.182 12.322 4.436 22.39.69 19.804-7.365 41.388-27.847 48.112-45.665 2.985-7.914 2.633-14.282-.996-17.93-2.204-2.214-5.535-3.33-9.671-3.33v.004z" fill="#EF9033"/><path d="M35.132 102.158c-3.2 0-6.003-.722-8.28-2.19-4.665-3-6.644-8.762-5.714-16.659 2.256-19.211 21.443-45.354 42.767-58.274 12.117-7.34 22.778-9.164 29.245-5.007 4.664 3 6.643 8.763 5.713 16.66-2.256 19.214-21.443 45.354-42.767 58.274-7.847 4.753-15.081 7.193-20.964 7.193v.003zm49.727-83.672c-5.75 0-12.864 2.412-20.616 7.108C43.067 38.423 24.02 64.348 21.786 83.387c-.898 7.632.978 13.177 5.418 16.036 6.248 4.02 16.659 2.193 28.554-5.013C76.934 81.58 95.98 55.656 98.216 36.617c.897-7.632-.979-13.177-5.418-16.036-2.18-1.401-4.862-2.091-7.94-2.091v-.004z" fill="#EF9033"/><path d="M37.81 108.453c-2.095 0-4.067-.307-5.876-.937-5.577-1.933-9.22-6.724-10.537-13.853-3.531-19.099 10.833-49.766 32.019-68.365 12.699-11.15 25.654-15.94 34.649-12.821 5.576 1.932 9.22 6.724 10.537 13.853 3.531 19.099-10.833 49.766-32.02 68.365-10.142 8.903-20.45 13.754-28.772 13.754v.004zm44.36-96.258c-8.15 0-18.3 4.795-28.322 13.596-21.031 18.465-35.3 48.858-31.808 67.756 1.271 6.886 4.767 11.501 10.108 13.353 8.773 3.042 21.485-1.704 34.004-12.695 21.032-18.461 35.3-48.857 31.808-67.755-1.27-6.887-4.767-11.502-10.107-13.354-1.747-.605-3.655-.905-5.683-.905v.004z" fill="#EF9033"/><path d="M42.778 113.752c-.528 0-1.05-.018-1.567-.053-6.85-.458-12.43-3.975-16.145-10.164-10.382-17.307-3.218-50.92 15.969-74.934C52.832 13.84 66.935 5.5 78.792 6.295c6.851.458 12.431 3.975 16.145 10.164 10.382 17.307 3.218 50.92-15.968 74.934-11.28 14.114-24.68 22.359-36.191 22.359zM77.218 6.897c-11.307 0-24.516 8.154-35.673 22.113-19.031 23.816-26.175 57.099-15.92 74.19 3.599 5.999 9.003 9.403 15.632 9.847 11.632.778 25.541-7.467 37.205-22.063 19.031-23.817 26.174-57.1 15.92-74.192-3.599-5.998-9.003-9.403-15.628-9.846a22.108 22.108 0 00-1.532-.05h-.003z" fill="#EF9033"/><path d="M49.217 117.522c-6.066 0-11.716-1.884-16.603-5.584-17.95-13.586-20.299-47.932-5.235-76.564C36.332 18.359 49.97 6.354 63.86 3.256c8.685-1.936 16.824-.278 23.527 4.799 17.951 13.585 20.3 47.932 5.235 76.564-8.952 17.014-22.59 29.019-36.48 32.117a31.799 31.799 0 01-6.924.786zM70.78 3.126c-2.207 0-4.47.254-6.777.768C50.298 6.949 36.821 18.83 27.957 35.677c-14.92 28.361-12.657 62.337 5.052 75.74 6.548 4.957 14.497 6.573 22.992 4.682 13.705-3.056 27.182-14.937 36.047-31.783 14.919-28.361 12.656-62.338-5.052-75.74-4.77-3.612-10.287-5.45-16.216-5.45z" fill="#EF9033"/><path d="M55.824 119.494c-3.911 0-7.79-.564-11.547-1.704-25.732-7.805-39.617-40.078-30.953-71.938 4.746-17.462 15.47-31.903 29.414-39.62C53.296.388 65.01-1.038 75.718 2.208c25.732 7.805 39.617 40.077 30.953 71.942-4.746 17.461-15.47 31.902-29.414 39.619-6.855 3.795-14.198 5.728-21.437 5.728l.004-.003zm8.35-118.335c-7.128 0-14.363 1.905-21.119 5.643-13.793 7.633-24.4 21.926-29.1 39.219-8.57 31.526 5.118 63.439 30.512 71.142 10.54 3.197 22.073 1.789 32.477-3.971 13.793-7.632 24.4-21.926 29.1-39.218 8.569-31.527-5.119-63.44-30.512-71.143a39.078 39.078 0 00-11.354-1.676l-.003.004z" fill="#EF9033"/><path d="M58.545 119.897a49.46 49.46 0 01-6.896-.482c-14.3-2.01-26.872-10.083-35.399-22.735C7.727 84.04 4.263 68.343 6.491 52.476c2.229-15.863 9.89-29.998 21.563-39.8C39.74 2.87 54.046-1.43 68.35.58c14.3 2.01 26.872 10.083 35.399 22.736 8.523 12.638 11.987 28.336 9.758 44.203-2.228 15.864-9.889 29.998-21.563 39.8-9.804 8.23-21.457 12.578-33.399 12.578zM61.457.749c-11.79 0-23.295 4.295-32.984 12.428-11.55 9.699-19.13 23.686-21.338 39.39C4.928 68.274 8.357 83.81 16.79 96.315c8.424 12.494 20.834 20.468 34.948 22.453a48.55 48.55 0 006.801.476c11.79 0 23.296-4.295 32.98-12.428 11.551-9.699 19.131-23.686 21.338-39.39 2.208-15.706-1.221-31.242-9.653-43.747C94.778 11.184 82.369 3.21 68.255 1.225a48.663 48.663 0 00-6.802-.48l.004.004z" fill="#EF9033"/><path d="M60 120C26.914 120 0 93.082 0 60S26.918 0 60 0s60 26.918 60 60-26.918 60-60 60zM60 .651C27.277.651.651 27.273.651 60S27.273 119.349 60 119.349 119.349 92.727 119.349 60 92.727.651 60 .651z" fill="#EF9033"/></svg>