<svg width="390" height="390" fill="none" xmlns="http://www.w3.org/2000/svg"><path d="M390 390H0V0h390v390zM2.744 387.256h384.512V2.744H2.744v384.512z" fill="#8A8A8A"/><path d="M330.064 330.062H59.937V59.935h270.127v270.127zm-267.382-2.744h264.637V62.68H62.682v264.638z" fill="#8A8A8A"/><path d="M298.215 298.228H91.785V91.798h206.43v206.43zM94.53 295.484h200.94V94.542H94.529v200.942z" fill="#8A8A8A"/><path d="M279.484 279.498H110.5V110.515h168.984v168.983zm-166.24-2.744h163.495V113.259H113.244v163.495z" fill="#8A8A8A"/><path d="M267.492 267.491H122.508V122.507h144.984v144.984zm-142.24-2.744h139.496V125.251H125.252v139.496z" fill="#8A8A8A"/><path d="M254.799 135.383H134.953v119.846h119.846V135.383zM387.7.552L253.996 134.256l1.941 1.94L389.641 2.492 387.7.552zM2.347.414l-1.94 1.94L134.11 136.058l1.941-1.94L2.347.414z" fill="#8A8A8A"/><path d="M134.126 254.091L.422 387.795l1.94 1.94 133.704-133.704-1.94-1.94zm121.76-.136l-1.941 1.941 133.704 133.703 1.941-1.94-133.704-133.704zM308.777.577l-78.675 133.725 2.365 1.391L311.142 1.969 308.777.577zm-76.506.593l-26.498 133.698 2.692.534L234.963 1.704l-2.692-.534zM81.135.931l-2.366 1.392 78.699 133.711 2.365-1.392L81.135.932zm76.62.332l-2.693.533 26.474 133.702 2.692-.533L157.755 1.263zm74.751 253.241l-2.365 1.392 78.698 133.711 2.366-1.392-78.699-133.711zm-24.177.361l-2.692.533 26.473 133.703 2.693-.533-26.474-133.703zm-50.915-.732L78.738 387.857l2.366 1.392 78.675-133.724-2.365-1.392zm24.247.6l-26.497 133.698 2.692.533 26.497-133.698-2.692-.533zm73.825-24.816l-1.392 2.365 133.711 78.699 1.392-2.365-133.711-78.699zm-.445-24.332l-.533 2.692 133.702 26.474.533-2.692-133.702-26.474zm132.906-126.49l-133.724 78.676 1.391 2.365L389.339 81.46l-1.392-2.365zm.352 76.163l-133.697 26.497.533 2.692 133.698-26.497-.534-2.692zM134.398 229.87L.688 308.568l1.392 2.365 133.71-78.698-1.392-2.365zm.347-24.035L1.047 232.332l.533 2.692 133.698-26.497-.533-2.692zM1.95 78.562L.56 80.927l133.711 78.699 1.392-2.365-133.711-78.7zm-.429 76.455l-.533 2.692 133.703 26.474.533-2.692L1.521 155.017z" fill="#8A8A8A"/><path d="M127.301 334.265h-24.199L91 313.133l.102-.175 12-20.958h24.199l12.102 21.133-.102.174-12 20.958zm-23.798-.706h23.393l11.696-20.43-11.696-20.431h-23.393l-11.697 20.431 11.697 20.43z" fill="#fff"/><path d="M139.34 355.045h-24.199l-12.102-21.133.102-.175 12-20.958h24.199l12.102 21.133-.102.175-12 20.958zm-23.794-.707h23.393l11.696-20.43-11.696-20.43h-23.393l-11.697 20.43 11.697 20.43zm50.186-36.901h-4.933l-2.467-4.308 2.467-4.309h4.933l2.467 4.309-2.467 4.308zm-4.528-.706h4.127l2.062-3.602-2.062-3.603h-4.127l-2.061 3.603 2.061 3.602z" fill="#fff"/><path d="M129.709 337.316h-4.934l-2.466-4.309 2.466-4.308h4.934l2.467 4.308-2.467 4.309zm-4.532-.706h4.127l2.061-3.603-2.061-3.602h-4.127l-2.062 3.602 2.062 3.603zM117.666 359h-4.934l-2.466-4.308 2.466-4.308h4.934l2.467 4.308-2.467 4.308zm-4.528-.706h4.127l2.061-3.602-2.061-3.602h-4.127l-2.062 3.602 2.062 3.602zm4.528-40.857h-4.934l-2.466-4.308 2.466-4.309h4.934l2.467 4.309-2.467 4.308zm-4.528-.706h4.127l2.061-3.602-2.061-3.603h-4.127l-2.062 3.603 2.062 3.602zm61.757 17.534h-24.2l-12.101-21.132.102-.175L150.695 292h24.2l12.102 21.133-.103.174-11.999 20.958zm-23.798-.706h23.393l11.696-20.43-11.696-20.431h-23.393L139.4 313.129l11.697 20.43z" fill="#fff"/><path d="M179.696 292.349h-5.005l11.898 20.779-11.898 20.784h5.005l11.897-20.784-11.897-20.779z" fill="#fff"/><path d="M179.897 334.265h-5.811l12.102-21.132L174.086 292h5.811l12.101 21.133-.102.174-11.999 20.958zm-4.599-.706h4.198l11.696-20.43-11.696-20.431h-4.198l11.696 20.431-.102.174-11.594 20.252v.004zm-31.302-20.431h-5l11.897 20.783-11.897 20.78h5l11.902-20.78-11.902-20.783z" fill="#fff"/><path d="M144.205 355.045h-5.81l12.101-21.133-12.101-21.133h5.81l12.102 21.133-.102.175-12 20.958zm-4.599-.707h4.194l11.697-20.43-11.697-20.43h-4.194l11.697 20.43-.103.175-11.594 20.251v.004z" fill="#fff"/><path d="M362 202.407l-31.776 31.805H193.768l-.445.239c-7.323 3.952-13.989 7.551-20.654 11.15-6.665 3.598-13.331 7.197-20.653 11.148l-.446.24-.277.422-79.68 121.333c-8.523 1.763-15.264 3.16-22.006 4.556a76333.58 76333.58 0 01-22.017 4.557l-12.359-8.131c-1.761-8.531-3.157-15.28-4.552-22.028a94407.53 94407.53 0 01-4.552-22.027l73.81-112.396.328-.499v-55.542l-.329-.5L6.126 54.328l4.553-22.026c1.395-6.748 2.79-13.496 4.552-22.028l12.381-8.147c8.522 1.763 15.264 3.16 22.005 4.556 6.742 1.396 13.484 2.792 22.007 4.555l79.679 121.332.277.422.444.24c7.323 3.952 13.989 7.55 20.654 11.149 6.665 3.598 13.331 7.198 20.654 11.149l.444.24h136.448l15.887 15.902L362 187.574v14.833z" stroke="#EF9033" stroke-width="4"/></svg>