<svg width="435" height="342" fill="none" xmlns="http://www.w3.org/2000/svg"><path d="M251.07 342l-71.066-5.296-77.754-5.797c-.065 0-.122-.016-.186-.032a.909.909 0 01-.623-.509c-.024-.064-.049-.121-.065-.194L72.688 216.128s0-.024-.008-.04L45.034 106.201c-.016-.064-.024-.129-.032-.194a.897.897 0 01.08-.436.912.912 0 01.235-.322 1.44 1.44 0 01.178-.13l87.36-50.846s.024-.016.032-.024L225.842.14c.073-.04.154-.08.235-.105a.995.995 0 01.533 0l73.889 21.12s.025 0 .033.008l67.379 19.255c.308.09.55.323.647.63l32.594 105.414s0 .024.008.032l33.791 109.257c.017.057.033.105.041.162 0 .032 0 .064.008.097a.975.975 0 01-.04.306.994.994 0 01-.146.291 1.184 1.184 0 01-.17.178.806.806 0 01-.194.121h-.016l-182.903 84.996a.968.968 0 01-.396.089h-.073l.008.008zm19.884-48.602l-87.255 41.683 67.266 5.014 85.452-39.713-65.463-6.984zm-75.854-8.089l-89.26 43.975 74.058 5.522 87.465-41.779-72.263-7.71v-.008zm-32.158-116.394l-88.233 47.447 28.236 112.236 90.869-44.767-30.872-114.916zm204.46 78.409l-93.19 44.516 65.536 6.992 91.023-42.305-63.377-9.211.008.008zm-73.525-10.681l-95.599 47.099 72.344 7.719 93.408-44.622-70.153-10.196zm-35.101-119.26l-94.12 50.612 30.889 114.981 97.046-47.811-33.815-117.782zm75.716 15.985l33.5 112.131 64.72 9.405-33.193-107.327-65.027-14.201v-.008zm-73.775-16.115l33.75 117.565 71.455 10.382-33.548-112.292-71.665-15.655h.008zM132.75 56.526L47.047 106.41l27.185 108.062 88.209-47.431-29.683-110.508-.008-.008zm93.012-54.14l-91.314 53.147 29.699 110.572 94.087-50.595L225.753 2.378l.009.008zm75.902 21.08l32.214 107.827 65.002 14.201-31.971-103.387-65.237-18.642h-.008zm-73.946-21.13l32.4 112.85 71.633 15.646-32.254-107.981-71.779-20.515z" fill="#EF9033"/><path d="M79.93 132.858l-34.456-.771-25.2-10.762-19.08-28.298L0 59.252l15.599-26.526L40.91 16.052l34.55-2.04 23.852 13.913 6.183 7.672 12.666 19.747L120 88.596l-11.931 21.962-28.14 22.301v-.001zm-34.187-1.62l33.887.726 27.817-22.045 11.655-21.524-1.813-32.769-12.511-19.512-6.104-7.57-23.427-13.63-34.046 2.01L16.26 33.353.897 59.479 2.072 92.74l18.79 27.871 24.881 10.626z" fill="#8A8A8A"/><path d="M80.2 132.886l-32.306-2.404.066-.886 31.402 2.339.532-10.139.885.046-.58 11.044z" fill="#8A8A8A"/><path d="M107.626 109.81l-27.47 11.582.345.817 27.469-11.582-.344-.817z" fill="#8A8A8A"/><path d="M107.986 111.198L93.879 92.616l.707-.535 13.013 17.141 9.789-36.411.856.23-10.258 38.157z" fill="#8A8A8A"/><path d="M93.826 92.156l-13.88 29.478.802.378 13.88-29.478-.802-.378zM47.788 130.46l-27.641-9.164-1.104-16.359.885-.059 1.064 15.764 27.075 8.977-.279.841z" fill="#8A8A8A"/><path d="M19.779 104.577l-.588.665 28.443 25.131.587-.664-28.442-25.132zm74.323-12.635L55.41 104.573l.276.844 38.691-12.631-.275-.844z" fill="#8A8A8A"/><path d="M48.035 130.469l-.219-.86 31.454-7.977-23.968-16.255.496-.734L81.4 122.006l-33.365 8.463zm-28.8-25.193L1.137 93.086l5.529-26.122.867.183-5.406 25.536L19.73 104.54l-.495.736zm98.937-49.801l-.887.005.092 17.44.887-.004-.092-17.441z" fill="#8A8A8A"/><path d="M118.256 72.882l-.881.099 1.734 15.568.881-.098-1.734-15.569zm-52.834-7.647L31.414 77.206l.294.837L65.716 66.07l-.294-.836z" fill="#8A8A8A"/><path d="M35.034 42.052l-.534.708 30.797 23.233.534-.708-30.797-23.233z" fill="#8A8A8A"/><path d="M34.309 42.364l-3.176 35.228.883.08 3.176-35.229-.883-.08zM.784 59.073l-.67.58 6.652 7.69.67-.58-6.652-7.69z" fill="#8A8A8A"/><path d="M15.508 32.93L6.664 66.943l.86.224 8.843-34.012-.86-.223zm89.232 2.792L97.063 56.31l.831.31 7.677-20.587-.831-.31z" fill="#8A8A8A"/><path d="M73.345 29.835l-.154.872 31.888 5.607.154-.873-31.888-5.606z" fill="#8A8A8A"/><path d="M73.59 29.967l-.653.602L97.15 56.762l.651-.602-24.21-26.193z" fill="#8A8A8A"/><path d="M74.912 14.405l-2.084 15.807.88.116 2.084-15.807-.88-.116z" fill="#8A8A8A"/><path d="M117.397 73.07l-12.621-36.918-29.538-21.225-29.415 4.003-.12-.88L75.468 14l30.056 21.598 12.712 37.185-.839.287z" fill="#8A8A8A"/><path d="M45.94 18.082l-.35.816 27.498 11.78.35-.816-27.499-11.78z" fill="#8A8A8A"/><path d="M41.237 16.083l-.346.815 4.707 2.003.347-.816-4.708-2.002z" fill="#8A8A8A"/><path d="M34.978 43.005l-20.052-9.97 31.76-15.487-11.708 25.457zm-18.045-9.962l17.62 8.762 10.29-22.373-27.91 13.61z" fill="#8A8A8A"/><path d="M7.4 67.386l-.591-.662 27.826-24.742 39.227-12.366-7.863 36.116-.866-.19 7.537-34.62L34.993 42.8 7.399 67.386z" fill="#8A8A8A"/><path d="M19.063 105.046L6.375 66.258 31.74 77.225l-.351.814-23.56-10.186 12.078 36.917-.844.276zm78.293-48.994l-31.918 9.147.244.852L97.6 56.904l-.244-.852z" fill="#8A8A8A"/><path d="M55.98 105.119l-.859-.219 10.196-40.098 28.555 26.605 3.234-35.812 21.411 17.329-23.86 19.648-.064.718-28.785-26.818-9.828 38.647zM97.84 57.33l-3.07 34.002 22.346-18.403L97.841 57.33z" fill="#8A8A8A"/><path d="M45.908 132.039l-.518-.72 2.157-1.553 7.407-24.315-36.15-.102 12.637-28.532 24.313 27.75h.396l-7.843 25.745-2.4 1.727zm-25.742-27.573l34.406.098-22.884-26.117-11.522 26.019z" fill="#8A8A8A"/><path d="M383.747 253l16.749 9.571v19.143l-16.749 9.57-16.747-9.57v-19.143L383.747 253z" stroke="#E9E9E7" stroke-width="2" stroke-linecap="round" stroke-linejoin="round"/><path d="M367.152 262.486l16.599 9.657v19.141m-.005-19.141l16.749-9.657M417.247 253l16.749 9.571v19.143l-16.749 9.57-16.751-9.57v-19.143L417.247 253z" stroke="#E9E9E7" stroke-width="2" stroke-linecap="round" stroke-linejoin="round"/><path d="M400.645 262.486l16.603 9.657v19.141m.002-19.141l16.749-9.657m-33.504 19.227l16.751 9.571v19.143L400.495 320l-16.749-9.573v-19.143l16.749-9.571z" stroke="#E9E9E7" stroke-width="2" stroke-linecap="round" stroke-linejoin="round"/><path d="M383.898 291.199l16.6 9.658V320m-.002-19.143l16.751-9.658" stroke="#E9E9E7" stroke-width="2" stroke-linecap="round" stroke-linejoin="round"/></svg>