<svg width="1351" height="480" fill="none" xmlns="http://www.w3.org/2000/svg"><g opacity=".36" stroke="#8A8A8A" stroke-linecap="round" stroke-linejoin="round"><path d="M675.5 530.413c372.79 0 675-129.93 675-290.206C1350.5 79.93 1048.29-50 675.5-50 302.708-50 .5 79.93.5 240.207c0 160.276 302.208 290.206 675 290.206z"/><path d="M675.515-50c237.358 0 430.075 130.046 430.075 290.207 0 160.16-192.717 290.206-430.075 290.206-237.358 0-430.058-130.046-430.058-290.206C245.457 80.046 438.157-50 675.515-50z"/><path d="M675.487 530.413c119.762 0 216.848-129.93 216.848-290.206C892.335 79.93 795.249-50 675.487-50 555.726-50 458.641 79.93 458.641 240.207c0 160.276 97.085 290.206 216.846 290.206zM675.477-50v580.413M1350.5 240.21H.5"/></g></svg>