<svg width="390" height="360" fill="none" xmlns="http://www.w3.org/2000/svg"><path opacity=".5" d="M202.613 1.5l16.05 16.035 16.049 16.034v136.537l.18.333c3.951 7.324 7.55 13.99 11.149 20.655 3.599 6.665 7.197 13.33 11.148 20.653l.18.334.317.208 121.505 79.793 4.598 22.209 4.6 22.222-8.36 12.704a50553.24 50553.24 0 00-22.229 4.595c-6.802 1.406-13.603 2.812-22.23 4.593l-112.569-73.924-.375-.246h-55.242l-.375.246-112.58 73.924c-8.627-1.781-15.428-3.187-22.229-4.593-6.8-1.407-13.602-2.814-22.23-4.595l-8.375-12.728c1.783-8.618 3.19-15.413 4.598-22.208 1.408-6.795 2.814-13.59 4.597-22.209l121.506-79.793.316-.208.18-.333c7.95-14.733 14.348-26.574 22.298-41.307l.18-.334V33.569l16.048-16.034c4.91-4.905 9.821-9.81 16.05-16.035h15.245z" stroke="#8A8A8A" stroke-width="3"/><path d="M104.87 250H75.13v-54.1l-38.26 38.258-21.03-21.029L54.1 174.87H0v-29.74h54.1l-38.258-38.259 21.03-21.03L75.128 124.1V70h29.741v54.1l38.259-38.258 21.029 21.029L125.9 145.13H180v29.74h-54.1l38.258 38.259-21.029 21.029L104.87 195.9V250zm-27.896-1.831h26.065v-56.708l40.09 40.089 18.435-18.435-40.089-40.089h56.694v-26.065h-56.694l40.089-40.09-18.435-18.435-40.09 40.089V71.831H76.974v56.694l-40.089-40.09-18.436 18.436 40.09 40.09H1.845v26.065h56.694l-40.09 40.089 18.436 18.435 40.09-40.089v56.708z" fill="#E2E1DC"/><path d="M270.322 320.63l-27.763 18.409 1.363 2.093 27.763-18.408-1.363-2.094z" fill="#EF9033"/><path d="M271.688 320.634l-1.364 2.094 27.759 18.412 1.364-2.093-27.759-18.413z" fill="#EF9033"/><path d="M272.244 289.499h-2.482v32.154h2.482v-32.154z" fill="#EF9033"/><path d="M271.001 360L242 340.765v-33.53L271.001 288 300 307.235v33.53L271.001 360zm-26.518-20.585l26.518 17.589 26.518-17.589v-30.828l-26.518-17.589-26.518 17.589v30.828z" fill="#EF9033"/></svg>