<svg width="74" height="45" fill="none" xmlns="http://www.w3.org/2000/svg"><path d="M70.973 13.663c-1.873-2.674-4.554-5.077-7.96-7.138C56.05 2.32 46.796 0 36.963 0 27.13 0 17.875 2.319 10.912 6.525c-3.405 2.054-6.086 4.457-7.96 7.138C.997 16.455 0 19.429 0 22.5c0 3.071.989 6.045 2.953 8.837 1.873 2.674 4.554 5.077 7.959 7.138C17.875 42.68 27.13 45 36.962 45c9.833 0 19.088-2.319 26.051-6.525 3.406-2.054 6.087-4.457 7.96-7.138 1.957-2.792 2.953-5.766 2.953-8.837 0-3.071-.996-6.045-2.953-8.837zM13.349 22.5c0-2.298.404-4.533 1.156-6.657 3.391-.662 7.187-1.163 11.246-1.49a39.94 39.94 0 00-.787 7.263c-2.458.376-5.452.626-9.143.877 3.698.258 6.685.508 9.143.878a40.5 40.5 0 00.787 7.263c-4.06-.328-7.855-.829-11.246-1.49a19.888 19.888 0 01-1.156-6.658v.014zm.14 6.455c-.76-.16-1.505-.32-2.222-.494C4.687 26.831.92 24.666.92 22.507s3.774-4.325 10.348-5.954a56.83 56.83 0 012.222-.495 20.94 20.94 0 00-1.024 6.456c0 2.221.355 4.387 1.024 6.455v-.014zm34.595-7.486c-5.662-.989-8.204-2.855-9.527-7.535 2.988.035 5.905.147 8.712.349.48 2.263.752 4.686.815 7.186zm-9.75-8.419c-.403-1.706-.696-3.76-.933-6.226V.926c2.758.21 5.362 2.375 7.361 6.184.968 1.845 1.734 3.976 2.291 6.281a140.682 140.682 0 00-8.718-.334v-.007zm-1.81-6.226c-.237 2.466-.53 4.52-.933 6.226-2.988.028-5.905.14-8.719.334.558-2.305 1.317-4.436 2.291-6.28 2.006-3.81 4.603-5.976 7.361-6.185v5.905zm-1.156 7.11c-1.323 4.68-3.865 6.546-9.526 7.535.063-2.5.334-4.923.815-7.186 2.806-.202 5.724-.314 8.711-.348zm-9.526 9.597c5.661.989 8.203 2.855 9.526 7.535a145.536 145.536 0 01-8.711-.349c-.48-2.263-.753-4.686-.815-7.186zm9.749 8.419c.404 1.706.696 3.76.933 6.226v5.905c-2.758-.21-5.362-2.375-7.36-6.184-.968-1.846-1.734-3.976-2.292-6.281a141.6 141.6 0 008.719.334zm1.81 6.226c.237-2.466.53-4.52.933-6.226a146.13 146.13 0 008.719-.334c-.557 2.305-1.316 4.435-2.291 6.28-2.005 3.81-4.603 5.976-7.36 6.185v-5.906zm1.156-7.11c1.323-4.68 3.865-6.546 9.527-7.535-.063 2.5-.335 4.923-.815 7.186-2.806.202-5.731.314-8.712.349zm10.411-7.689c2.458-.376 5.452-.626 9.143-.877-3.697-.258-6.685-.508-9.143-.877a40.502 40.502 0 00-.787-7.264c4.06.328 7.855.829 11.246 1.49a19.89 19.89 0 011.156 6.658 19.89 19.89 0 01-1.156 6.657c-3.391.662-7.186 1.163-11.246 1.49a39.94 39.94 0 00.787-7.263v-.014zm12.486-.877a20.94 20.94 0 00-1.024-6.455c.76.16 1.504.32 2.221.494C69.232 18.169 73 20.334 73 22.493s-3.774 4.325-10.348 5.954c-.71.174-1.462.341-2.221.495a20.94 20.94 0 001.024-6.456v.014zm11.378-2.284c-.501-.55-1.156-1.093-2.04-1.609-1.873-1.093-4.54-2.075-7.932-2.918a64.756 64.756 0 00-2.8-.626c-1.197-3.155-3.14-6.059-5.793-8.49C51.88 4.38 49.072 2.71 46.03 1.596 60.346 3.83 71.244 11.19 72.84 20.209l-.007.007zM53.675 7.228a21.464 21.464 0 015.376 7.654c-3.363-.634-7.089-1.115-11.072-1.428-.578-2.48-1.393-4.777-2.43-6.755-1.337-2.549-2.953-4.401-4.721-5.508 4.84.724 9.31 2.792 12.847 6.037zM28.377 6.7c-1.038 1.978-1.853 4.276-2.43 6.755-3.984.306-7.71.794-11.073 1.428 1.163-2.835 2.967-5.446 5.376-7.654 3.538-3.245 8.001-5.306 12.848-6.037-1.769 1.107-3.377 2.96-4.721 5.508zm-.48-5.097c-3.05 1.114-5.85 2.785-8.239 4.979-2.653 2.43-4.596 5.334-5.794 8.489-.967.195-1.9.403-2.799.626-3.391.836-6.058 1.818-7.931 2.918-.878.515-1.532 1.052-2.04 1.609C2.68 11.205 13.578 3.844 27.903 1.609l-.008-.007zM1.086 24.784c.5.55 1.155 1.093 2.04 1.609 1.873 1.093 4.54 2.075 7.931 2.918.899.222 1.832.431 2.8.626 1.197 3.155 3.14 6.059 5.793 8.49 2.389 2.193 5.195 3.864 8.238 4.978C13.572 41.17 2.674 33.81 1.08 24.791l.007-.007zM20.25 37.772a21.465 21.465 0 01-5.376-7.654c3.364.634 7.09 1.115 11.072 1.428.578 2.48 1.393 4.777 2.43 6.755 1.338 2.549 2.953 4.4 4.722 5.508-4.84-.724-9.31-2.792-12.848-6.037zm25.292.529c1.038-1.985 1.852-4.276 2.43-6.755 3.983-.306 7.709-.794 11.072-1.428-1.163 2.835-2.966 5.446-5.376 7.654-3.537 3.245-8 5.306-12.847 6.037 1.768-1.107 3.377-2.96 4.72-5.508zm.487 5.097c3.05-1.114 5.85-2.785 8.238-4.979 2.653-2.43 4.596-5.334 5.794-8.489a64.605 64.605 0 002.8-.626c3.39-.836 6.058-1.818 7.93-2.918.878-.515 1.533-1.052 2.041-1.609-1.587 9.018-12.485 16.379-26.81 18.614l.007.007z" fill="#383D44"/></svg>