<svg width="1442" height="810" fill="none" xmlns="http://www.w3.org/2000/svg"><g style="mix-blend-mode:hard-light" opacity=".36" stroke="#8A8A8A" stroke-width="3" stroke-miterlimit="10"><path d="M1440.75-313.757c.12 479.167-.9 958.34 0 1437.497-479.784-1.76-959.736-3.18-1439.496 0 .935-479.164-.124-958.331-.007-1437.497H1440.75z"/><path d="M53.36 769.651c2.008 13.108 3.016 19.688 4.726 33.183-19.226 6.793-38.483 13.36-58.078 19.02v-37.895c17.958-4.09 35.74-8.928 53.352-14.308zm-2.672-69.939c-.058 14.533 0 21.718.284 35.956-16.86 4.058-33.853 7.577-50.968 10.385v-37.895c17.017-2.447 33.787-5.266 50.684-8.446zm2.03-74.339c-.757 15.233-1.048 22.749-1.453 37.611-17.017 2.888-34.11 5.346-51.261 7.287v-37.895a1254.435 1254.435 0 0052.714-7.003zm2.99-76.907c.228 15.088.461 22.671-.652 38.309a1972.631 1972.631 0 01-55.052 7.69V556.57a2214.755 2214.755 0 0055.702-8.104h.002zm-3.445-73.982c1.118 14.517 1.582 21.843 2.28 36.639a1990.725 1990.725 0 01-54.535 7.56v-37.895c17.45-1.826 34.87-3.927 52.255-6.304zm-7.411-71.272c1.814 14.004 2.651 21.067 4.142 35.321a1973.48 1973.48 0 01-48.986 4.374v-37.895c14.937-.19 29.94-.794 44.844-1.8zm-3.892-71.795c1.198 14.413 1.737 21.561 2.544 35.889-14.487.23-29.015.153-43.5-.197v-37.895c15.914.998 24.07 1.482 40.956 2.203zm-1.945-73.882c-.128 15.008-.112 22.475.17 37.286-15.923-1.417-23.727-2.156-39.181-3.504v-37.894c15.637 1.419 23.41 2.275 39.01 4.112zm.868-75.145c-.298 15.135-.39 22.655-.41 37.59-15.608-2.105-23.477-3.023-39.47-4.442v-37.895c16.099 1.52 24.057 2.493 39.88 4.747zm2.547-76.626c-.682 15.501-.995 23.209-1.514 38.533-16.289-2.204-24.464-3.137-40.912-4.562V101.84a798.228 798.228 0 0142.426 3.924zm2.802-78.012c.134 15.524-.152 23.39-.943 39.052A825.354 825.354 0 00.008 63.943V26.048c15.066.199 30.186.773 45.224 1.704zm77.456 749.686c3.715 11.545 5.39 17.54 7.745 30.547-22.774 10.214-45.63 20.235-68.847 29.418-1.027-14.225-1.792-21.083-3.5-34.577 21.766-7.849 43.267-16.445 64.602-25.388zm-15.526-57.111c.721 13.044 1.021 18.572 5.333 29.346-19.59 7.042-39.22 13.881-59.137 19.963-2.008-13.108-2.1-19.732-2.385-33.971 18.88-4.542 37.608-9.701 56.187-15.339l.002.001z"/><path d="M106.989 652.118c-.658 14.294-.813 21.26-.778 34.891-18.391 4.723-36.9 8.998-55.523 12.713.057-14.532.173-21.873.578-36.736 18.66-3.165 37.236-6.816 55.723-10.868zm6.822-75.229c-2.075 15.843-2.934 23.547-4.297 38.578a1493.247 1493.247 0 01-56.795 9.898c.757-15.232 1.223-22.94 2.338-38.579a2130.049 2130.049 0 0058.754-9.897zm-.525-75.636c1.257 14.497 1.671 21.884 1.989 36.966-19.824 3.611-39.664 7.103-59.569 10.257-.228-15.089-.47-22.555-1.167-37.351 19.63-3 39.213-6.293 58.747-9.872zm-10.407-69.735c2.844 13.414 4.098 20.247 6.196 34.188a1674.972 1674.972 0 01-56.812 8.774c-1.118-14.517-1.78-21.707-3.27-35.963a1309.655 1309.655 0 0053.884-6.997l.002-.002zm-11.909-65.92c2.127 13.141.478 20.095 3.969 33.009a1468.658 1468.658 0 01-50.09 4.583c-1.815-14.005-.537-21.569-1.345-35.898 15.843-.185 31.644-.907 47.466-1.694zm-11.2-67.368c1.077 14.11 1.925 21.086 4.831 34.398a1245.612 1245.612 0 01-43.643-1.203c-1.198-14.414-1.494-21.78-1.774-36.591 15.922 1.417 24.007 2.134 40.586 3.396zm-1.608-72.335c-.13 14.65-.27 22.025-.013 36.527-15.738-2.048-23.536-3.062-39.137-4.897.127-15.009.439-22.63.46-37.566 15.607 2.106 23.319 3.323 38.69 5.936zm3.325-75.231c-1.125 15.428-1.601 23.053-2.285 38.104-15.649-2.839-23.495-4.143-39.32-6.394.299-15.136.515-22.754 1.034-38.078 16.288 2.204 24.395 3.498 40.571 6.368zm7.177-78.868c-1.67 16.108-2.474 24.085-3.93 39.865a888.636 888.636 0 00-42.304-5.885c.684-15.5 1.063-23.294 1.855-38.957a885.634 885.634 0 0144.379 4.977zM89.4-8.556c.79 15.914 1.068 23.92 1.302 39.992a983.118 983.118 0 00-45.472-3.67c-.135-15.525-.283-23.273-.695-38.718A1235.78 1235.78 0 0189.4-8.554v-.002zm116.678 780.39c3.918 11.547 5.321 17.911 6.058 32.682-25.92 13.225-51.954 26.205-78.315 38.537-.231-15.156-1.038-22.054-3.391-35.059 25.406-11.678 50.59-23.755 75.648-36.16zm-28.845-47.656c6.858 8.2 10.3 12.373 16.259 21.729-23.447 10.856-46.971 21.536-70.805 31.526-3.714-11.547-5.879-16.983-10.191-27.758 21.783-7.965 43.335-16.572 64.739-25.498l-.002.001zM166.538 670c.263 12.483.655 18.48 1.948 30.081-20.344 7.1-40.745 13.87-61.323 20.261-.722-13.044-.912-19.697-.948-33.329 20.248-5.2 40.299-11.015 60.323-17.013zm3.901-67.481c-1.835 14.581-2.485 21.572-3.263 35.05-19.996 5.147-40.014 10.124-60.188 14.546.659-14.295 1.163-21.61 2.526-36.641 20.391-3.952 40.668-8.378 60.925-12.955zm8.452-77.029c.232 15.176.373 23.27-2.53 39.07a3166.068 3166.068 0 01-62.549 12.332c2.077-15.843 1.786-23.59 1.467-38.671a3256.163 3256.163 0 0063.614-12.731h-.002zm-8.068-71.541c2.899 13.467 4.063 20.4 5.702 34.702a2871.709 2871.709 0 01-63.238 12.603c-1.255-14.496-2.115-21.6-4.213-35.541 20.659-3.553 41.211-7.579 61.749-11.764z"/><path d="M150.856 390.536c4.99 11.929 7.271 18.072 11.287 30.749-19.71 3.716-39.432 7.256-59.269 10.248-2.843-13.414-4.446-19.991-7.936-32.905a1080.588 1080.588 0 0055.918-8.092zm-19.415-58.333c5.144 11.831 7.535 17.573 11.508 29.149a1087.324 1087.324 0 01-51.976 4.254c-2.127-13.14-3.46-19.681-6.367-32.992 15.621.208 31.218-.071 46.836-.413l-.001.002zm-13.594-64.592c1.168 13.616 1.991 20.313 4.389 33.34a1509.687 1509.687 0 01-42.464-2.729c-1.075-14.109-1.364-21.286-1.62-35.787 15.737 2.047 23.649 3.116 39.697 5.174l-.002.002zm.364-71.147c-1.106 14.872-1.487 22.164-1.761 36.433-15.284-2.942-22.916-4.369-38.286-6.983.13-14.649.356-22.079 1.04-37.131 15.65 2.839 23.434 4.399 39.009 7.679l-.002.002zm8.7-77.16c-2.262 15.965-3.305 23.823-5.075 39.261-16.113-3.422-24.175-5.02-40.352-7.89 1.125-15.428 1.794-23.236 3.249-39.016a1004.676 1004.676 0 0142.178 7.645zm9.339-82.29c.946 13.556-.429 28.486-3.242 41.762A945.365 945.365 0 0088.664 71.8c1.671-16.108 2.272-24.288 2.037-40.359a1024.917 1024.917 0 0145.549 5.574zM297.24 759.06c1.558 14.397-.901 28.156-3.336 42.283-28.185 15.414-56.519 30.503-85.095 45.183 2.753-13.382 4.125-28.346 3.328-42.036 28.563-14.793 56.902-29.959 85.103-45.43zm-27.068-50.571c8.388 6.969 12.218 10.896 17.885 20.786-27.164 14.502-54.433 28.791-81.981 42.558-3.919-11.547-6.628-16.557-12.588-25.913 25.728-12.152 51.265-24.647 76.684-37.431zm-35.314-33.571c1.981 9.936 2.953 12.922 12.537 18.35-23.249 10.617-46.569 21.071-70.162 30.908-6.858-8.199-7.457-12.508-8.749-24.11 22.303-7.9 44.404-16.373 66.374-25.148zm-3.024-55.687c-.781 12.435-.82 18.291-.213 29.403-21.607 7.418-43.273 14.543-65.082 21.345-.264-12.483-.138-18.949.64-32.424a2510.734 2510.734 0 0064.655-18.322v-.002zm10.957-69.676c-3.614 15.535-5.061 22.864-7.251 36.775a2809.949 2809.949 0 01-65.102 16.174c1.834-14.582 3.015-22.154 5.918-37.954a3428.21 3428.21 0 0066.433-14.997l.002.002zm1.738-76.657c1.8 14.249 2.272 21.653 2.195 37.071-22.544 5.465-45.148 10.687-67.835 15.527-.23-15.177-.727-22.537-2.366-36.838 22.755-4.872 45.418-10.177 68.008-15.758l-.002-.002zm-17.253-65.728c4.972 12.084 7.127 18.378 10.61 31.515-22.266 5.462-44.614 10.618-67.065 15.279-2.899-13.467-4.659-19.994-8.676-32.671a2174.249 2174.249 0 0065.131-14.123zm-27.295-53.292c6.361 9.611 6.936 13.253 13.205 24.339-20.71 4.483-41.438 8.75-62.327 12.324-4.99-11.93-3.936-17.599-7.91-29.174a1164.308 1164.308 0 0057.032-7.489z"/><path d="M167.048 302.435c4.259 11.545 7.007 17.163 14.929 27.114a1678.226 1678.226 0 01-50.538 2.644c-5.145-11.832-6.807-18.229-9.205-31.257 14.914.786 29.88 1.298 44.812 1.497l.002.002zm-12.341-61.952c-.405 13.759 1.211 19.751 3.83 32.081-16.533-1.862-24.643-2.885-40.692-4.943-1.167-13.615-1.671-20.452-1.397-34.719 15.283 2.942 22.911 4.488 38.259 7.581zm7.385-72.78c-2.399 15.318-3.424 22.798-4.938 37.361-15.598-3.575-23.371-5.321-38.943-8.6 1.106-14.871 1.86-22.457 3.628-37.893a1423.2 1423.2 0 0140.253 9.132zm15.095-80.074c-2.864 13.599-5.63 27.228-8.228 40.882a1148.647 1148.647 0 00-42.045-9.209c2.262-15.965 3.509-24.077 6.096-40.534a1002.023 1002.023 0 0144.177 8.86zM179.593.603a620.536 620.536 0 012.103 43.82 1060.138 1060.138 0 00-45.446-7.41 749.608 749.608 0 00-1.785-41.695 1350.013 1350.013 0 0145.13 5.286l-.002-.001zm204.232 750.354c-4 20.71-13.502 39.564-22.555 58.414-27.906 14.536-55.471 29.712-83.336 44.328 7.181-17.071 11.551-34.443 15.971-52.347 30.061-16.645 59.77-33.917 89.92-50.395zm-11.503-66.885c7.488 8.134 10.37 13.12 12.96 26.235-29.829 15.345-58.718 32.481-88.043 48.757-1.422-14.189-3.514-19.921-9.18-29.809 27.917-15.08 55.345-32.055 84.263-45.183zM320.57 659.16c12.053 2.884 18.089 4.46 28.731 9.184-27.08 11.65-52.886 26.757-79.126 40.144-8.388-6.969-13.197-9.779-22.78-15.207 24.369-11.341 48.378-23.748 73.176-34.122l-.001.001zm-21.553-35.408c1.219 9.681 2.233 14.14 5.063 22.438-23.138 9.436-46.015 19.475-69.225 28.742-1.979-9.936-2.63-15.167-3.238-26.277 22.622-7.862 45.112-16.141 67.4-24.903zm2.014-56.344c-2.027 12.966-2.635 18.981-3.035 30.217-21.727 8.087-43.971 14.92-66.164 21.61.781-12.435 1.521-18.991 3.71-32.902 21.916-5.915 44.025-11.487 65.489-18.925zm12.065-74.504c-.477 15.649-1.293 24.881-4.955 39.75-21.518 6.553-43.504 11.588-65.348 16.91 3.614-15.535 3.859-24.183 3.934-39.601 22.178-5.482 44.32-11.076 66.369-17.059zm-8.327-71.687c3.664 13.058 5.051 19.892 6.751 34.219-22.348 5.754-44.582 11.919-66.988 17.451-1.801-14.249-3.162-21.084-6.645-34.221 22.384-5.489 44.572-11.681 66.882-17.449zm-26.886-59.24c6.948 10.675 10.082 16.293 15.495 28.132a2639.945 2639.945 0 01-66.101 17.044c-4.972-12.083-7.823-17.865-14.093-28.951 21.669-4.991 43.345-9.999 64.699-16.225zm-42.19-38.657c10.513 8.01 15.446 11.74 24.018 19.334-19.643 4.882-39.746 8.094-59.731 11.218-6.361-9.612-10.08-14.355-18.003-24.306 17.893-1.351 36.153-2.38 53.716-6.246z"/><path d="M201.503 275.66c4.482 10.542 7.089 15.649 13.436 25.323-16.186 1.424-31.646 1.75-47.892 1.468-4.259-11.545-5.889-17.564-8.508-29.894 14.131 1.618 28.702 3.727 42.964 3.103zm-5.007-61.994c-1.6 13.979-2.102 20.728-2.318 33.716-17.01-1.641-24.12-3.811-39.467-6.904.405-13.759.932-20.85 2.447-35.414 15.599 3.576 23.253 5.865 39.338 8.602zm13.493-74.612c-3.638 15.838-5.284 23.537-8.023 38.464-15.475-3.655-23.774-5.959-39.872-9.823 2.397-15.318 3.808-23.164 6.864-39.185 13.726 3.224 27.503 6.565 41.031 10.544zm15.836-85.268c1.193 14.278-1.186 31.026-5.866 44.571-13.986-4.367-28.471-7.599-42.772-10.74 3.775-13.412 5.65-29.31 4.512-43.213 14.734 2.668 29.675 5.407 44.126 9.382zm-7.147-91.508c2.21 14.977 3.939 30.14 5.108 45.234-14.553-3.07-29.454-4.996-44.189-6.927a728.5 728.5 0 00-4.605-42.92c14.561 1.262 29.218 2.492 43.686 4.613zm209.539 817.65c-15.483 27.5-32.221 54.246-49.143 80.877-20.626 6.595-40.395 15.044-60.164 23.82 14.752-24.731 29.356-49.557 42.36-75.263 21.911-10.848 43.895-21.196 66.947-29.434zm24.396-98.937c3.987 11.844 4.838 18.939 3.029 36.554-24.772 9.438-48.336 21.175-71.818 33.405 4.048-19.663 4.05-27.53 1.46-40.644 22.049-10.791 44.172-21.082 67.329-29.315zm-40.323-37.92c11.161 4.19 16.336 6.811 24.645 14.181-22.116 7.636-43.404 16.991-64.611 26.827-7.487-8.135-12.383-11.024-23.023-15.748 20.787-9.132 41.607-17.623 62.989-25.26zm-48.639-19.246c3.616 7.589 6.173 9.079 18.71 11.387-20.863 7.397-41.36 15.416-61.792 23.928-12.052-2.884-13.655-4.67-16.487-12.969 19.716-7.851 39.477-15.498 59.569-22.346zm-10.382-44.686c.57 10.398 1.218 15.192 3.286 24.106-19.367 6.33-38.472 13.328-57.537 20.503-1.219-9.681-1.425-14.875-1.023-26.11 18.298-6.534 36.717-12.738 55.274-18.499zm4.339-60.367c-2.27 13.848-3.068 20.288-3.944 32.331-17.635 5.136-35.174 10.599-52.633 16.3 2.029-12.965 3.448-19.889 7.108-34.759a3842.408 3842.408 0 0149.469-13.872zm2.535-75.465c1.509 14.31 1.803 21.731 1.335 37.105a4135.206 4135.206 0 00-48.387 12.491c.477-15.649.126-23.133-1.575-37.459a3945.483 3945.483 0 0148.627-12.137zm-16.529-66.176c5.001 12.157 7.116 18.507 10.448 31.745a3996.66 3996.66 0 00-49.292 12.352c-3.664-13.057-5.978-19.27-11.391-31.111 16.705-4.476 33.448-8.824 50.235-12.986zm-32.172-46.133c8.473 6.753 11.233 6.031 17.749 17.1-17.145 4.469-34.241 9.115-51.304 13.887-6.946-10.675-9.604-11.734-18.172-19.328a5434.243 5434.243 0 0151.727-11.659zm-46.632-36.259c7.351 7.956 11.692 11.739 22.462 18.949l-51.579 9.62c-10.512-8.011-14.407-12.662-20.756-22.336a5532.929 5532.929 0 0049.873-6.233z"/><path d="M237.69 250.379c1.03 11.757 4.955 15.106 10.756 23.674a1278.27 1278.27 0 01-46.944 1.598c-4.48-10.543-7.543-15.292-7.327-28.28a740.9 740.9 0 0043.515 3.008zm2.972-64.483c-2.125 14.058-2.841 20.787-3.457 33.678-16.486-1.99-24.627-3.181-40.713-5.92 1.6-13.979 2.735-21.213 5.474-36.141 15.475 3.657 23.209 5.346 38.696 8.383zm17.37-76.306c-4.729 16.494-6.814 24.426-10.312 39.684-14.91-3.83-22.446-5.889-37.732-10.207 3.116-13.605 6.468-27.176 9.969-40.687 15.619 4.651 23.219 6.918 38.075 11.21zm6.018-94.104a943.01 943.01 0 011.178 48.592l-39.403-10.29c-.037-15.39-.741-30.939-2.04-46.275 16.505 3.278 24.547 4.892 40.265 7.973zm241.942 689.096c.144 21.715-19.233 45.817-29.521 63.746-16.692 1.543-32.363 6.621-48.256 11.618 10.084-18.521 26.25-40.579 27.424-62.385 16.19-6.138 33.082-11.125 50.353-12.979zm-20.033-59.6c7.959 7.776 11.252 12.442 15.46 24.188-16.869 1.652-32.728 6.772-48.804 11.817-3.987-11.844-7.368-16.378-15.678-23.748 16.182-5.016 32.167-10.014 49.022-12.257zm-51.518-24.987c11.845 2.903 17.684 4.62 28.188 9.448-17.093 3.246-33.887 7.992-50.341 13.619-11.159-4.191-17.391-5.545-29.929-7.853 17.111-5.871 34.473-11.054 52.082-15.214zm-27.26-31.574c2.561 8.567 4.19 12.503 8.238 19.803-17.454 4.526-34.706 9.805-51.77 15.622-3.618-7.589-5.027-11.681-7.094-20.594 16.715-5.465 33.587-10.469 50.626-14.831zm-6.02-50.042c-.08 11.541.173 16.891 1.359 26.872-16.543 4.327-32.871 8.958-49.249 13.882-.571-10.398-.482-15.975.393-28.018 15.777-4.471 31.547-8.908 47.497-12.736zm4.668-68.226c-.452 15.103-1.77 24.02-3.005 37.268-15.153 3.478-30.184 7.41-45.219 11.361 2.271-13.847 3.406-22.998 3.873-38.372 14.713-3.671 29.513-7.129 44.351-10.257zm-6.538-71.415c3.007 13.422 4.108 20.366 5.431 34.664-14.91 3.016-29.787 6.359-44.578 9.915-1.51-14.31-2.754-21.197-6.085-34.435 15.046-3.527 30.09-7.036 45.232-10.144zm-22.882-62.362c6.085 11.468 8.776 17.47 13.367 29.95-15.45 3.343-30.806 7.058-46.163 10.793-5.002-12.157-7.911-17.966-14.426-29.035 15.712-4.029 31.424-8.036 47.222-11.708zm-39.057-32.09c10.511 6.804 15.165 9.936 23.025 16.239a6628.656 6628.656 0 00-48.936 10.461c-8.473-6.753-13.398-10.086-24.168-17.296l50.079-9.404zm-40.879-33.569c6.605 6.986 10.164 10.402 18.001 17.032a3936.963 3936.963 0 01-49.664 6.998c-7.351-7.956-10.562-12.12-16.365-20.687 16.044-.898 32.012-2.034 48.028-3.343z"/><path d="M278.832 223.436c.727 11.672 1.561 17.166 4.197 27.562-15.084.211-30.273.148-45.342-.606-1.029-11.758-1.104-17.913-.485-30.804 13.801 1.768 27.751 2.915 41.63 3.848zm5.727-65.389c-2.992 14.549-4.035 21.43-5.185 34.486-15.13-2.328-23.221-3.601-38.71-6.638 2.125-14.058 3.562-21.381 7.057-36.639 14.91 3.83 22.481 5.565 36.838 8.791zm17.939-84.497c-.924 16.15-2.202 30.937-8.195 46.15-14.107-3.793-21.416-5.827-36.272-10.12 5.774-15.047 6.7-29.585 7.193-45.49 15.319 3.973 22.757 5.89 37.274 9.46zm-3.969-100.624a1071.448 1071.448 0 013.91 49.892c-15.005-2.766-22.671-4.251-38.39-7.332a1093.052 1093.052 0 00-4.635-47.66c15.962 2.145 23.776 3.18 39.115 5.1zm211.168 798.181c-15.835 26.97-32.606 53.353-49.608 79.599-12.059-1.956-18.851-2.196-34.87-.343 17.583-27.053 34.779-54.295 51.254-82.038 16.052-1.54 22.452-.756 33.224 2.782zm25.407-99.393c3.555 12.529 4.498 19.691 3.94 36.433-10.314-4.221-16.648-5.191-33.05-3.569.747-16.736-.368-23.644-4.576-35.39 16.27-1.648 22.78-.933 33.686 2.526zm-32.879-45.951c8.973 6.347 13.094 10.044 19.826 19.109-12.206-2.053-19.247-2.191-36.094.124-7.959-7.776-12.825-10.715-23.328-15.541 17.859-3.347 25.653-3.973 39.596-3.692zm-41.037-26.608c3.308 7.054 6.497 8.979 16.777 13.358-14.522 1.384-29.37 4.038-43.526 7.494-11.845-2.9-14.974-4.494-19.021-11.795 15.193-3.527 30.3-6.941 45.768-9.059l.002.002zm-9.566-41.439c.633 9.608 1.227 14.049 3.112 22.312-16.06 1.853-31.751 5.029-47.55 8.376-2.561-8.568-3.476-13.174-4.661-23.156 16.331-3.115 32.526-6.006 49.099-7.532zm2.12-55.513c-1.37 12.689-1.86 18.604-2.313 29.687a654.507 654.507 0 00-50.269 6.493c.08-11.541.431-17.708 1.666-30.955a625.61 625.61 0 0150.916-5.225zm2.684-73.029c.979 14.379 1.081 21.734.484 36.661-17.283.746-33.903 2.171-51.078 4.326.453-15.102.215-22.466-1.109-36.763 17.108-2.508 34.418-3.866 51.703-4.224zm-12.568-68.417c4.026 12.898 5.67 19.576 8.188 33.279a453.4 453.4 0 00-52.755 4.692c-3.005-13.423-4.925-19.913-9.518-32.392 17.907-2.804 35.981-4.701 54.085-5.579zm-28.481-47.075c8.151 6.399 11.074 4.013 16.573 15.977-18.607 1.329-37.146 3.648-55.541 6.734-6.086-11.469-8.17-9.552-16.03-15.854 18.247-2.908 36.593-5.226 54.998-6.857zm-49.695-32.075c9.226 5.852 14.394 8.562 25.552 15.509a1238.767 1238.767 0 00-53.88 7.17c-10.511-6.804-15.041-9.914-22.877-16.545a2372.244 2372.244 0 0151.205-6.134zm-39.699-31.543c4.208 9.016 9.489 10.836 17.8 16.791l-47.31 3.849c-6.605-6.986-10.806-9.33-13.442-19.726a1581.41 1581.41 0 0042.952-.914zm-10.109-52.314c-.211 12.038.26 17.617 2.294 28.053-15.235-.734-23.01-1.197-39.333-2.373-.726-11.672-.612-17.83.538-30.888 15.128 2.328 22.358 3.368 36.503 5.208h-.002z"/><path d="M328.548 128.492c-4.908 15.792-6.751 23.157-9.274 36.979-13.469-2.693-20.364-4.183-34.719-7.409 2.991-14.549 4.946-22.203 9.747-38.355 14.105 3.793 20.925 5.57 34.246 8.785zm10.585-99.263c.338 17.536-.052 35.09-1.246 52.59-13.811-3.027-20.873-4.706-35.388-8.276.442-17 .417-33.72-.062-50.717 15.006 2.766 22.333 4.068 36.696 6.402zM558.95 724.382c.555 20.59-17.816 43.344-27.4 60.487-6.957-7.25-11.083-10.232-21.855-13.77 10.066-17.46 29.941-41.718 29.348-62.961 10.313 4.221 14.018 7.727 19.907 16.244zm-11.073-69.925c4.93 10.949 6.884 17.063 9.21 30.972-6.907-7.302-11.077-10.254-21.984-13.712-3.553-12.529-6.32-17.771-13.052-26.835 12.206 2.053 17.195 4.129 25.826 9.575zm-33.786-42.707c8.139 6.452 12.03 10.082 18.899 18.542-10.793-3.221-16.819-4.239-30.764-4.52-8.973-6.347-13.981-8.873-24.261-13.253 15.853-1.587 23.002-1.675 36.128-.771l-.002.002zm-17.88-33.537c1.048 7.806 1.865 11.397 4.273 18.05-14.706-.039-22.428.511-39.294 2.887-3.308-7.054-4.57-10.855-6.456-19.121 13.479-1.811 27.886-2.685 41.477-1.816zm.226-45.49c-.988 10.47-1.303 15.331-1.385 24.411-14.12-1.524-29.337-1.023-43.43.588-.633-9.608-.641-14.752-.189-25.835 15.295-1.399 29.759-.544 45.004.836zm6.511-63.355c-.594 14.721-1.484 23.338-3.15 35.315-15.591-2.009-30.314-3.506-46.056-2.491 1.37-12.689 2.57-21.442 3.167-36.369 15.807-.697 30.448 1.165 46.039 3.545zm-3.932-72c2.182 13.953 2.919 21.088 3.7 35.521-15.722-2.468-30.348-4.373-46.291-3.725-.978-14.38-1.86-21.429-4.378-35.132 16.224-.798 30.931.943 46.969 3.336zm-18.063-66.262c5.059 12.427 7.221 18.895 10.83 32.18-16.491-2.204-31.314-3.631-47.926-2.528-4.026-12.898-6.414-19.142-11.912-31.105 17.058-1.504 31.978-.489 49.008 1.453zm-38.822-36.782c11.092 7.85 15.756 11.509 23.487 18.772-17.524-1.069-32.803-.733-50.24.579-8.151-6.399-12.987-9.604-24.144-16.551 17.327-1.771 33.452-2.856 50.897-2.8zm-50.468-30.752c9.307 5.684 14.11 8.532 24.016 14.371-16.886.561-33.203 1.924-50.001 3.674-9.226-5.852-13.586-8.794-21.897-14.746 15.967-1.377 31.876-2.5 47.882-3.299zm-33.208-36.48c3.645 9.266 6.113 13.455 12.194 21.16-14.891.568-29.772 1.305-44.665 1.837-4.208-9.017-5.783-13.841-7.816-24.275 15.237.734 25.107.784 40.287 1.278z"/><path d="M353.433 171.427c-1.753 13.163-1.896 19.172-.862 30.258-13.924-1.455-22.553-2.102-36.696-3.944.209-12.036.878-18.463 3.401-32.285 13.471 2.691 21.067 3.813 34.157 5.971zm18.204-82.873c-1.892 16.465-4.082 31.589-10.162 47.1-12.777-2.533-19.604-3.961-32.924-7.176 6.248-15.331 7.938-30.31 9.337-46.661 13.811 3.026 20.544 4.397 33.749 6.737zm.725-107.686c1.357 17.81 2.027 35.675 1.952 53.537-13.794-1.79-20.818-2.845-35.18-5.181-.334-17.321-1.351-34.627-2.993-51.874 14.76 1.603 21.995 2.323 36.221 3.518zm169.083 830.314c-12.332 23.17-25.493 45.873-38.847 68.465-4.226-11.081-6.965-15.638-16.164-20.378 15.498-24.529 30.733-49.208 45.118-74.411 6.956 7.249 8.277 13.158 9.893 26.324zm27.039-101.186c.582 14.13-.163 28.875-1.938 42.889-.944-13.554-1.703-19.991-7.593-28.506.946-17.343.463-25.057-1.863-38.965 6.907 7.302 8.508 12.843 11.396 24.582h-.002zm-13.542-65.717c4.543 10.761 6.478 16.664 9.267 29.757-5.028-9.715-7.7-14.148-16.331-19.595-4.929-10.948-8.018-15.701-14.886-24.164 10.794 3.222 14.67 6.429 21.95 14.002zm-22.783-42.752c1.366 6.864 3.934 9.765 9.742 18.48-9.553-5.41-14.684-7.358-27.809-8.262-8.139-6.452-11.205-8.821-13.612-15.474 14.705.039 20.54 1.344 31.679 5.256zm.162-39.349c-1.058 9.056-1.594 13.379-1.706 21.16-12.227-3.188-18.389-4.494-34.407-5.126-1.048-7.807-1.242-12.004-1.16-21.084 17.24 1.29 23.753 2.61 37.273 5.052v-.002zm6.658-50.656c-1.363 11.241-2.127 16.572-3.517 26.693-14.071-2.039-20.713-3.477-39.025-5.502.987-10.47 1.699-16.057 3.365-28.034 19.171 2.853 25.625 4.586 39.177 6.843zm-.378-69.563c1.384 14.207 1.767 21.362 1.888 35.662-12.292-2.896-18.191-4.863-37.543-8.24.592-14.721.552-22.049-.231-36.481 19.557 3.525 24.895 5.593 35.886 9.059zm-12.738-69.678c3.553 13.5 5.129 20.47 7.741 34.437-9.803-3.832-14.651-5.887-34.585-9.335-2.183-13.953-3.625-20.803-7.234-34.088 20.42 3.202 24.936 5.12 34.078 8.986zm-24.853-53.014c7.226 8.169 9.438 7.459 14.332 20.193-9.08-3.774-13.428-5.499-34.386-8.348-5.059-12.428-7.606-10.748-15.339-18.01 20.922 1.582 25.855 2.84 35.393 6.165zm-47.609-39.646c9.74 6.597 15.097 9.764 25.561 18.555-10.571-2.848-16.175-3.606-36.831-3.849-11.092-7.851-16.546-10.544-26.451-16.383 19.768-.561 25.933-.269 37.721 1.677zm-44.93-31.505c6.431 6.51 11.943 9.28 21.191 15.513-13.006-.987-19.61-.922-37.998-.059-9.308-5.683-14.932-7.625-21.016-15.33 16.752-.645 23.631-.739 37.823-.124zm-19.806-41.771c1.356 10.485 2.736 15.085 6.732 23.366-14.965-1.563-21.759-2.143-36.94-2.637-3.645-9.267-4.85-14.302-5.883-25.386 13.925 1.453 20.641 2.562 36.093 4.659l-.002-.002zm7.569-65.596c-4.348 14.612-5.961 23.071-7.448 36.19-15.603-1.944-22.263-3.344-35.352-5.502 1.752-13.165 3.332-20.277 8.04-35.774 12.776 2.533 19.413 3.973 34.76 5.086z"/><path d="M409.008 38.09c-.325 18.722-1.232 37.45-3.044 56.092-14.498-1.721-21.126-3.278-34.331-5.618 1.741-17.994 2.603-36.07 2.678-54.148 13.794 1.789 20.562 2.856 34.697 3.673zm159.758 748.892c-2.512 20.059-14.773 39.315-23.364 57.253-1.598-13.214-2.34-19.866-3.957-33.033 9.104-17.358 24.428-38.061 25.098-58.305.945 13.554 1.334 20.423 2.223 34.085zm7.556-87.946c.643 15.09.526 23.211-.919 40.763-2.694-12.061-4.031-18.067-6.918-29.806-.547-15.722-1.485-22.864-4.274-35.959 5.03 9.715 7.413 14.752 12.111 25.002zm-11.325-64.284c3.62 10.757 5.191 16.611 7.522 29.434-6.812-8.323-10.297-12.334-17.577-19.907-4.543-10.76-7.232-15.568-13.04-24.284 9.554 5.411 14.151 8.385 23.095 14.757zm-4.106-42.654c-1.529 8.534-1.815 12.345-1.56 20.38-10.612-4.827-16.032-7.031-27.171-10.944-1.368-6.864-1.655-10.398-1.545-18.179 12.227 3.188 18.278 4.953 30.275 8.743h.001zm10.218-48.79c-1.596 10.388-2.67 15.469-4.898 25.352-13.589-2.732-20.369-4.046-33.887-6.488 1.059-9.055 1.746-13.837 3.136-23.958 14.072 2.039 21.212 3.075 35.649 5.094zm.809-58.74c1.553 13.564 2.196 21.379 1.798 32.211-14.219-1.926-21.187-2.993-34.739-5.251 1.364-11.241 1.635-19.619 1.514-33.918 12.291 2.895 18.594 4.307 31.427 6.958zm-13.79-68.016c3.817 13.642 5.515 20.451 8.309 34.052-11.263-3.442-16.843-5.196-27.834-8.664-1.384-14.207-2.389-21.279-5.001-35.246 9.803 3.832 14.716 5.829 24.526 9.858zm-20.75-66.837c5.015 12.786 7.137 19.325 11.008 32.766-8.879-4.282-13.387-6.351-22.526-10.217-3.553-13.5-5.624-20.083-10.52-32.818 9.08 3.775 13.484 5.858 22.038 10.269zm-32.732-43.55c9.145 9.268 13.003 13.635 19.505 22.263-8.97-3.985-13.604-5.844-23.141-9.17-7.226-8.168-11.585-12.298-22.049-21.086 10.571 2.846 15.72 4.467 25.683 7.995l.002-.002zm-43.29-39.144l20.732 18.361c-11.141-2.646-16.9-3.816-28.687-5.76-9.741-6.599-14.49-9.754-23.737-15.987 13.006.987 19.374 1.677 31.692 3.386zm-29.079-33.555c3.257 7.845 5.46 11.11 10.887 16.909-13.523-1.182-20.502-1.639-34.692-2.256-6.433-6.51-9.082-10.118-13.077-18.399 14.964 1.564 22.387 2.303 36.882 3.746zm-4.502-53.6c-1.562 14.059-1.688 20.076-.761 30.675-15.177-1.292-22.903-2.104-38.352-4.201-1.357-10.483-1.365-16.295.122-29.415 15.603 1.944 23.465 2.487 38.991 2.941zm14.713-84.338c-1.277 15.532-2.573 30.363-7.638 45.193-15.471 1.066-23.267 1.13-38.616.017 5.818-15.299 7.862-30.382 9.734-46.566 14.498 1.72 21.863 1.937 36.52 1.356zm.523-115.397a829.366 829.366 0 011.42 57.637c-14.169 1.044-21.283 1.129-35.419.311a719.1 719.1 0 00-1.293-55.68c14.163-.2 21.221-.647 35.292-2.268zm139.183 789.954c-2.931 17.094-6.617 34.056-10.925 50.854-1.169-13.46-1.613-20.305-2.503-33.969 2.758-15.685 5.402-31.273 6.636-47.168 2.694 12.062 4.004 18.162 6.79 30.282l.002.001z"/><path d="M589.152 685.767c.282 14.651.083 22.505-1.258 39.354-4.6-10.57-6.876-15.819-11.575-26.071-.643-15.09-1.468-22.028-3.799-34.853 6.811 8.323 10.108 12.665 16.633 21.568l-.001.002zm-3.868-60.189c-1.127 9.515-.14 13.641 1.455 26.2-8.471-7.213-12.799-10.636-21.744-17.008-3.62-10.757-5.41-14.261-5.667-22.293 10.612 4.826 15.79 7.463 25.956 13.101zm14.963-49.811c-3.671 11.027-6.395 16.849-9.615 26.45-11.801-4.29-17.743-6.331-29.741-10.121 1.528-8.534 3.09-13.53 5.319-23.413 13.588 2.733 20.4 4.165 34.037 7.084zm9.721-54.696c.296 10.735-.309 16.196-2.382 27.162-14.735-1.893-22.044-2.892-36.481-4.911 1.597-10.388 2.213-15.705 2.609-26.537 14.219 1.926 21.491 2.801 36.256 4.286h-.002zm-15.109-62.011c4.455 12.784 6.461 19.1 9.7 31.716-13.263-2.289-19.81-3.548-32.64-6.199-1.554-13.564-2.687-20.355-5.482-33.956 11.266 3.443 16.961 5.152 28.422 8.439zm-24.613-65.51c4.44 13.17 7.091 20.076 12.367 33.179-9.771-4.08-14.676-6.136-24.486-10.165-3.818-13.642-5.869-20.633-9.74-34.075 8.879 4.283 13.254 6.521 21.859 11.061zm-24.415-54.481c5.847 9.053 6.904 9.688 12.291 22.312-8.044-4.877-12.189-7.234-20.743-11.647-5.017-12.785-6.727-12.666-13.231-21.294 8.97 3.985 13.313 6.135 21.681 10.628l.002.001zm-36.845-46.306c7.526 8.641 11.83 13.226 19.719 22.941-9.274-4.079-14.098-6.007-24.062-9.534-9.143-9.268-13.959-13.152-22.557-20.787 11.139 2.646 16.542 4.138 26.9 7.38zm-33.094-38.772c4.248 5.725 8.381 10.157 15.203 18.113-11.445-2.348-17.425-3.38-29.742-5.089-8.003-7.112-12.764-10.846-18.189-16.645 13.523 1.182 20.107 1.913 32.728 3.621zm-11.625-41.056c.327 11.35 1.018 15.996 3.363 24.044l-35.351-3.521c-3.257-7.846-4.336-12.31-5.263-22.911 15.177 1.292 22.683 1.742 37.251 2.388zm8.956-77.224c-3.09 14.364-5.458 29.095-7.13 43.694-15.064.778-22.793.914-38.32.462 1.563-14.058 3.424-25.647 7.074-39.148 15.472-1.066 23.22-2.126 38.376-5.008zm6.479-102.727c-.228 19.515-.169 39.049-.763 58.557-14.445 2.56-21.798 3.412-36.455 3.992 1.241-19.223 1.651-38.505 1.944-57.762 14.168-1.043 21.254-2.023 35.272-4.788l.002.001zm119.816 718.717c-2.966 16.288-6.282 32.327-9.949 48.474-3.16-11.912-4.59-17.975-7.374-30.094 2.328-14.965 4.563-29.864 5.703-44.976 4.599 10.568 6.886 15.924 11.622 26.594l-.002.002zm7.942-80.984c-.216 14.079-.611 21.644-2.163 37.841-6.42-9.313-9.619-13.901-16.144-22.804-.282-14.653-.816-21.433-2.411-33.993 8.469 7.214 12.593 11.025 20.718 18.956z"/><path d="M619.916 613.452c-5.132 10.981-6.955 15.815-9.689 27.126-9.802-6.354-14.776-9.373-24.942-15.012 1.127-9.514 2.127-13.759 5.345-23.36 11.8 4.291 17.653 6.556 29.284 11.246h.002zm24.809-60.75c-2.774 11.86-5.007 18.006-10.343 30.488-13.668-3.003-20.499-4.505-34.136-7.424 3.671-11.027 5.269-16.56 7.341-27.528 14.735 1.894 22.175 2.803 37.138 4.464zm-6.588-56.794c5.143 11.466 8.533 17.255 9.3 28.207-15.189-.938-22.702-1.567-37.468-3.052-.297-10.734-2.176-17.683-5.414-30.298 13.263 2.287 19.998 3.335 33.582 5.143zm-31.197-59.059c6.951 12.365 10.394 18.335 16.729 30.101-11.578-2.999-17.354-4.597-28.814-7.883-4.455-12.784-6.97-19.222-12.246-32.328 9.771 4.079 14.645 6.125 24.331 10.11zm-29.328-62.893c5.978 12.262 8.563 18.395 13.79 31.094-8.317-4.637-12.551-6.965-21.156-11.504-4.44-13.17-6.739-19.556-12.125-32.18 8.044 4.875 11.939 7.422 19.491 12.59zm-26.671-47.513c6.752 10.107 9.729 14.891 15.033 24.312-7.738-4.85-11.773-7.217-20.143-11.71-5.845-9.052-9.233-13.64-17.124-23.355 9.272 4.078 13.734 6.25 22.234 10.753zm-32.508-47.766c5.755 8.745 8.771 13.216 15.339 22.808-9.446-3.731-14.425-5.497-24.783-8.737-7.527-8.641-11.069-12.698-17.891-20.654 11.445 2.349 16.943 3.679 27.335 6.583zm-18.141-38.594c1.454 8.891 2.604 12.425 5.694 18.718-11.256-1.999-17.473-3.108-30.092-4.816-4.248-5.725-5.92-8.964-8.265-17.01 13.739 1.383 21.108 2.695 32.665 3.109l-.002-.001zm1.338-64.749c-2.037 17.851-2.595 25.238-2.85 37.981-11.568 1.584-19.947.277-34.515-.369-.325-11.349.021-17.892 1.829-33.526 15.065-.778 24.288.182 35.536-4.086zm11.272-93.467c-.376 14.796-.868 29.133-4.138 43.621-10.523 7.632-20.385 7.358-35.541 10.241 4.298-14.55 5.001-29.111 5.716-44.176 14.445-2.56 23.98-2.172 33.963-9.686zm-.772-117.804c.941 19.705 1.12 39.396 1.093 59.12-10.717 6.87-19.501 7.032-33.52 9.797-.1-19.598-.447-39.152-1.625-58.721 13.983-3.086 22.212-3.856 34.052-10.196zm86.104 865.359c-5.472 18.796-11.415 37.455-17.765 55.974-2.735-12.114-3.795-18.444-5.578-31.388 5.426-17.792 10.348-35.738 14.675-53.829 3.16 11.912 4.846 17.805 8.668 29.243zm23.176-97.249c-2.735 15.477-6.157 30.783-9.639 46.106-5.105-10.555-7.516-15.904-12.251-26.576 2.481-14.25 4.446-28.74 5.78-43.145 6.422 9.312 9.611 14.063 16.11 23.615zm12.949-74.919c-4.511 13.425-5.112 18.803-6.875 34.068-7.914-8.527-11.898-12.667-20.023-20.599.216-14.079.034-18.832 2.768-30.144 9.8 6.353 14.613 9.704 24.13 16.675z"/><path d="M668.568 590.676c-7.174 14.256-12.531 22.205-19.749 34.882-11.497-4.987-17.272-7.428-28.905-12.116 5.132-10.981 9.13-17.788 14.466-30.27l34.188 7.504zm17.25-65.012c1.067 11.484.174 17.707-3.473 30.776-15.121-1.323-22.656-2.093-37.618-3.754 2.775-11.859 3.481-17.621 2.712-28.573 15.189.938 22.886 1.267 38.379 1.551zm-33.131-51.724c8.403 10.562 12.47 15.641 19.704 25.77-13.797-1.208-20.665-1.986-34.252-3.794-5.142-11.465-8.132-17.211-14.467-28.977 11.578 3 17.394 4.422 29.015 7.001zm-40.861-57.335c6.203 12.039 10.367 18.48 19.182 29.923-9.557-3.744-14.378-5.706-24.064-9.691-6.951-12.366-10.31-19.085-15.538-31.784 8.318 4.637 12.404 6.975 20.42 11.552zm-26.599-52.626c4.637 9.399 3.919 11.377 10.675 23.088-7.079-5.286-10.735-7.936-18.288-13.103-5.978-12.262-6.336-13.771-11.641-23.194 7.739 4.85 11.697 7.73 19.252 13.207l.002.002zm-26.933-50.285c5.483 10.148 8.818 15.88 14.304 25.984-8.607-5.639-13.157-8.735-21.659-13.236-6.75-10.108-10.601-15.364-17.169-24.955 9.446 3.732 14.68 6.83 24.524 12.207zm-22.472-46.051c2.811 8.741 5.435 12.94 10.003 22.083-11.08-5.059-17-8.133-27.391-11.037-5.756-8.745-9.355-13.588-12.446-19.881 11.257 1.999 17.718 4.733 29.834 8.835zm-7.185-59.336c.042 16.018.42 22.607 1.862 34.222-12.232-.786-18.649-2.013-30.207-2.426-1.453-8.891-1.768-14.038-1.513-26.783 11.57-1.584 17.8-2.072 29.858-5.013zm6.607-107.856c-1.889 20.213-3.645 40.441-4.94 60.7-11.553 7.358-17.425 9.902-28.675 14.17a1380.962 1380.962 0 017.135-49.846c10.523-7.631 15.838-12.573 26.48-25.024zM539.607.86c-.954 18.584-1.352 37.125-1.89 55.72-9.936 12.65-14.827 17.772-24.811 25.288.177-19.56.009-39.106.318-58.669 10.718-6.87 15.862-11.433 26.383-22.339zm91.218 801.764a1802.654 1802.654 0 01-14.56 50.759c-9.216-8.12-14.21-12.511-18.031-23.949 4.932-16.933 9.465-33.984 13.535-51.144 5.105 10.553 9.765 15.698 19.056 24.334zm21.804-90.232a1440.895 1440.895 0 01-9.759 43.169c-10.067-8.473-14.959-13.82-21.46-23.371 2.476-13.511 4.537-27.205 6.075-40.856 7.913 8.527 13.625 13.462 25.144 21.058zm30.656-74.756c-7.196 11.476-13.977 23.988-19.023 36.568-13.363-6.022-20.389-9.977-29.907-16.946 4.513-13.424 7.246-19.005 14.463-31.683 11.497 4.987 19.61 7.8 34.466 12.061h.001z"/><path d="M722.894 558.774c-3.08 13.278-8.966 27.23-15.694 39.045-16.073-2.49-24.956-4.158-38.634-7.142 7.175-14.256 10.127-21.171 13.774-34.24 15.121 1.324 24.216 1.674 40.554 2.337zm-16.286-58.665c8.949 8.974 15.177 11.912 17.713 24.368-14.839.69-23.009 1.482-38.502 1.196-1.067-11.484-6.196-15.834-13.428-25.964 13.797 1.208 21.085.542 34.217.4zm-49.669-47.19c10.449 10.172 15.72 14.973 25.77 24.341-11.731-.902-18.403-.746-30.024-3.325-8.403-10.561-12.866-15.969-21.681-27.41 9.557 3.744 15.586 4.302 25.935 6.394zm-43.31-53.576c7.902 10.679 11.586 15.946 19.657 26.832-8.586-3.448-13.444-4.991-21.461-9.567-6.203-12.039-9.167-17.829-15.923-29.542 7.081 5.286 10.707 7.677 17.727 12.277zm-21.283-46.564a3121.798 3121.798 0 0110.984 23.736c-7.038-4.802-10.547-7.072-18.102-12.549-4.637-9.399-7.14-14.179-12.626-24.283 8.607 5.638 12.201 7.934 19.744 13.096zm-21.482-49.163c3.451 9.153 5.328 13.811 9.739 23.798-8.474-5.695-12.463-8.325-22.307-13.702-5.481-10.148-7.906-14.837-12.472-23.977 11.08 5.058 15.542 7.862 25.04 13.881zm-11.545-56.864c1.025 15.174 1.831 21.516 4.049 33.005-10.479-5.568-15.429-8.005-27.545-12.107-2.811-8.742-3.882-13.512-5.323-25.126 12.232.786 17.672 1.417 28.819 4.228zm.762-103.35c-.876 19.726-1.678 39.443-1.848 59.189-11.648.904-17.539 2.765-29.597 5.708-.06-15.739.813-31.428 1.668-47.139 11.554-7.358 17.838-12.238 29.777-17.758zm6.148-122.832c-1.6 15.733-1.408 31.776-1.697 47.554-10.554 9.77-20.475 20.986-29.286 32.336.71-14.638 2.023-29.235 2.471-43.886 8.932-12.33 18.264-24.725 28.512-36.004zm6.472-99.116c-.954 16.827-2.459 33.612-3.919 50.4C556.791-17.755 550.127-10.06 539.605.848c.765-18.819 1.396-37.625 1.455-56.46 11.497-9.278 18.668-14.848 31.641-22.934zm98.097 852.578l-13.88 47.436c-11.589-6.455-16.801-10.216-26.094-18.852 4.159-15.657 8.277-31.313 12.043-47.071 10.067 8.471 15.628 12.174 27.931 18.487zm29.051-87.114c-6.307 13.144-12.506 27.537-15.759 41.8-13.694-5.458-19.942-8.745-31.461-16.341 3.478-16.459 5.178-22.879 11.638-38.182 13.363 6.023 20.421 8.589 35.582 12.723zm47.944-84.017c-8.323 14.835-17.078 29.201-26.072 43.638-15.955-2.851-23.575-4.651-38.432-8.913 8.297-13.015 16.663-26.168 23.915-39.801 16.073 2.489 24.117 3.517 40.589 5.076zm12.27-80.107c5.049 13.102 5.869 20.249 3.204 37.1-16.04-.209-24.032-.437-40.369-1.102 3.632-15.066 3.958-21.851 1.423-34.309l35.742-1.689zm-49.075-43.392c11.3 8.334 16.816 12.363 27.1 20.394l-31.479.301c-8.949-8.974-13.848-13.476-23.898-22.844l28.277 2.149zm-56.686-45.05c9.982 9.72 16.008 14.58 27.755 23.52-9.809-1.879-14.771-2.87-25.119-4.962-10.448-10.172-15.58-15.861-23.653-26.749 8.587 3.448 12.742 5.084 21.017 8.191zm-33.664-46.096c4.021 8.838 1.47 12.347 10.383 21.984-6.936-4.129-10.375-6.304-17.393-10.904-7.902-10.679-6.068-13.576-10.3-22.817 7.038 4.802 10.477 7.168 17.31 11.737z"/><path d="M601.231 342.024c3.448 9.38 5.651 14.492 9.546 23.726-7.21-5.166-10.89-7.8-18.432-12.962-4.579-9.817-7.334-15.394-11.743-25.381 8.474 5.694 12.612 8.681 20.629 14.617zm-12.41-47.192c1.402 13.387 2.629 15.685 5.095 24.518-8.917-6.495-13.554-9.732-23.053-15.751-3.451-9.153-5.279-12.368-7.496-23.857 10.481 5.567 15.605 8.692 25.454 15.09zm-1.823-91.549c-.473 17.511-.686 35.035-.363 52.55-10.695-4.344-16.169-6.285-27.317-9.097-1.017-14.711-1.046-29.42-1.084-44.158 11.648-.904 17.391-.629 28.764.703v.002zm7.584-158.537c-1.576 29.577-3.366 59.141-4.816 88.723-11.84 2.578-17.745 4.418-29.684 9.938 1.246-25.109 2.956-50.184 4.45-75.278 12.009-11.256 17.965-15.773 30.05-23.383zm4.229-95.118c-1.13 14.253-1.848 28.49-2.876 42.746-11.983 9.542-17.864 15.032-29.705 28.198.783-16.28 1.42-32.441 2.553-48.709 11.992-10.391 17.939-14.723 30.028-22.235zM720.692 739.22a3194.395 3194.395 0 00-16.747 47.533c-11.363-2.127-20.847-6.416-33.148-12.729 4.417-15.109 8.831-30.219 13.288-45.316 13.694 5.459 24.082 9.355 36.607 10.512zm42.664-87.661c-8.209 14.176-15.986 28.294-23.453 42.874-14.089-.256-24.897-3.382-40.055-7.514 6.274-13.839 13.892-27.453 21.871-40.378 13.632 2.509 27.785 4.397 41.637 5.018zm40.942-91.837c-2.588 16.297-5.648 31.144-13.984 45.681-14.15-.139-28.445-1.116-42.525-2.494 7.338-12.635 13.353-28.535 15.475-43.02 16.038.209 24.766.605 41.034-.167zM768.9 499.541c11.485 7.273 18.23 8.385 26.3 21.605l-35.137 1.644c-5.048-13.102-11.69-14.948-21.973-22.98 12.134-.099 17.929-.235 30.81-.269zm-61.723-37.597c12.912 7.892 19.336 11.693 31.753 19.175-11.678-.669-16.979-.904-27.941-1.723-11.303-8.333-17.184-12.588-28.93-21.529 9.808 1.88 14.625 2.559 25.118 4.077zm-58.098-42.592c9.79 8.775 14.815 13.125 26.574 21.863-8.931-2.53-13.076-3.739-21.351-6.847-9.982-9.72-14.371-14.483-23.282-24.118 6.934 4.129 10.502 5.764 18.059 9.102zm-19.747-41.613c3.322 8.481 5.091 12.6 9.009 20.865-7.445-3.881-10.876-5.786-17.706-10.357-4.021-8.838-5.965-13.278-9.862-22.512 7.21 5.166 10.745 7.426 18.559 12.004zm-12.778-42.752c1.591 8.347 2.567 12.499 5.161 21.106-8.611-5.448-12.465-8.145-20.483-14.079-3.448-9.38-4.848-13.827-7.314-22.662 8.917 6.495 13.137 9.523 22.637 15.634l-.001.001z"/><path d="M613.731 267.389c-.218 14.401-.46 28.795.003 43.194-10.421-6.263-15.063-9.342-24.912-15.738-1.402-13.388-1.83-20.94-2.185-39.002 10.695 4.344 15.832 6.636 27.094 11.546zm6.133-137.81c-1.41 26.22-2.801 52.44-4.007 78.671-11.93-2.593-17.485-3.619-28.857-4.952.638-23.289 1.664-46.559 2.769-69.83 11.838-2.577 17.702-3.269 30.095-3.889zm6.585-157.462c-4.119 18.385-.403 38.362-1.087 57.089-12.633 4.957-18.695 7.924-30.78 15.533.551-17.756.044-34.75 1.351-52.37 11.983-9.54 18.024-13.44 30.516-20.252zm109.746 818.535a1272.475 1272.475 0 00-17.428 48.824c-12.834-1.526-19.59-2.45-30.47-4.838 5.107-16 10.317-31.947 15.647-47.875 11.364 2.13 18.59 2.857 32.25 3.89l.001-.001zm43.165-97.202c-8.474 15.463-16.047 30.688-22.945 46.942-15.166.169-23.199-.004-35.724-1.163 5.755-15.503 12.074-29.886 19.211-44.795 14.091.256 22.572.062 39.458-.984zm53.987-89.632c-8.641 15.994-18.695 31.122-28.399 46.475a760.23 760.23 0 01-41.593 1.268c9.201-15.277 18.76-30.309 26.96-46.162 14.345-.337 28.704-.824 43.032-1.581zm-1.399-83.963c8.908 9.263 14.993 25.022 14.445 37.843-14.028.75-28.063 1.355-42.095 2.028 1.189-18.11-1.032-25.358-9.103-38.578 14.505-.682 19.592-.434 36.753-1.293zm-62.936-36.86c13.445 6.805 20.02 10.157 32.614 16.844-15.454.258-19.847-.342-32.728-.308-11.485-7.273-17.551-10.919-29.968-18.401 11.678.669 15.929 1.577 30.082 1.865zm-69.422-35.667c13.445 7.929 21.081 11.399 35.069 18.415-12.869-.98-16.987-2.268-27.481-3.784-12.91-7.892-19.763-12.013-31.522-20.751 8.931 2.531 12.729 4.283 23.934 6.122v-.002zm-40.799-39.606c3.837 7.727.578 11.472 11.154 19.561-9.734-2.491-13.305-4.603-20.866-7.941-9.788-8.775-6.822-12.462-10.739-20.728 7.445 3.88 10.23 5.965 20.449 9.11l.002-.002zm-13.969-38.965c1.763 7.868 2.985 11.897 5.757 19.661-11.185-3.958-13.428-6.09-21.242-10.668-3.322-8.482-5.029-13.042-7.622-21.649 8.612 5.449 10.525 7.714 23.107 12.656zm-3.469-43.661c-.783 15.185-.343 16.128.399 24.021-14.067-5.716-15.699-8.015-25.198-14.128-1.593-8.347-2.358-9.846-2.82-24.412 10.423 6.264 11.946 8.549 27.619 14.519z"/><path d="M648.912 214.77l-4.637 64.334c-17.437-4.675-19.287-6.814-30.548-11.724.444-19.724 1.269-39.432 2.125-59.142 11.932 2.593 14.025 4.108 33.06 6.532zm12.933-196.718c-2.144 36.882-4.47 73.751-6.934 110.613-20.422.729-22.654.287-35.048.909 1.83-33.456 3.753-66.909 5.502-100.37 12.633-4.957 14.893-6.15 36.482-11.154l-.002.002zm130.222 720.617c-8.309 17.654-16.237 35.489-23.696 53.517-11.301-.24-18.511-.495-32.172-1.53a1415.926 1415.926 0 0120.218-50.26c15.164-.172 23.183-.573 35.65-1.727zm54.163-91.943a4177.393 4177.393 0 00-27.558 42.867c-13.707 1.982-22.423 2.804-39.309 3.851 8.304-14.556 16.826-28.87 25.587-43.158 13.758-.769 27.599-1.893 41.28-3.56zm41.627-92.195c-1.06 16.538-2.533 31.721-11.949 46.006-14.139 1.452-28.37 2.496-42.56 3.298 8.901-14.527 11.209-29.571 13.046-46.13 13.826-.868 27.67-1.877 41.463-3.174zm-54.504-55.351c13.797 6.39 20.823 7.34 34.558 18.8-11.49.652-18.797 1.006-35.958 1.866-10.872-12.456-17.728-13.316-30.324-20.005 15.455-.258 21.74-.406 31.724-.661zm-72.68-32.069c15.157 6.43 22.622 9.642 37.188 16.055-9.151.08-14.695.112-28.848-.177-13.445-6.804-20.369-10.238-34.357-17.254 12.868.98 17.677 1.133 26.017 1.376zm-71.781-35.734c11.458 7.691 17.714 11.531 32.939 18.94-7.148-.73-11.037-1.154-22.24-2.992-13.447-7.929-19.064-11.953-29.642-20.042 9.735 2.49 12.793 3.081 18.943 4.094zm-18.051-36.803c2.032 7.179 3.381 10.756 6.95 18.08-5.587-.977-8.784-1.782-19.001-4.928-3.837-7.727-5.444-11.543-8.216-19.306 11.185 3.958 14.757 5.054 20.267 6.154zm-3.922-36.51c-.299 7.576-.239 11.238.504 18.5-5.859-1.393-10.023-2.868-22.605-7.81-1.761-7.867-2.328-11.742-3.068-19.635 14.068 5.716 18.87 7.465 25.169 8.945zm8.349-69.084c-1.889 15.318-3.787 30.63-5.951 45.914-6.868-1.827-12.295-3.834-27.965-9.803.796-15.342 1.873-30.666 2.926-45.991 17.437 4.677 23.359 6.9 30.99 9.88zm15.324-157.336c-2.481 30.246-5.074 60.482-8.078 90.681-8.226-3.175-14.561-5.136-33.596-7.559a18483.85 18483.85 0 005.997-86.111c20.423-.729 27.068.522 35.677 2.989z"/><path d="M699.246-51.08c-3.88 20.548 1.029 43.678-.196 64.76-8.774-.641-15.616-.619-37.205 4.384.951-19.931-3.562-42.005.723-61.517 21.49-6.64 28.047-7.254 36.678-7.625v-.002zm103.991 837.687c-7.344 17.458-14.129 35.153-20.217 53.09-13.088 2.708-19.849 2.438-33.864 2.797 5.914-16.949 12.353-33.715 19.216-50.302 14.721-1.233 21.825-1.354 34.865-5.584v-.001zm53.954-108.269c-9.242 16.923-18.854 33.359-27.547 50.624-13.678 6.282-21.47 7.061-37.578 9.7 8.141-17.053 16.548-33.081 26.604-49.065 16.527-3.259 24.37-4.285 38.521-11.259zm47.9-84.103c-7.446 14.966-15.619 28.921-24.209 43.262-13.248 5.894-19.895 6.551-34.652 9.235 10.151-15.239 20.625-30.28 29.679-46.213 12.348-1.738 17.478-1.838 29.182-6.284zm-12.782-77.107c13.188 10.78 17.988 16.85 20.505 34.143-10.654 2.958-14.519 2.484-24.953 3.24-.375-13.377-9.275-28.689-19.951-36.535 9.991-.032 13.324.884 24.399-.848zm-65.604-31.957c13.624 5.912 20.279 8.838 33.159 14.66-11.905.875-15.821-.16-26.511-.649-13.797-6.389-20.925-9.593-35.49-16.006 11.504 1.006 16.238 2.08 28.842 1.995zm-70.899-30.824c14.007 6.986 21.815 9.88 36.048 15.913-13.305-.622-18.859-1.691-31.179-3.127-12.976-5.509-26.133-10.692-38.843-16.799 13.319 1.767 19.784 2.783 33.974 4.013zm-44.121-36.069c4.278 7.066 2.223 10.899 13.215 18.182-14.77-1.908-21.995-2.907-36.009-5.077-11.457-7.691-7.53-11.402-11.098-18.726 13.22 2.494 20.01 3.594 33.892 5.621zm-13.803-36.21c1.164 7.357 2.413 11.245 5.214 18.54-13.185-2.094-19.637-3.268-32.255-6.036-2.034-7.18-2.677-10.743-3.419-18.006 11.954 2.661 18.036 3.723 30.46 5.502zm-1.877-44.681c-.155 17.166-.354 17.671-.012 25.612-11.829-1.453-17.623-2.393-29.075-4.935.299-7.575.335-8.51 2.398-23.165 10.465 1.63 15.771 2.063 26.689 2.488zm2.727-126.602c-.628 24.677-1.257 49.357-1.814 74.036-9.204 2.139-13.491 3.076-21.648 4.158 2.652-22.195 4.98-44.42 7.242-66.656 5.695-4.085 8.888-6.54 16.22-11.538zm20.403-199.471c-6.09 34.488-12.204 68.995-16.085 103.816-6.13 6.894-8.56 10.388-12.46 16.517 3.107-39.31 5.893-78.637 8.462-117.988 6.659-.515 10.602-1.213 20.083-2.345z"/><path d="M863.479 711.07c-10.134 20.662-19.454 41.737-28.025 63.089-12.71 5.662-19.18 8.22-32.22 12.451 8.202-19.498 17.189-38.6 26.41-57.632 13.678-6.283 20.47-9.95 33.835-17.908zm49.839-90.039a4711.148 4711.148 0 01-21.207 37.718c-13.763 8.607-20.767 12.612-34.92 19.586 7.864-13.634 15.744-27.257 23.691-40.845 13.246-5.895 19.741-9.256 32.436-16.459zm24.999-78.001c3.097 15.513 1.085 23.552-4.876 38.814-10.982 5.426-16.649 7.958-28.351 12.403 6.4-12.186 9.9-29.359 7.719-42.96 10.654-2.959 15.738-4.644 25.506-8.255l.002-.002zm-49.746-45.687c12.012 4.991 17.99 5.381 30.075 15.039-10.025 2.058-15.264 3.026-26.337 4.758-13.188-10.781-19.564-11.481-32.446-17.303 11.905-.875 17.623-1.388 28.708-2.494zm-63.579-25.801l32.629 13.139c-12.143.298-18.317.412-30.919.495-13.624-5.912-20.616-8.891-34.85-14.924 13.305.622 19.933.865 33.14 1.29zm-62.358-30.528c10.574 6.614 16.15 9.859 28.988 16.16-14.451-1.05-21.625-1.6-35.816-2.831-14.006-6.986-19.911-10.595-30.904-17.878 14.771 1.908 22.34 2.802 37.732 4.549zm-25.874-35.808c3.63 7.598 5.333 10.72 10.384 17.709-14.473-1.704-21.576-2.607-35.458-4.634-4.278-7.066-5.789-10.369-8.588-17.666 13.184 2.094 19.918 2.981 33.662 4.591zm-10.593-39.63c1.046 8.49 1.782 12.458 3.431 20.091-12.955-1.138-19.289-1.818-31.713-3.597-1.166-7.356-1.547-11.125-1.889-19.066 11.828 1.454 17.842 1.92 30.171 2.572zm-4.671-86.758c.704 19.516 1.449 39.026 2.569 58.522-11.559.398-17.139.473-28.057.048.17-17.522.515-35.042.912-52.558 9.204-2.14 14.074-3.448 24.576-6.012zm.061-180.685c-4.37 33.273-2.724 66.487-2.113 99.96-9.286 5.027-13.375 7.717-20.71 12.715.819-31.964 1.214-63.816 4.317-95.66 6.132-6.896 9.77-10.488 18.506-17.015zM767.322-39.26a38.106 38.106 0 01-13.997 8.755c4.689 14.122 2.521 27.346-6.504 39.67-12.744.366-18.208 1.029-27.688 2.16 3.114-16.705-2.806-44.85 10.409-56.816 13.544 2.143 21.026 3.166 37.78 6.232z"/><path d="M866.662 758.627c-7.431 20.441-14.138 40.892-20.059 61.818-12.247 4.792-18.527 7.026-31.267 10.923 5.864-19.393 12.827-38.328 20.121-57.221 12.709-5.662 18.977-8.833 31.205-15.52zm59.246-122.87c-8.364 18.339-20.566 35.557-29.572 53.87-12.895 9.112-19.494 13.488-32.856 21.444 8.912-17.879 19.685-34.581 28.631-52.302 13.763-8.607 20.543-13.297 33.797-23.012zm34.119-68.375c-4.513 14.195-9.088 21.758-15.72 34.464-12.092 8.089-18.298 11.999-30.991 19.2 7.263-12.546 15.183-25.513 20.128-39.204 10.982-5.425 16.297-8.37 26.585-14.46h-.002zm-17.459-60.452c11.112 8.261 15.36 13.002 19.166 26.462-8.981 4.055-13.649 6.014-23.416 9.627-3.097-15.513-7.588-20.989-19.673-30.646 10.022-2.058 14.78-3.164 23.923-5.443zm-55.091-23.167c11.511 4.366 17.102 6.469 27.92 10.611-10.399 1.255-15.742 1.864-26.825 2.972-12.012-4.991-18.217-7.511-30.947-12.66 12.143-.298 18.102-.496 29.852-.923zm-59.476-24.089c11.342 5.598 17.723 8.086 29.882 12.783-13.105-.32-19.682-.487-32.889-.913-13.358-5.375-20.535-8.07-33.373-14.371 14.449 1.05 21.741 1.534 36.38 2.501zm-44.012-32.753c5.82 7.052 7.925 12.427 17.756 18.35-15.875-1.684-23.72-2.521-39.112-4.266-10.574-6.614-10.438-11.106-15.488-18.097 14.472 1.705 21.852 2.483 36.842 4.013h.002zm-21.28-38.973c2.13 8.048 4.652 12.833 9.109 20.867-14.299-1.322-21.312-2.015-35.056-3.626-3.628-7.598-5.515-11.9-7.164-19.534 12.954 1.139 19.567 1.557 33.111 2.293zm-8.746-52.234c1.722 21.124 2.032 21.606 3.779 30.783-12.951-.136-19.247-.274-31.574-.927-1.047-8.489-.975-8.826-2.102-28.232 11.56-.398 17.507-.787 29.897-1.624zm-8.541-149.315c1.221 28.72 2.524 57.435 4.207 86.133-12.048 2.358-17.633 3.721-28.134 6.285-.884-26.907-1.502-53.82-2.054-80.736 9.285-5.026 14.431-7.509 25.981-11.682zm37.796-175.772c-16.186 23.272-27.894 45.559-36.167 72.809-11.723 5.026-16.76 8.152-25.496 14.679 5.801-30.642 14.711-59.63 25.268-88.964 12.742-.368 19.949-.303 36.395 1.476zm93.234 797.032c-4.305 19.525-8.119 38.99-10.244 58.893-12.15 3.946-18.415 5.806-31.212 9.162 2.784-18.624 6.725-37.07 11.605-55.258 12.247-4.794 18.242-7.4 29.851-12.797z"/><path d="M927.832 665.936c-11.364 24.728-21.856 49.61-31.355 75.116-11.599 7.306-17.587 10.89-29.817 17.576 8.936-23.443 19.04-46.299 29.676-69.012 12.897-9.112 19.222-13.936 31.496-23.68zm45.907-84.983c-5.142 10.732-8.272 16.72-15.449 29.67-12.629 10.298-19.124 15.412-32.38 25.127 8.029-14.344 11.767-21.201 18.399-33.905 12.092-8.089 17.985-12.337 29.43-20.892zm9.566-58.025c4.572 11.24 4.613 15.766 1.604 28.724-9.619 6.438-14.592 9.637-24.882 15.727 4.513-14.194 5.514-20.519 1.707-33.98 8.982-4.054 13.278-6.185 21.571-10.471zm-42.625-31.81c9.364 3.266 13.628 3.251 23.825 9.946-8.434 2.395-12.793 3.586-21.936 5.865-11.112-8.261-16.357-8.429-27.174-12.568 10.398-1.256 15.434-1.919 25.285-3.243zm-50.165-17.911c10.7 3.993 15.884 5.85 25.917 9.411-11.427.465-17.208.706-28.958 1.133-11.51-4.366-17.437-6.609-29.595-11.305l32.638.761h-.002zm-48.627-23.703c8.828 5.21 13.293 7.7 22.88 12.568l-36.773-2.413c-11.34-5.597-16.426-8.471-26.257-14.395l40.15 4.24zm-33.641-37.541c5.214 8.561 7.268 11.501 13.789 18.704-15.44-1.5-23.06-2.227-38.053-3.757-5.82-7.052-7.716-10.06-12.171-18.094 14.3 1.322 21.588 1.92 36.433 3.145l.002.002zm-17.213-45.486c2.382 9.953 3.789 14.497 6.333 23.049-14.192-.572-21.114-.849-34.658-1.585-2.13-8.048-3.219-12.279-4.967-21.457 12.953.136 19.591.086 33.292-.007zm-9.085-98.923c1.305 21.979 2.661 43.953 4.222 65.916-13.408.894-19.82 1.408-32.21 2.245-1.706-21.044-3.049-42.11-4.332-63.184 12.049-2.358 18.47-3.459 32.32-4.977zM780.48 73.933c-11.534 31.629-4.409 71.085-3.017 104.025-14.134 2.437-20.49 4.274-32.041 8.445-1.378-33.621-6.332-69.923 1.629-102.956 11.722-5.027 18.344-7.118 33.429-9.514zm89.209-85.463c-9.975-.491-15.615 3.483-16.915 11.924-2.552 10.753-10.338 17.022-23.354 18.803-15.34-3.559-30.507-6.974-46.205-8.571 5.796-7.535 18.26-39.042 30.46-39.691 18.978 4.957 37.51 11.06 56.014 17.535z"/><path d="M925.701 720.503c-7.923 23.252-15.136 46.573-20.733 70.508-11.481 9.996-16.906 11.228-28.515 16.625 5.444-22.53 12.094-44.811 20.027-66.596 11.601-7.306 16.578-9.996 29.221-20.537zm62.806-134.817c-12.334 17.075-20.972 36.224-30.174 55.457-12.666 10.024-18.227 15.034-30.501 24.779 8.944-18.422 23.047-36.69 30.456-55.316 12.629-10.298 19.144-16.299 30.221-24.918l-.002-.002zm19.443-49.628c-1.65 11.44-3.35 15.398-7.08 24.251-9.535 7.044-15.692 12.081-27.136 20.635 5.143-10.731 8.163-16.343 11.172-29.3 9.62-6.439 14.747-10.228 23.044-15.586zm-22.26-40.907c9.213 5.197 12.972 8.321 18.02 17.391-7.897 3.551-12.114 6.104-20.404 10.391-4.573-11.239-8.606-15.161-18.802-21.857 8.433-2.394 12.625-3.796 21.186-5.925zm-41.335-14.068c8.607 2.792 12.75 4.071 20.74 6.535-9.501 1.516-14.563 2.175-24.414 3.499-9.365-3.266-14.214-4.943-24.247-8.5 11.426-.465 17.443-.533 27.921-1.534zm-44.153-16.933c7.986 4.105 12.579 6.1 21.831 9.385-11.587.416-18.513-.01-31.517-.314-10.7-3.994-16.159-6.262-25.746-11.133 14.765.979 22.771 1.764 35.432 2.062zm-41.033-30.218c6.993 7.477 13.592 15.096 21.387 19.547-13.555-1.077-22.445-2.255-38.665-3.978-8.828-5.21-13.331-11.628-19.852-18.833 15.439 1.5 23.6 2.598 37.13 3.264zm-26.322-43.717c2.631 9.098 5.917 14.762 11.551 23.982-13.814.096-21.3-1.006-36.147-2.232-5.216-8.563-8.338-13.879-10.884-22.43 14.192.573 20.688 1.23 35.48.68zm-10.698-59.586c-.247 22.409 1.455 24.154 4.007 34.892-15.773 1.137-21.419.882-35.121.976-2.382-9.953-3.296-10.953-4.863-33.021 13.407-.896 18.235-.798 35.977-2.847zm-.08-156.352c.129 29.9.267 59.799.303 89.699-22.182 2.805-26.579 2.049-40.427 3.566-1.727-29.855-3.152-59.725-4.484-89.601 14.747-2.624 29.684-2.991 44.608-3.664zm65.544-142.239c-23.652 6.308-45.477 19.27-57.857 40.875-16.842-.79-32.635-1.77-49.276 1.015 11.23-23.43 25.963-41.771 48.942-54.723 20.354 5.271 36.983 12.72 58.191 12.833zm64.776-55.497c-4.921 17.258-7.331 22.846-20.394 30.705-19.799 4.678-44.22-11.902-62.304-18.766 12.999-7.27 15.853-12.539 21.867-28.925 17.706 6.099 41.774 20.983 60.831 16.986zm-20.185 789.361c-5.697 21.61-10.481 43.079-14.201 65.116-8.719 9.246-13.324 13.771-23.241 22.439 1.96-21.1 5.814-41.728 10.206-62.436 11.482-9.996 16.886-15.044 27.237-25.118l-.001-.001zm56.505-148.657c-11.59 25.564-22.559 51.281-32.781 77.425-11.583 10.12-17.585 15.299-30.229 25.84 9.872-26.939 20.796-53.227 32.635-79.359 12.665-10.025 18.698-14.803 30.375-23.906zm35.161-73.499c-2.47 7.573-4.25 11.944-8.79 21.735-10.22 7.564-15.496 11.602-26.572 20.222 6.15-11.421 8.646-16.532 12.372-25.386 9.54-7.042 14.11-10.355 22.99-16.571h0zm-.75-39.637c4.67 7.373 5.68 9.919 4.98 19.308-7.83 4.759-11.85 7.295-20.14 12.651 1.65-11.44.8-14.46-4.25-23.531 7.9-3.551 11.78-5.245 19.41-8.428zm-34.361-20.381c7.115 2.084 10.2 2.043 18.271 6.254-8.487 1.991-12.778 3.038-21.339 5.167-9.213-5.196-12.61-5.053-20.597-7.517 9.5-1.515 14.188-2.257 23.665-3.902v-.002zm-38.063-11.896c8.116 2.761 12.045 4.01 19.656 6.362-10.458 1.412-15.521 1.88-25.998 2.881-8.607-2.792-13.067-4.278-22.319-7.562 11.587-.417 17.088-.573 28.663-1.681h-.002zm-36.778-16.827c6.944 3.764 10.399 5.525 17.515 8.966-12.654.676-18.574.459-31.233.16-7.986-4.106-11.85-6.199-19.645-10.65 13.555 1.077 19.805 1.705 33.363 1.524z"/><path d="M878.828 413.338c5.033 10.004 7.074 13.523 13.848 21.371-13.571.379-19.979-.099-33.509-.765-6.993-7.477-9.138-10.517-14.772-19.736 13.815-.095 20.539.06 34.433-.87zm-12.926-50.751c1.336 11.287 2.302 16.392 4.033 25.9-14.914 1.174-22.296 1.189-37.09 1.742-2.629-9.099-4.14-13.967-6.693-24.707 15.773-1.137 23.819-1.386 39.75-2.935zm11.663-107.798c-3.254 23.509-6.713 46.971-10.741 70.362-14.783 2.556-29.797 3.679-44.679 5.474.233-22.212.234-44.426.229-66.637 18.506-2.43 36.962-5.144 55.191-9.199zm25.517-185.334c-14.978 27.753-12.271 65.889-15.227 96.604-21.911 3.783-43.624 6.422-65.785 8.223-.138-31.099-7.662-73.084 7.685-101.374 24.479.867 49.02-.634 73.329-3.453h-.002zm79.803-77.519c-8.72.724-13.331 4.806-13.833 12.247-1.113 9.017-7.021 14.519-17.725 16.507-21.271 5.565-41.813 9.333-63.714 11.358 14.56 2.401 23.463-1.906 26.706-12.92C916.36 11 922.251 7.04 931.995 7.255c17.622-2.508 34.69-8.035 50.89-15.318zm-44.314 815.48c-3.826 20.553-7.015 40.921-7.54 61.867-6.414 8.688-9.817 12.903-17.238 20.818-.303-19.885 1.66-39.395 4.21-59.083 8.719-9.246 12.789-14.004 20.569-23.602h-.001zm45.258-137.448c-9.6 23.377-18.799 46.852-26.889 70.8-9.481 10.004-14.386 15.054-24.737 25.128 6.831-24.13 15-47.729 23.725-71.23 11.583-10.12 17.12-15.07 27.901-24.698zm55.961-122.121c-7.23 15.999-15.34 31.828-22.86 47.795-10.94 8.19-16.54 12.512-28.219 21.615 8.294-17.625 16.419-35.249 26.369-51.771 10.22-7.564 15.14-11.093 24.71-17.639zm7.37-35.639c.12 7.566-.39 10.458-1.78 16.98-8.31 5.409-12.64 8.342-21.51 14.558 2.47-7.574 3.54-10.942 4.23-20.33 7.83-4.76 11.7-7.044 19.06-11.208zm-19.09-27.094c6.76 3.452 9.6 5.535 13.76 11.437-7.25 2.795-11.09 4.368-18.72 7.553-4.67-7.373-8.02-9.919-16.08-14.13 8.48-1.991 12.83-3.047 21.04-4.86zm-31.87-10.598c6.6 2.136 9.82 3.127 16.05 5.054-9.03 1.583-14.014 2.511-23.489 4.156-7.115-2.083-10.794-3.162-18.406-5.514 10.459-1.412 16.093-2.258 25.845-3.696zm-33.634-12.624c6.236 2.999 9.701 4.442 16.666 6.904-10.608 1.218-16.961 1.947-28.537 3.057-8.114-2.761-12.145-4.425-19.261-7.864 12.653-.677 19.705-1.225 31.132-2.097zm-36.617-28.577c6.62 8.084 15.177 17.437 21.259 20.735-12.068.461-19.731.792-33.286.972-6.945-3.764-14.47-12.461-21.242-20.308 13.571-.379 20.949-.763 33.269-1.399zm-19.488-48.072c.898 9.784 1.906 14.734 6.403 25.391-12.882 1.159-20.136 1.77-34.032 2.698-5.033-10.004-7.164-15.345-8.895-24.852 14.914-1.175 22.386-1.859 36.524-3.237zm3.981-66.971c-7.925 27.469-5.7 28.516-5.517 40.218-15.393 1.726-23.09 2.55-39.021 4.098-1.336-11.286-3.333-12.891.924-37.43 14.633-1.708 29.051-4.731 43.616-6.886h-.002zm40.417-165.845c-6.116 30.045-12.623 59.996-20.027 89.754-17.697 4.42-35.359 9.102-53.266 12.612 3.993-29.51 7.256-59.103 10.292-88.726 21.138-4.015 42.05-8.751 63.001-13.64z"/><path d="M1010.54-.098c-4.66 20.875-27.44 40.264-37.77 58.686-23.131 4.153-46.32 8.238-69.684 10.872 13.428-21.013 30.225-32.438 48.243-48.78 20.078-6.156 39.633-13.185 59.211-20.778zm-30.715 716.103c-8.805 21.953-16.478 44.4-22.706 67.215-7.099 9.723-10.765 14.6-18.545 24.198 4.787-22.54 10.968-44.818 18.368-66.642 9.48-10.004 14.015-14.983 22.883-24.771zm63.805-139.716c-11.28 23.393-22.55 46.791-33.59 70.302-10.231 9.07-15.432 13.76-26.212 23.388 10.613-24.98 21.702-49.712 33.102-74.341 10.94-8.191 16.24-12.06 26.7-19.349zm22.55-59.767c-.47 5.698-1.05 8.927-2.89 16.145-9.24 5.605-13.94 8.634-23.51 15.18 3.1-8.391 4.22-12.133 5.61-18.655 8.32-5.409 12.58-7.939 20.79-12.668v-.002zm-5.41-26.788c3.44 4.66 4.49 6.6 5.22 12.57-7.5 3.745-11.46 5.725-18.82 9.888-.11-7.565-1.19-9.75-5.34-15.652 7.25-2.795 11.33-4.163 18.94-6.806zm-24.24-14.38c5.36 1.825 8 2.17 13.28 5.091-8.8 1.922-13.54 2.867-21.75 4.681-6.76-3.451-9.59-3.622-15.82-5.549 9.03-1.584 14.42-2.441 24.29-4.223zm-28.01-9.966c5.83 2.217 8.69 3.245 14.3 5.22-10.87 1.665-16.87 2.459-26.622 3.896-6.604-2.136-9.999-3.261-16.964-5.723 10.609-1.218 17.289-1.913 29.286-3.393zm-27.334-12.928c5.231 2.889 7.862 4.24 13.23 6.852-13.08 1.162-20.423 1.696-31.85 2.567-6.238-2.999-9.277-4.542-15.359-7.84 12.068-.461 19.986-.797 33.977-1.579h.002zm-33.229-45.444c3.886 11.368 5.75 15.742 12.14 24.125-13.918 1.049-21.828 1.524-34.146 2.158-6.62-8.083-8.59-12.014-13.088-22.67 12.882-1.159 20.936-1.949 35.094-3.613zm-2.577-53.839c-1.045 12.177-1.135 17.651-1.146 27.775-15.087 1.975-23.636 2.927-37.772 4.305-.898-9.785-1.354-15.06-1.536-26.761 15.391-1.728 24.434-2.904 40.454-5.319zm41.231-125.809c-9.948 27.619-20.163 55.136-30.797 82.5-15.059 3.066-30.203 5.941-45.376 8.393 7.257-25.246 13.965-50.619 20.391-76.087 18.669-4.654 37.209-9.793 55.782-14.806z"/><path d="M1046.47 44.134c-13.7 28.854-20.11 61.28-29.34 91.754-22.096 5.511-44.129 11.231-66.275 16.523 5.95-30.688 7.667-65.635 21.91-93.836 24.664-4.37 49.115-9.707 73.705-14.441zm34.32-106.487c-6.55 7.426-4.22 9.635-6.27 37.227-21.44 8.073-42.69 16.593-63.99 25.034 10.84-20.584 10.18-25.06 19.05-33.069 16.7-10.422 33.91-19.836 51.21-29.192h0zM974.285 758.983c-6.606 21.542-11.592 42.447-14.711 64.764-5.179 9.324-7.835 14.007-13.5 23.165 2.069-21.777 5.845-42.449 11.042-63.696 7.1-9.723 10.49-14.609 17.169-24.233zm60.935-134.311c-11.6 22.251-23.06 44.559-33.73 67.274-8.511 9.425-12.802 14.259-21.67 24.047 9.373-23.454 19.667-46.478 30.22-69.417 10.24-9.069 15.23-13.462 25.18-21.904zm50.82-104.915c-1.37 13.427-11.01 28.235-16.57 39.426-10.25 6.396-15.37 9.817-25.83 17.106 6.26-13.058 15.95-28.919 19.65-43.627 9.24-5.604 13.73-8.172 22.75-12.905zm-1.88-26.441c1.31 4.651 1.71 6.957 2.12 12.109-7.95 4.165-11.88 6.357-20.09 11.086.47-5.698.52-8.228-.2-14.198 7.49-3.746 10.99-5.51 18.17-8.999v.002zm-13.14-18.067c3.76 2.668 5.4 4.19 8.1 7.884-7.23 2.692-10.73 3.967-18.35 6.609-3.43-4.659-5.68-6.393-10.96-9.314 8.8-1.922 12.83-2.9 21.21-5.179zm-22.23-9.488c4.64 1.878 6.94 2.78 11.46 4.57-9.39 2.358-13.84 3.237-23.72 5.02-5.35-1.824-8.1-2.753-13.71-4.728 10.87-1.667 15.68-2.428 25.97-4.862zm-23.31-10.3c4.53 2.292 6.88 3.38 11.6 5.421-11.34 2.438-16.57 3.046-28.56 4.525-5.83-2.218-8.733-3.467-14.102-6.079 13.082-1.164 18.712-1.554 31.062-3.867zm-32.913-28.727c6.49 8.996 17.333 20.138 21.743 22.684-13.19 2.124-19.134 2.263-33.126 3.047-5.229-2.889-14.699-12.932-21.09-21.315 13.919-1.048 19.411-1.424 32.473-4.414v-.002zm-13.872-53.926c-.59 10.777-1.742 15.165 1.864 27.563-13.244 4.208-18.445 4.993-32.601 6.658-3.886-11.368-3.733-15.958-3.725-26.082 15.089-1.975 20.344-3.02 34.462-8.139zm17.785-75.954c-8.128 18.311-12.099 27.887-14.778 46.376-14.998 6.16-20.306 7.524-36.327 9.939 1.521-16.927 4.368-26.197 10.441-43.293 13.709-1.902 28.17-7.236 40.664-13.022zm82.43-177.438c-13.32 30.463-27.07 60.714-41.12 90.853-16.68 6.719-33.67 12.879-51.173 17.102 10.702-30.328 20.893-60.783 30.513-91.471 20.75-5.014 41.27-10.586 61.78-16.486v.002zm55.32-164.867c7.31 31.512-5.32 48.984-18.44 77.54a4397.355 4397.355 0 00-69.31 12.072c11.85-23.789 27.64-42.267 28.05-69.28 19.79-7.103 39.6-14.107 59.7-20.332zM975.717 809.163c-5.647 18.483 8.513 38.678 16.344 54.486-10.166 1.234-13.651 4.103-19.669 12.669-7.68-18.417-13.694-32.483-12.819-52.558 5.176-9.323 7.913-12.641 16.142-14.599l.002.002z"/><path d="M1022.07 681.29c-11.18 20.846-21.21 42.359-29.673 64.445-8.146.566-11.438 3.63-18.116 13.255 7.716-22.849 16.928-45.212 27.209-67.028 8.52-9.425 12.46-11.985 20.58-10.672h0zm73.66-124.135c-12.29 20.271-24.84 40.379-37.17 60.628-8.73-3.355-13.39-1.533-23.34 6.909 11.46-21.809 23.08-43.541 34.24-65.503 10.25-6.396 15.66-7.258 26.27-2.034zm18.67-53.386c.4 5.908.34 9.088-.42 15.917-13.16-5.11-18.92-4.673-27.94.061.6-6.321.64-9.174.24-14.327 7.95-4.165 13.63-4.846 28.12-1.65v-.001zm-7.14-25.064c2.38 4.136 3.36 6.416 4.8 11.426-15.21-1.222-20.73-.306-27.91 3.183-1.31-4.651-2.33-6.483-5.03-10.179 7.24-2.692 12.69-3.783 28.14-4.43zm-16.47-15.259c4.03 2.126 6.33 2.709 9.51 5.994-15.35 2.243-20.91 3.538-29.29 5.816-3.76-2.668-6.25-3.142-10.77-4.931 9.38-2.359 15.06-3.83 30.55-6.879zm-20.5-10.764c4.13 2.213 6.2 3.288 10.32 5.43-15.75 3.597-21.52 5.198-31.82 7.631-4.64-1.879-6.99-2.843-11.71-4.884 11.35-2.438 17.24-4.125 33.21-8.175v-.002zm-20.44-11.758c4 2.527 6.03 3.734 10.13 6.074-16.15 4.404-22.15 6.121-34.5 8.435-4.53-2.292-6.77-3.485-11.17-6.031 13.19-2.122 19.24-3.827 35.54-8.478zm-31.1-56.315c2.82 13.931 4.39 19.479 10.45 30.023-16.96 6.5-23.57 9.107-36.631 12.097-6.49-8.996-8.406-13.97-12.01-26.368 13.028-4.013 25.901-9.982 38.191-15.752zm5.16-63.322c-2.75 14.235-3.63 20.696-4.92 32.701-13.13 6.736-26.306 13.94-40.299 18.812.591-10.779 1.067-16.609 3.011-29.578 14.772-5.805 28.488-14.078 42.208-21.937v.002zm60.61-133.515c-14.48 28.297-29.07 56.543-43.65 84.793-14.7 8.921-28.86 16.915-44.39 24.285 13.89-28.804 27.7-57.644 41.31-86.58 16.27-6.553 31.4-14.064 46.73-22.498zm80.54-166.845c-11.84 27.213-24.55 54.02-37.46 80.743-16.09 7.304-31.71 12.667-48.7 17.738 12.45-29.04 23.72-58.625 36.89-87.342 16.35-2.639 33.81-4.601 49.27-11.139zm-150.77 725.772c-6.93 19.597-12.95 38.984-15.63 59.68-10.205.245-14.714.819-22.945 2.775 3.733-21.98 9.335-42.374 16.685-63.422 8.15-.565 12.48-.373 21.89.969v-.002z"/><path d="M1080.23 629.07c-13.23 18.825-25.7 38.217-37.2 58.145-8.67-3.417-12.85-4.622-20.96-5.935 11.51-21.537 23.78-42.663 36.49-63.514 8.74 3.354 13.09 5.65 21.67 11.304zm65.51-93.606c-4.21 14.385-15.65 26.413-24.5 37.926-9.75-7.719-14.9-11.021-25.51-16.244 6.48-10.872 16.68-24.049 18.25-37.451 13.15 5.11 19.7 8.257 31.76 15.769zm4.57-40.565c.73 7.217.74 11.085-.13 19.223-13.67-5.224-21.29-7.146-35.78-10.34-.4-5.907-.89-8.633-2.33-13.642 15.21 1.221 23.59 1.886 38.24 4.759zm-10.08-30.657c3.14 4.946 4.49 7.752 6.55 13.905-15.15-.629-24.06-.09-39.51.558-2.37-4.137-3.79-5.987-6.97-9.272 15.36-2.243 24.62-3.847 39.93-5.191zm-18.18-15.396c3.8 2.766 5.68 4.158 9.36 7.001-13.58 2.248-27.11 4.919-40.61 7.601-4.03-2.126-6.08-3.18-10.19-5.321 13.79-3.171 27.58-6.418 41.44-9.281zm-19.21-13.742c3.84 2.768 5.78 4.134 9.64 6.875-14.11 3.423-28.14 7.141-42.2 10.728-4.13-2.212-6.2-3.339-10.3-5.681 14.3-3.918 28.55-8.01 42.86-11.922zm-28.86-37.898c5.7 12.512 15.53 28.042 19.31 30.888-14.47 4.32-28.93 8.692-43.44 12.854-4-2.527-14.59-15.758-20.65-26.302 14.95-5.754 29.91-11.484 44.78-17.44zm-7.84-67.801c-1.51 13.294-3.26 18.515-1.11 33.974-15.39 7.158-30.83 14.191-46.28 21.225-2.82-13.931-1.04-18.615.25-30.62 15.74-8.143 31.54-16.181 47.14-24.577v-.002zm21.61-85.723c-8.55 17.448-12.73 31.135-16.23 49.856-15.79 9.372-31.7 18.555-47.61 27.741 3.61-18.568 8.18-31.362 16.96-48.724 15.66-9.572 31.26-19.233 46.88-28.873zm77.15-158.145c-12.3 26.523-24.98 52.869-37.88 79.107a7179.378 7179.378 0 00-42.5 23.134c14.57-28.597 28.97-57.268 43.08-86.094 15.08-6.838 22.56-10.133 37.3-16.147zm43.38-147.479c7.19 28.04.29 47.25-10.88 73.594-12.51 2.94-18.96 4.832-32.34 9.281 12.6-29.561 22.07-46.806 12.23-78.338 13.11-2.91 19.27-3.823 30.99-4.537zm-181.15 869.964c-4.87 19.68 15.55 41.066 25.18 56.541-14.22-1.682-20.68-2.12-32.66-2.285-8.83-15.724-26.85-36.642-20.989-55.899 10.199-.245 15.819.065 28.469 1.643zm38.38-109.727c-9.84 17.57-18.96 35.175-25.81 54.154-10.96-3.252-16-4.399-25.41-5.74 8.48-20.535 18.03-40.01 28.74-59.476 8.67 3.417 13.15 5.647 22.48 11.062h0zm78.73-102.829c-14.8 16.421-29.06 33.107-42.83 50.395-8.34-7.737-12.59-11.13-21.18-16.782 13.25-18.871 26.97-37.397 41.01-55.688 9.75 7.718 14.4 12.185 23 22.075zm39.07-65.928c-2.37 10.612-4.11 16.141-9.02 27.387-10.71-9.606-16.48-13.958-28.54-21.471 2.72-8.914 3.56-13.208 4.44-21.346 13.66 5.223 20.33 8.352 33.12 15.428v.002zm1.46-48.084c1.52 8.417 1.92 13.004 1.7 22.674-14.25-4.484-21.51-6.36-36.16-9.234-.72-7.217-1.47-10.59-3.53-16.743 15.15.629 22.76 1.305 37.99 3.303z"/><path d="M1171.1 450.964c3.39 3.757 5.22 4.481 8.09 11.336-15.86.216-23.65.6-38.96 1.944-3.14-4.947-5.14-5.56-8.82-8.403 15.44-2.372 23.38-3.344 39.69-4.875v-.002zm-17.63-17.982c3.62 3.468 5.43 5.222 8.97 8.813-16.72 2.552-24.81 3.957-40.39 7.048-3.79-2.766-5.72-4.132-9.57-6.873 13.59-3.243 27.28-6.225 40.99-8.988zm-18.21-16.999l9.1 8.427c-13.88 3.407-27.73 6.95-41.52 10.675-3.85-2.768-5.77-4.16-9.55-7.005 13.96-4.124 27.96-8.139 41.97-12.097zm-24.18-73.718c1.22 17.118 1.73 23.313 6.83 37.926-14.68 5.59-29.35 11.196-43.93 17.013-5.71-12.512-6.81-18.351-8.96-33.809a4267.26 4267.26 0 0146.06-21.13zm9.09-77.017c-3.27 16.821-4.49 24.643-6.47 39.358-15.93 8.129-31.77 16.417-47.56 24.811 1.51-13.293 2.5-20.402 5.38-35.864 16.16-9.533 32.36-18.995 48.65-28.303v-.002zm49.48-122.69c-11.13 24.002-22.41 47.93-33.79 71.819-16.11 9.641-32.13 19.447-48.11 29.31 13.17-26.312 26.28-52.655 39.27-79.054a2413.18 2413.18 0 0142.63-22.075zm58.01-136.13c-8.18 22.082-17.18 43.869-26.45 65.518-14.3 4.794-21.58 7.58-36.32 13.593 11.24-24.468 22.14-49.037 32.51-73.88 12.51-2.939 18.55-4.023 30.26-5.231zm-158.33 756.535c-4.69 16.713-7.09 34.045-7.02 51.406-15.57-3.516-22.53-4.767-35.18-6.346 1.69-18.986 6.1-37.667 12.57-55.582 10.96 3.252 16.84 5.356 29.63 10.522zm52.52-95.38c-11.99 14.604-22.89 30.131-32.12 46.625-10.07-7.309-14.9-10.513-24.22-15.927 11.17-18.148 23.08-35.393 35.9-52.425 8.34 7.737 12.44 12.12 20.44 21.727zm77.06-84.189c-9.08 16.446-21.12 26.429-34.88 39.171-7.18-11.739-11.18-17.214-19.79-27.102 9.83-10.478 25.32-23.808 30.04-38.531 10.72 9.608 15.72 14.924 24.63 26.462zm21.94-65.355c-1.6 12.184-2.97 18.618-7.27 31.767-11.31-9.19-17.49-13.19-30.28-20.266 2.38-10.612 2.94-15.747 3.17-25.418 14.25 4.484 21.28 7.137 34.38 13.917zm-2.31-53.312c2.17 8.823 2.96 13.812 3.52 24.555-14.42-4.478-22.07-5.836-37.3-7.834-1.51-8.417-2.7-12.3-5.56-19.153 15.86-.216 23.96-.015 39.34 2.432zm-14.82-27.183c3.22 4.765 4.8 7.204 7.83 12.229-15.85-.848-24.13-.332-40.44 1.198-3.39-3.757-5.13-5.586-8.67-9.175 13.47-2.307 27.59-4.056 41.28-4.252zm-16.66-22.763c3.4 4.366 5.1 6.585 8.44 11.131-14.05 1.466-28.23 4.073-42.03 7.07a754.24 754.24 0 00-9.11-8.562c14.1-3.599 28.38-6.984 42.7-9.639z"/><path d="M1164.54 364.828c3.09 13.258 8.1 26.969 14.02 39.218-14.5 3.74-28.91 7.834-43.3 11.943-3.62-3.36-12.26-21.192-17.35-35.805 15.42-5.548 30.79-11.083 46.63-15.356zm2.17-80.375c-3 15.533-5.22 21.663-5.49 39.837-17.14 4.655-33.87 10.86-50.14 17.97-1.21-17.117.64-22.942 2.62-37.657 17.32-7.876 34.56-15.29 53.01-20.15zm24.56-92.146c-6.86 16.803-11.42 33.188-15.62 50.798-19.55 4.976-37.44 13.307-55.48 22.142 3.61-18.556 7.61-33.551 15.7-50.862 17.97-8.998 35.72-17.505 55.4-22.078zm49-127.197c-7.37 20.908-15.05 41.67-22.97 62.375-16.88 2.093-32.09 8.62-47.65 15.076 10.75-23.444 21.3-46.962 31.56-70.625 14.3-4.794 25.93-7.287 39.06-6.826zm21.81-118.726c3.69 20.767 3.28 41.077-3.7 61.345-10.6-2.925-19.01-2.513-30.72-1.303 9.17-23.142 13.44-42.973 8.42-67.356 10.56 1.527 16.48 2.77 26 7.312v.002zm-146.14 788.357c-6.14 13.163-10.58 29.085-12.04 43.538-14.91-7.088-21.77-10.15-34.57-15.318 4.79-17.005 11.78-33.342 20.4-48.751 10.07 7.308 15.3 11.433 26.21 20.531zm63.98-80.842c-13.93 12.191-27.02 25.382-38.59 39.837-7.57-11.268-11.48-16.531-19.48-26.141 13.1-15.961 27.44-30.591 42.19-45.02 7.18 11.739 10.4 18.059 15.88 31.326v-.002zm59.96-79.007c-5.62 13.532-13.04 27.206-21.26 39.322-6.8-13.064-10.8-19.278-19.71-30.817 7.53-13.638 10.37-20.434 14.67-33.583 11.31 9.19 16.63 14.235 26.3 25.08v-.002zm17.37-72.05c-.8 12.884-1.69 19.868-5.06 34.384-11.92-8.563-18.23-12.409-31.34-19.189 1.61-12.184 1.76-18.014 1.21-28.757 14.41 4.477 21.48 7.174 35.19 13.562zm-6.06-48.707c2.62 6.68 4.42 8.605 5.53 19.212-15.14-4.484-22.8-6.172-38.18-8.619-2.18-8.823-3.96-9.941-6.99-14.966 15.86.848 23.81 1.679 39.64 4.373zm-14.16-31.673c3 6.014 4.47 9.092 7.31 15.423-16.27-.931-24.44-.956-40.62-.345-3.22-4.765-4.87-7.084-8.22-11.63 13.74-1.709 27.7-2.889 41.53-3.448h0zm-15.38-28.679c3.11 5.482 4.67 8.278 7.76 14.009a675.442 675.442 0 00-42.35 6.99c-3.4-4.366-5.11-6.505-8.51-10.732a967.81 967.81 0 0143.1-10.267zm-13.41-76.06c-1.16 17.287-2.08 22.625 1.28 38.289-14.97 1.368-30.57 4.532-44.97 8.818-3.93-16.112-3.59-22.363-3.33-40.539 15.59-4.823 30.84-5.9 47.02-6.568z"/><path d="M1225.08 242.08c-4.54 16.394-6.5 24.069-9.94 38.476-16.75-.855-32.19-1.181-48.43 3.886a870.55 870.55 0 018.94-41.347c16.81-5.202 32.38-3.397 49.43-1.015zm34.27-108.904a2289.99 2289.99 0 01-19.5 61.024c-16.61-3.589-31.77-6.602-48.58-1.895 8.89-21.518 17.64-43.1 26.03-64.817 13.27-1.956 29.87.253 42.05 5.686v.002zm26.62-109.816c-3.03 17.618-6.77 35.107-11.02 52.472-12.98-8.063-21.55-10.265-34.68-10.724 6.43-19.015 12.69-38.058 18.12-57.39 10.6 2.924 17.58 6.441 27.58 15.641zm-123.35 781.182c.58 15.495 4.02 30.143 7.68 45.125-21.27-8.16-42.78-18.344-64.93-23.96-1.92-15.961-3.56-31.347-1.47-47.417 19.23 9.463 39.07 17.715 58.72 26.252zm19.02-81.003c-6.74 11.868-12.35 26.049-15.3 39.389-16.46-8.244-36.81-15.423-50.4-28.192 6.52-15.044 15.74-27.884 25.39-41.011 8.64 13.423 27.37 21.899 40.31 29.814zm60.05-78.404c-9.82 14.72-21.49 26.586-32.97 39.908-10.07-8.369-24.63-17.771-28.8-31.162 15.06-12.768 27.72-23.149 38.7-39.679 6.8 13.065 11.08 18.713 23.07 30.933zm38.34-80.759c-4.01 13.442-9.22 27.028-15.24 39.696-11.48-12.152-15.24-18.344-24.91-29.189 6.6-15.503 8.95-23.143 12.31-37.658 11.93 8.562 16.09 15.207 27.84 27.151zm12.87-69.502c-.82 12.006-1.52 18.628-4 32.625-12.65-11.457-17.95-18.264-31.65-24.652.79-12.884.57-18.891-.53-29.498 13.2 3.3 25.64 13.48 36.18 21.525zm-7.55-44.997c1.99 8.335 2.95 12.575 4.75 21.224-11.54-6.784-25.3-15.27-38.91-16.962-2.62-6.68-4-9.926-6.85-16.256 13.84.168 28.53 6.736 41.01 11.994zm-10.61-40.255c2.21 7.788 3.31 11.741 5.44 19.789-13.47-3.622-29.01-8.162-43.16-6.944-2.99-6.014-4.53-8.941-7.61-14.673 14.57-2.508 30.85-.045 45.33 1.826v.002zm-17.15-54.397c3.41 14.584 9.34 27.658 11.58 35.213-15.67.226-32.17-.45-47.52 3.338-3.11-5.482-8.77-22.103-12.13-37.769 15.88-1.909 32.13-1.054 48.07-.782zm1.95-69.927c-2.29 13.382-3.89 18.582-4.35 34.438-15.66-.838-31.28-1.57-46.95-2.022 1.16-17.288 3.46-22.747 6.9-37.156 14.81 1.925 29.51 3.552 44.4 4.74zm17.66-79.578c-4.02 14.692-7.7 29.184-10.84 44.077-14.15-1.672-27.41-4.412-41.28-7.705 4.45-16.184 9.43-31.962 14.77-47.89 18.83 6.187 23.51 8.328 37.35 11.518zm25.82-110.431c-3.25 17.936-7.01 35.779-11.18 53.525-12.24-5.246-16.42-8.772-32.49-15.647 5.65-18.985 10.9-38.092 15.6-57.335 12.99 8.063 17.09 12.49 28.07 19.457zm6.39-104.487c1.54 18.029 3.94 37.032.98 55.02-10.1-8.28-14.43-13.27-24.43-22.473 4.34-18.63 2.76-39.76.2-58.55 8.45 9.493 13.19 15.852 23.25 26.003zm-79.74 802.09c-1.32 15.727-1.1 23.724 1.03 40.311-22.76-9.382-45.48-18.905-68.08-28.672-.85-13.447.44-28.518 3.71-41.601 20.93 10.36 42.09 20.261 63.33 29.96l.01.002zm24.13-76.635c-6.67 11.763-12.52 25.033-16.48 37.978-18.76-9.885-37.43-19.897-55.68-30.698 7.51-14.01 17.15-26.161 27.08-38.489 14.4 11.271 29.58 21.53 45.08 31.209z"/><path d="M1298.16 635.522c-5.73 14.001-12.57 27.993-20.13 41.096-12.59-10.009-25.09-19.948-36.34-31.481 8.41-13.382 16.53-26.656 23.1-41.066 10.49 11.185 21.89 21.308 33.37 31.451h0zm23.69-78.027c-2.98 14.618-4.79 22.281-9.46 37.959a723.222 723.222 0 01-32.36-31.077c4.72-15.413 6.4-22.884 8.87-36.883 11 9.985 21.94 20.028 32.95 30.001zm5.22-63.07c.92 10.705 2.32 15.191.58 28.315-11.32-9.567-22.89-18.969-34.75-27.86.82-12.005-1-15.126-2.8-23.775 12.6 7.232 24.97 15.139 36.97 23.32zm-5.26-52.362c1.16 10.256 1.73 15.432 2.79 25.901-12.81-6.494-25.96-12.634-39.25-18.077-2-8.335-3.04-12.425-5.17-20.473 14 3.623 27.97 7.924 41.63 12.649zm-6.08-50.329c1.24 9.885 1.87 14.868 3.09 24.928-14.56-2.869-29.35-5.268-44.08-7.049-2.21-7.788-3.34-11.618-5.57-19.174 15.49-.085 31.09.369 46.56 1.295zm-13.67-69.418c.28 15.173.2 20.598 3.39 34.816-15.96-.789-31.89-1.424-47.86-1.895-3.41-14.583-2.87-19.627-2.41-35.483l46.87 2.562h.01zm5.2-68.876c-1.76 14.562-2.45 21.519-3.53 34.836-14.74-.766-29.49-1.746-44.19-2.968 2.28-13.381 3.63-20.47 6.82-35.511 15.67 1.951 23.92 2.648 40.9 3.643zm17.31-93.099c-3.17 17.281-6.69 34.498-10.49 51.649-15.58-1.867-23.03-3.077-36.88-6.265 5.26-18.866 10.17-37.83 14.64-56.895 12.24 5.246 18.84 7.532 32.73 11.511zm12.96-95.211c-1.19 15.42-3.09 30.734-5.05 46.07-12.56-5.754-18.48-8.947-29.46-15.914 2.81-16.493 5.28-32.861 7.37-49.457 10.1 8.281 15.53 12.178 27.14 19.301zm-2.47-86.32c-.93 11.502-.39 17.215 1.25 36.088-11.49-9.047-16.84-13.926-26.9-24.078-1.93-20.374-2.76-25.392-2.24-35.123 10.54 9.712 16.08 14.404 27.89 23.113zm-33.33 807.569c-2.73 14.578-3.5 21.892-3.89 36.781-22.79-9.937-45.56-19.931-68.17-30.258 1.31-15.727 2.83-23.393 7.65-38.652 21.28 11.076 42.82 21.673 64.41 32.129h0zm25.6-75.321c-5.14 13.034-11.23 25.729-15.82 38.977-19.44-10.945-38.69-22.11-57.71-33.776 7.51-13.506 16.29-26.383 24.23-39.636 15.96 12.164 32.57 23.352 49.3 34.433v.002zm23.99-82.297c-2.77 13.683-6.12 27.405-10.03 40.807-14.75-10.857-29.2-22.143-43.13-34.037 5.49-12.971 10.3-26.547 14.24-40.07a1340.168 1340.168 0 0038.92 33.3zm11.24-76.682c-1.37 14.386-2.2 21.888-4.4 37.271-12.23-10.487-24.38-21.024-36.3-31.859 2.97-14.618 4.06-21.643 5.8-34.766 11.63 9.781 23.21 19.639 34.9 29.354zm.01-64.35c.27 12.538.38 18.843.56 31.538-11.99-8.323-23.96-16.682-36.05-24.847-.92-10.706-1.42-15.996-2.48-26.465 12.76 6.386 25.39 13.052 37.97 19.774zm-1.68-61.979c.38 12.264.57 18.426.9 30.821-13.23-5.056-26.56-9.96-39.98-14.516-1.16-10.255-1.77-15.329-2.99-25.389 14.08 2.69 28.13 5.767 42.07 9.084zm-8.67-65.626c2.47 14.29 7.3 22.953 7.7 35.101-14.68-1.5-29.45-2.695-44.19-3.499-1.24-9.885-7.08-20.395-10.27-34.613 15.59.831 31.19 1.854 46.76 3.013v-.002zm-2.84-69.937c-.38 13.688-.8 19.787-.27 34.713l-47.05-2.591c-.29-15.173.6-20.715 1.67-34.032 15.2.832 30.43 1.46 45.65 1.91z"/><path d="M1354.65 215.272c-2.88 18.877-2.93 25.146-3.76 39.665-14.53-.15-29.12-.622-43.63-1.499 1.68-14.116 3.91-27.512 6.82-41.456 15.57 1.867 23.76 2.482 40.57 3.29zm11.06-91.255a1120.683 1120.683 0 01-4.67 44.784c-15.23-2.814-22.57-4.491-36.47-8.471 2.88-16.363 5.52-32.682 7.91-49.123 12.56 5.754 19.23 8.327 33.23 12.81h0zm1.34-88.282c1.05 14.976 2.64 30.511 1.42 45.53-13.15-5.746-19.33-9.008-30.94-16.132 2.18-16.482-.1-33.782-1.22-50.244 11.5 9.047 17.61 13.28 30.74 20.846zm.96-69.975c-.44 13.35-.58 20.087-1.6 33.158-13.32-7.305-19.55-11.394-31.36-20.104.93-11.503.85-17.558.91-29.483 12.25 7.118 18.64 10.454 32.05 16.428zm12.08 815.142c-3.12 13.792-4.37 20.665-6.3 34.481-24.37-.777-50.39-18.58-72.06-29.014 2.73-14.579 4.68-21.801 9.78-36.332 19.46 10.839 45.85 31.504 68.58 30.865zm14.13-80.598c-1.62 14.101-3.61 28.227-6 42.219-20.48.237-44.2-20.538-60.89-31.457 5.32-13.513 10.01-27.514 13.96-41.493 15.53 11.644 33.22 27.373 52.93 30.731h0zm6.49-83.061c-.57 13.729-1.38 27.476-2.45 41.174-17.67-4.861-33.16-18.15-46.95-29.658 3.33-16.089 4.65-24.018 6.85-39.4 14.12 11.707 26.11 19.746 42.55 27.884zm1.51-76.633c-.04 14.209.02 20.738-.28 36.52-13.61-6.087-28.71-14.455-39.38-25.046 1.38-14.387.74-20.127.57-32.821 11.18 9.18 25.82 15.865 39.09 21.347zm-.09-70.653v35.235c-13.38-4.671-27.43-10.029-39.56-17.46-.27-12.538-.43-18.767-.77-31.162 12.97 5.509 26.77 9.601 40.33 13.387zm0-69.976v34.911c-13.77-2.811-27.62-5.679-41.24-9.141l-.97-30.512c14.02 1.383 28.23 2.995 42.21 4.742zm-6.22-72.691c.39 14.969.5 21.732 1.87 36.382-15.18-1.224-30.37-2.42-45.56-3.529-2.47-14.29-2.58-20.311-3.11-35.238 15.6.847 31.2 1.649 46.8 2.383v.002z"/><path d="M1396.16 254.761c-.29 14.764-.37 22.039-.44 36.389-15.44-.164-30.9-.484-46.34-.975.38-13.688.67-20.731 1.51-35.249 15.08.218 30.19.141 45.27-.165zm4.29-80.275c-.77 13.923-1.7 27.845-2.75 41.751-14.34.037-28.74-.254-43.05-.967 2.28-15.473 4.52-30.94 6.39-46.468 15.23 2.814 23.17 3.934 39.41 5.684zm2.83-80.794c-.18 15.729-.37 23.719-.94 39.89-15.28-3.154-22.63-5.076-36.63-9.561 1.25-14.208 2.19-28.496 2.76-42.75 13.15 5.748 20.11 8.268 34.81 12.42zm-1.42-78.683c-.73 14.323-.58 21.304.27 37.408-14.96-5.706-21.94-9.101-35.07-16.666-1.34-17.396-1.66-23.759-.64-36.828 13.32 7.305 20.37 10.59 35.44 16.087v-.001zm40.14 731.05v37.894c-20.66-.635-41.28-1.821-61.91-3.047 3.12-13.791 5.28-21.476 8.13-38.384 17.91 1.407 35.83 2.684 53.78 3.537zm-.01-75.807v37.895c-15.96-2.413-31.86-5.115-47.77-7.861a917.883 917.883 0 004.04-41.878c14.55 4.068 29.11 8.038 43.73 11.846v-.002zm.01-75.782v37.895c-13.82-4.868-27.64-9.8-41.29-15.125.71-16.281.93-24.328 1.23-40.111 13.16 6.174 26.6 11.851 40.06 17.341zm-.01-75.776v37.895c-13.35-5.03-26.69-10.272-39.77-15.967.05-14.21-.09-21.292-.09-35.424 13.13 4.789 26.56 9.233 39.86 13.496zm0-75.782v37.895c-15.39-4.015-23.54-6.14-39.86-10.838v-35.066c16.36 3.391 24.34 5.002 39.86 8.009zm.01-75.806v37.895c-15.66-1.939-23.47-3.008-39.87-5.027-.06-13.936-2.99-21.664-4.35-36.314 14.73 1.188 29.47 2.359 44.22 3.446zm-.01-75.776v37.895c-15.36-.544-30.73-1.197-46.08-1.934-.4-14.969-.25-21.772-.19-36.121 15.43.194 30.85.245 46.28.162l-.01-.002z"/><path d="M1441.99 215.53v37.894a2018.63 2018.63 0 01-45.83 1.345c.29-14.766.27-21.69 1.53-38.536 14.76.024 29.55-.236 44.3-.703h0zm0-75.788v37.895c-13.84-.595-27.77-1.63-41.54-3.151.93-16.543 1.31-24.737 1.89-40.907 15.28 3.154 23.23 4.396 39.65 6.163zm.01-75.777v37.895c-16.28-2.34-24.02-4.009-38.72-8.16.46-13.726-.48-27.579-1.16-41.282 12.71 4.969 26.49 8.939 39.88 11.547zm0-75.806v37.895c-13.47-2.466-27.31-6.266-40.14-11.061.73-14.324.91-21.587 1.35-36.051 14.77 4.532 22.49 6.425 38.78 9.217h.01z"/></g></svg>