<svg width="362" height="390" fill="none" xmlns="http://www.w3.org/2000/svg"><path d="M92.264 134.447H91V115h19.632v1.257H92.264v18.19zm71.735 0h-1.265v-18.19h-18.367V115h19.632v19.447zm0 47.552h-19.632v-1.257h18.367v-18.189h1.265v19.446zm-53.367 0H91v-19.446h1.264v18.189h18.368v1.257zm2.621-34.507c-7.03 0-12.753-5.668-12.753-12.633 0-6.964 5.723-12.632 12.753-12.632 7.031 0 12.753 5.668 12.753 12.632 0 6.965-5.722 12.633-12.753 12.633zm0-24.013c-6.335 0-11.489 5.105-11.489 11.38 0 6.276 5.154 11.381 11.489 11.381 6.336 0 11.489-5.105 11.489-11.381 0-6.275-5.153-11.38-11.489-11.38z" fill="#E2E1DC"/><path d="M113.882 122.855h-1.265v24.014h1.265v-24.014z" fill="#E2E1DC"/><path d="M125.375 134.235h-24.242v1.253h24.242v-1.253zm16.363 13.257c-7.031 0-12.754-5.668-12.754-12.633 0-6.964 5.723-12.632 12.754-12.632 7.03 0 12.753 5.668 12.753 12.632 0 6.965-5.723 12.633-12.753 12.633zm0-24.013c-6.336 0-11.489 5.105-11.489 11.38 0 6.276 5.153 11.381 11.489 11.381 6.335 0 11.488-5.105 11.488-11.381 0-6.275-5.153-11.38-11.488-11.38zm-28.485 51.681c-7.03 0-12.753-5.668-12.753-12.632 0-6.965 5.723-12.633 12.753-12.633 7.031 0 12.753 5.668 12.753 12.633 0 6.964-5.722 12.632-12.753 12.632zm0-24.013c-6.335 0-11.489 5.105-11.489 11.381 0 6.275 5.154 11.38 11.489 11.38 6.336 0 11.489-5.105 11.489-11.38 0-6.276-5.153-11.381-11.489-11.381zm28.485 24.013c-7.031 0-12.754-5.668-12.754-12.632 0-6.965 5.723-12.633 12.754-12.633 7.03 0 12.753 5.668 12.753 12.633 0 6.964-5.723 12.632-12.753 12.632zm0-24.013c-6.336 0-11.489 5.105-11.489 11.381 0 6.275 5.153 11.38 11.489 11.38 6.335 0 11.488-5.105 11.488-11.38 0-6.276-5.153-11.381-11.488-11.381z" fill="#E2E1DC"/><path d="M142.014 137.218c-1.312 0-2.381-1.058-2.381-2.358s1.069-2.359 2.381-2.359c1.312 0 2.381 1.059 2.381 2.359s-1.069 2.358-2.381 2.358zm0-3.46c-.613 0-1.117.495-1.117 1.106 0 .611.5 1.106 1.117 1.106s1.117-.495 1.117-1.106c0-.611-.5-1.106-1.117-1.106zm-8.409 19.847l-.894.886 17.12 16.959.894-.886-17.12-16.959z" fill="#E2E1DC"/><path d="M149.831 153.605l-17.12 16.958.894.886 17.12-16.959-.894-.885zm-36.579 9.929l-8.022-10.033.991-.774 7.031 8.789 7.026-8.789.995.774-8.021 10.033z" fill="#E2E1DC"/><path d="M120.991 75c66.233 0 119.998 53.773 119.998 119.998 0 66.226-53.765 119.999-119.998 119.999S1 261.224 1 194.998C1 128.773 54.765 75 120.991 75z" stroke="#8A8A8A" stroke-width="2" stroke-linecap="round" stroke-linejoin="round"/><path d="M241.002 314.997c66.273 0 119.998-53.726 119.998-119.999S307.275 75 241.002 75s-119.998 53.725-119.998 119.998 53.725 119.999 119.998 119.999z" stroke="#8A8A8A" stroke-width="2" stroke-linecap="round" stroke-linejoin="round"/><path d="M3 202.407l31.776 31.805h136.456l.445.239c7.323 3.952 13.989 7.551 20.654 11.15 6.665 3.598 13.331 7.197 20.653 11.148l.446.24.277.422 79.68 121.333c8.522 1.763 15.264 3.16 22.006 4.556a76333.58 76333.58 0 0022.017 4.557l12.359-8.131c1.761-8.531 3.157-15.28 4.552-22.028 1.396-6.748 2.79-13.496 4.552-22.027l-73.81-112.396-.328-.499v-55.542l.328-.5 73.81-112.406-4.552-22.026c-1.395-6.748-2.791-13.496-4.552-22.028l-12.381-8.147c-8.522 1.763-15.264 3.16-22.005 4.556a94776.32 94776.32 0 01-22.007 4.555L213.697 132.57l-.277.422-.444.24a95341.08 95341.08 0 00-20.654 11.149c-6.665 3.598-13.331 7.198-20.654 11.149l-.444.24H34.776L3 187.574v14.833z" stroke="#EF9033" stroke-width="4"/></svg>