<svg width="200" height="173" fill="none" xmlns="http://www.w3.org/2000/svg"><g opacity=".16" fill="#8A8A8A"><path d="M52.15 173H0l26.075-45.271L52.149 173zm-49.053-1.794H49.05l-22.977-39.892-22.977 39.892z"/><path d="M101.201 173h-52.15l26.074-45.271L101.201 173zm-49.052-1.794h45.955l-22.978-39.892-22.977 39.892z"/><path d="M150.95 173H98.8l26.075-45.271L150.95 173zm-49.053-1.794h45.955l-22.978-39.892-22.977 39.892z"/><path d="M200.001 173h-52.149l26.074-45.271L200.001 173zm-49.052-1.794h45.954l-22.977-39.892-22.977 39.892zm-74.276-40.788h-52.15l26.075-45.272 26.075 45.272zm-49.052-1.794h45.954L50.598 88.732l-22.977 39.892z"/><path d="M126.424 130.418h-52.15l26.074-45.272 26.076 45.272zm-49.052-1.794h45.954l-22.977-39.892-22.977 39.892z"/><path d="M175.475 130.418h-52.151l26.075-45.272 26.074 45.272h.002zm-49.052-1.794h45.954L149.4 88.732l-22.977 39.892zm-25.222-40.788h-52.15l26.074-45.271 26.076 45.27zm-49.052-1.794h45.955L75.126 46.15 52.15 86.042z"/><path d="M150.95 87.836H98.8l26.075-45.271 26.075 45.27zm-49.053-1.794h45.955L124.874 46.15l-22.977 39.892z"/><path d="M126.434 45.254H73.566L100.001 0l26.433 45.254zM76.687 43.46h46.626L100 3.55 76.687 43.46z"/></g><path d="M99.368 50.91L73.519 67.782l1.27 1.92 25.848-16.875-1.27-1.919z" fill="#EF9033"/><path d="M100.641 50.913l-1.27 1.919 25.844 16.878 1.27-1.919-25.844-16.878z" fill="#EF9033"/><path d="M101.158 22.373h-2.31v29.475h2.31V22.373z" fill="#EF9033"/><path d="M100 87L73 69.368V38.632L100 21l27 17.632v30.736L100 87zM75.312 68.13L100 84.254l24.689-16.122V39.87L100 23.747 75.31 39.87v28.26z" fill="#EF9033"/><mask id="a" style="mask-type:luminance" maskUnits="userSpaceOnUse" x="98" y="108" width="6" height="64"><path d="M104 172v-64h-6v64h6z" fill="#fff"/></mask><g mask="url(#a)" fill="#fff"><path d="M108.476 168.935v6.104l-16.75-15v-6.105l16.75 15.001zm0 8.461v6.104l-16.75-15v-6.105l16.75 15.001zm0-16.924v6.104l-16.75-15v-6.105l16.75 15.001zm0-8.461v6.104l-16.75-15v-6.105l16.75 15.001zm0-8.463v6.104l-16.75-15v-6.105l16.75 15.001zm0-8.461v6.104l-16.75-15v-6.105l16.75 15.001zm0-16.924v6.105l-16.75-15.001v-6.104l16.75 15zm0 8.463v6.104l-16.75-15v-6.105l16.75 15.001zm0-16.926v6.105l-16.75-15.001V94.7l16.75 15z"/></g></svg>