<svg width="260" height="260" fill="none" xmlns="http://www.w3.org/2000/svg"><g opacity=".16" fill="#8A8A8A"><path d="M1.657 1.508H0V258.5h1.657V1.508zm12.918 0h-1.657V258.5h1.657V1.508zm12.918 0h-1.657V258.5h1.657V1.508zm12.918 0h-1.657V258.5h1.657V1.508zm12.919 0h-1.658V258.5h1.657V1.508zm12.917 0H64.59V258.5h1.657V1.508zm12.918 0h-1.657V258.5h1.657V1.508zm12.91 0h-1.657V258.5h1.657V1.508zm12.918 0h-1.657V258.5h1.657V1.508zm12.918 0h-1.657V258.5h1.657V1.508zm12.918 0h-1.657V258.5h1.657V1.508zm12.918 0h-1.657V258.5h1.657V1.508zm12.918 0h-1.657V258.5h1.657V1.508zm12.918 0h-1.657V258.5h1.657V1.508zm12.918 0h-1.657V258.5h1.657V1.508zm12.918 0h-1.657V258.5h1.657V1.508zm12.91 0h-1.657V258.5h1.657V1.508zm12.918 0h-1.657V258.5h1.657V1.508zm12.914 0h-1.657V258.5h1.657V1.508zm12.918 0h-1.657V258.5h1.657V1.508zm12.918 0h-1.657V258.5h1.657V1.508z"/><path d="M258.492 258.344H1.5v1.657h256.992v-1.657zm0-12.918H1.5v1.657h256.992v-1.657zm0-12.92H1.5v1.657h256.992v-1.657zm0-12.918H1.5v1.657h256.992v-1.657zm0-12.908H1.5v1.657h256.992v-1.657zm0-12.918H1.5v1.657h256.992v-1.657zm0-12.918H1.5v1.657h256.992v-1.657zm0-12.918H1.5v1.657h256.992v-1.657zm0-12.918H1.5v1.657h256.992v-1.657zm0-12.92H1.5v1.657h256.992v-1.657zm0-12.916H1.5v1.657h256.992v-1.657zm0-12.918H1.5v1.657h256.992v-1.657zm0-12.918H1.5v1.657h256.992v-1.657zm0-12.91H1.5v1.657h256.992v-1.657zm0-12.918H1.5v1.657h256.992v-1.657zm0-12.918H1.5v1.657h256.992V64.59zm0-12.918H1.5v1.657h256.992v-1.657zm0-12.918H1.5v1.657h256.992v-1.657zm0-12.918H1.5v1.657h256.992v-1.657zm0-12.918H1.5v1.657h256.992v-1.657zm0-12.918H1.5v1.657h256.992V0z"/></g><path d="M168.496 111h-4.999l-8.759-8.793V68.36l-5.183-9.648-30.046-19.826L117 26.712l2.748-4.193L131.879 20l27.815 18.348h12.616L200.123 20l12.131 2.519L215 26.713l-2.505 12.173-30.048 19.826-5.183 9.648v33.847L168.506 111h-.01zm-4.039-2.33h3.078l7.401-7.428v-33.47l5.742-10.684 29.735-19.616 2.117-10.284-1.69-2.582-10.248-2.127L173 40.68h-14.004l-27.593-18.2-10.248 2.127-1.692 2.582 2.119 10.284 29.735 19.616 5.743 10.685v33.469l7.397 7.428z" fill="#fff"/><path d="M126.218 111h-7.436V97.475l-9.564 9.565-5.258-5.258 9.565-9.564H100v-7.436h13.525l-9.565-9.564 5.258-5.258 9.564 9.565V66h7.436v13.525l9.564-9.565 5.258 5.258-9.565 9.564H145v7.436h-13.525l9.565 9.564-5.258 5.258-9.564-9.565V111zm-6.974-.458h6.516V96.365l10.022 10.023 4.609-4.609-10.022-10.023h14.173V85.24h-14.173l10.022-10.022-4.609-4.61-10.022 10.023V66.458h-6.516V80.63l-10.023-10.02-4.609 4.609 10.023 10.022h-14.174v6.516h14.174l-10.023 10.023 4.609 4.609 10.023-10.023v14.177z" fill="#EF9033"/></svg>