<svg width="271" height="320" fill="none" xmlns="http://www.w3.org/2000/svg"><path d="M160.181 219.56l15.007 19.845-15.007 19.846 15.007 19.845-15.007 19.846 15.556 20.576a1.22 1.22 0 001.698.241 1.208 1.208 0 00.242-1.687l-14.458-19.123 15.008-19.845-15.008-19.845 15.008-19.846-15.008-19.845 15.008-19.845-15.008-19.845 15.008-19.854-15.008-19.845 15.008-19.854-15.008-19.853 15.008-19.845-15.008-19.854 15.008-19.853-15.008-19.854 14.458-19.13a1.2 1.2 0 00-.242-1.687 1.219 1.219 0 00-1.698.241l-15.556 20.576 15.007 19.854-15.007 19.853 15.007 19.854-15.007 19.845 15.007 19.853-15.007 19.854 15.007 19.845-15.007 19.854 15.007 19.845-15.007 19.845v-.008zm-18.493-119.104l15.008 19.853-15.008 19.854 15.008 19.845-15.008 19.854 15.008 19.845-15.008 19.845 15.008 19.846-15.008 19.845 15.008 19.845-15.008 19.846 15.557 20.576c.404.53 1.164.642 1.697.241a1.2 1.2 0 00.243-1.687l-14.458-19.122 15.007-19.846-15.007-19.845 15.007-19.845-15.007-19.846 15.007-19.845-15.007-19.845 15.007-19.854-15.007-19.845 15.007-19.854-15.007-19.853 15.007-19.845-15.007-19.854 15.007-19.853-15.007-19.853 14.458-19.13a1.2 1.2 0 00-.243-1.688 1.218 1.218 0 00-1.697.241L141.688 21.06l15.008 19.853-15.008 19.853 15.008 19.854-15.008 19.845v-.008zm-18.488 0l15.007 19.853-15.007 19.854 15.007 19.845-15.007 19.854 15.007 19.845-15.007 19.845 15.007 19.846-15.007 19.845 15.007 19.845-15.007 19.846 15.557 20.576c.404.53 1.164.642 1.697.241a1.201 1.201 0 00.243-1.687l-14.458-19.122 15.007-19.846-15.007-19.845 15.007-19.845-15.007-19.846 15.007-19.845-15.007-19.845 15.007-19.854-15.007-19.845 15.007-19.854-15.007-19.853 15.007-19.845-15.007-19.854 15.007-19.853-15.007-19.853 14.458-19.13a1.2 1.2 0 00-.243-1.688 1.218 1.218 0 00-1.697.241L123.2 21.06l15.007 19.853L123.2 60.765l15.007 19.854-15.007 19.845v-.008zM104.716 219.56l15.007 19.845-15.007 19.846 15.007 19.845-15.007 19.846 15.557 20.576c.404.53 1.163.642 1.697.241a1.201 1.201 0 00.242-1.687l-14.458-19.123 15.008-19.845-15.008-19.845 15.008-19.846-15.008-19.845 15.008-19.845-15.008-19.845 15.008-19.854-15.008-19.845 15.008-19.854-15.008-19.853 15.008-19.845-15.008-19.854 15.008-19.853-15.008-19.854 14.458-19.13a1.2 1.2 0 00-.242-1.687 1.217 1.217 0 00-1.697.241l-15.557 20.576 15.007 19.854-15.007 19.853 15.007 19.854-15.007 19.845 15.007 19.853-15.007 19.854 15.007 19.845-15.007 19.854 15.007 19.845-15.007 19.845v-.008zm-18.489 0l15.008 19.845-15.008 19.846 15.008 19.845-15.008 19.846 15.557 20.576c.404.53 1.164.642 1.697.241a1.2 1.2 0 00.243-1.687l-14.458-19.123 15.007-19.845-15.007-19.845 15.007-19.846-15.007-19.845 15.007-19.845-15.007-19.845 15.007-19.854-15.007-19.845 15.007-19.854-15.007-19.853 15.007-19.845-15.007-19.854 15.007-19.853-15.007-19.854 14.458-19.13a1.2 1.2 0 00-.243-1.687 1.218 1.218 0 00-1.697.241L86.227 21.066l15.008 19.854-15.008 19.853 15.008 19.854-15.008 19.845 15.008 19.853-15.008 19.854 15.008 19.845-15.008 19.854 15.008 19.845-15.008 19.845v-.008z" opacity=".16" fill="#8A8A8A"/><path d="M262.208 221c4.497 0 8.019-13.397 8.019-30.5s-3.522-30.5-8.019-30.5-8.018 13.397-8.018 30.5 3.524 30.5 8.018 30.5zm0-60.511c4.083 0 7.529 13.743 7.529 30.011s-3.449 30.011-7.529 30.011c-4.079 0-7.528-13.743-7.528-30.011s3.449-30.011 7.528-30.011z" fill="#E2E1DC"/><path d="M252.685 221c4.497 0 8.018-13.397 8.018-30.5s-3.521-30.5-8.018-30.5c-4.497 0-8.019 13.397-8.019 30.5s3.522 30.5 8.019 30.5zm0-60.511c4.082 0 7.528 13.743 7.528 30.011s-3.449 30.011-7.528 30.011c-4.08 0-7.529-13.743-7.529-30.011s3.449-30.011 7.529-30.011z" fill="#E2E1DC"/><path d="M243.154 221c4.497 0 8.018-13.397 8.018-30.5s-3.524-30.5-8.018-30.5c-4.495 0-8.019 13.397-8.019 30.5s3.524 30.5 8.019 30.5zm0-60.511c4.082 0 7.528 13.743 7.528 30.011s-3.449 30.011-7.528 30.011c-4.08 0-7.529-13.743-7.529-30.011s3.449-30.011 7.529-30.011z" fill="#E2E1DC"/><path d="M233.63 221c4.497 0 8.018-13.397 8.018-30.5s-3.524-30.5-8.018-30.5c-4.494 0-8.018 13.397-8.018 30.5s3.521 30.5 8.018 30.5zm0-60.511c4.083 0 7.529 13.743 7.529 30.011s-3.45 30.011-7.529 30.011-7.529-13.743-7.529-30.011 3.45-30.011 7.529-30.011z" fill="#E2E1DC"/><path d="M224.107 221c4.497 0 8.018-13.397 8.018-30.5s-3.521-30.5-8.018-30.5c-4.498 0-8.019 13.397-8.019 30.5s3.521 30.5 8.019 30.5zm0-60.511c4.082 0 7.528 13.743 7.528 30.011s-3.449 30.011-7.528 30.011c-4.08 0-7.529-13.743-7.529-30.011s3.449-30.011 7.529-30.011z" fill="#E2E1DC"/><path d="M214.575 221c4.498 0 8.019-13.397 8.019-30.5s-3.521-30.5-8.019-30.5c-4.497 0-8.018 13.397-8.018 30.5s3.521 30.5 8.018 30.5zm0-60.511c4.083 0 7.529 13.743 7.529 30.011s-3.449 30.011-7.529 30.011c-4.079 0-7.528-13.743-7.528-30.011s3.449-30.011 7.528-30.011z" fill="#E2E1DC"/><path d="M205.052 221c4.497 0 8.018-13.397 8.018-30.5s-3.521-30.5-8.018-30.5c-4.497 0-8.018 13.397-8.018 30.5s3.524 30.5 8.018 30.5zm0-60.511c4.082 0 7.529 13.743 7.529 30.011s-3.45 30.011-7.529 30.011-7.529-13.743-7.529-30.011 3.45-30.011 7.529-30.011z" fill="#E2E1DC"/><path d="M195.529 221c4.497 0 8.018-13.397 8.018-30.5s-3.524-30.5-8.018-30.5c-4.495 0-8.019 13.397-8.019 30.5s3.524 30.5 8.019 30.5zm0-60.511c4.082 0 7.528 13.743 7.528 30.011s-3.449 30.011-7.528 30.011c-4.08 0-7.529-13.743-7.529-30.011s3.449-30.011 7.529-30.011z" fill="#E2E1DC"/><path d="M185.998 220.754c-4.294 0-7.775-13.545-7.775-30.254 0-16.709 3.481-30.254 7.775-30.254 4.294 0 7.775 13.545 7.775 30.254 0 16.709-3.481 30.254-7.775 30.254zm-108.441-61.03H28.04v-49.451h49.518v49.451zm-48.73-.787H76.77v-47.876H28.827v47.876z" fill="#EF9033"/><path d="M49.518 131.728H0v-49.45h49.518v49.45zm-48.724-.787h47.942V83.064H.794v47.877z" fill="#EF9033"/><path d="M52.8 107.004H24.767v27.997H52.8v-27.997z" fill="#EF9033"/><path d="M49.207 131.409H28.355v-20.823h20.852v20.823zm-20.354-.491h19.862v-19.835H28.853v19.835z" fill="#E2E1DC"/></svg>