<svg width="630" height="188" fill="none" xmlns="http://www.w3.org/2000/svg"><g opacity=".16" fill="#8A8A8A"><path d="M647.42 16.504H.594v2.64H647.42v-2.64zM2.36 41.35H.594v1.174H2.36V41.35zm638.622 1.174h-3.512V41.35h3.512v1.174zm-8.198 0h-3.511V41.35h3.511v1.174zm-8.177 0h-3.511V41.35h3.511v1.174zm-8.187 0h-3.512V41.35h3.512v1.174zm-8.197 0h-3.512V41.35h3.512v1.174zm-8.188 0h-3.511V41.35h3.511v1.174zm-8.187 0h-3.512V41.35h3.512v1.174zm-8.187 0h-3.512V41.35h3.512v1.174zm-8.187 0h-3.512V41.35h3.512v1.174zm-8.188 0h-3.512V41.35h3.512v1.174zm-8.187 0h-3.512V41.35h3.512v1.174zm-8.187 0H547.4V41.35h3.512v1.174zm-8.188 0h-3.511V41.35h3.511v1.174zm-8.187 0h-3.512V41.35h3.512v1.174zm-8.187 0h-3.512V41.35h3.512v1.174zm-8.188 0h-3.511V41.35h3.511v1.174zm-8.187 0h-3.511V41.35h3.511v1.174zm-8.187 0h-3.512V41.35h3.512v1.174zm-8.187 0h-3.512V41.35h3.512v1.174zm-8.188 0h-3.511V41.35h3.511v1.174zm-8.187 0h-3.512V41.35h3.512v1.174zm-8.187 0h-3.512V41.35h3.512v1.174zm-8.187 0h-3.512V41.35h3.512v1.174zm-8.188 0h-3.512V41.35h3.512v1.174zm-8.187 0h-3.512V41.35h3.512v1.174zm-8.188 0h-3.511V41.35h3.511v1.174zm-8.187 0h-3.511V41.35h3.511v1.174zm-8.187 0h-3.512V41.35h3.512v1.174zm-8.187 0h-3.512V41.35h3.512v1.174zm-8.188 0h-3.511V41.35h3.511v1.174zm-8.187 0h-3.512V41.35h3.512v1.174zm-8.187 0h-3.512V41.35h3.512v1.174zm-8.187 0h-3.512V41.35h3.512v1.174zm-8.188 0h-3.511V41.35h3.511v1.174zm-8.187 0h-3.512V41.35h3.512v1.174zm-8.187 0h-3.512V41.35h3.512v1.174zm-8.187 0h-3.512V41.35h3.512v1.174zm-8.188 0h-3.512V41.35h3.512v1.174zm-8.187 0h-3.512V41.35h3.512v1.174zm-8.188 0h-3.511V41.35h3.511v1.174zm-8.187 0h-3.511V41.35h3.511v1.174zm-8.187 0h-3.512V41.35h3.512v1.174zm-8.187 0h-3.512V41.35h3.512v1.174zm-8.188 0h-3.511V41.35h3.511v1.174zm-8.187 0h-3.511V41.35h3.511v1.174zm-8.187 0h-3.512V41.35h3.512v1.174zm-8.187 0h-3.512V41.35h3.512v1.174zm-8.188 0h-3.511V41.35h3.511v1.174zm-8.187 0h-3.512V41.35h3.512v1.174zm-8.187 0h-3.512V41.35h3.512v1.174zm-8.188 0h-3.511V41.35h3.511v1.174zm-8.187 0h-3.512V41.35h3.512v1.174zm-8.187 0h-3.512V41.35h3.512v1.174zm-8.188 0h-3.511V41.35h3.511v1.174zm-8.187 0h-3.511V41.35h3.511v1.174zm-8.187 0h-3.512V41.35h3.512v1.174zm-8.187 0h-3.512V41.35h3.512v1.174zm-8.188 0h-3.511V41.35h3.511v1.174zm-8.187 0h-3.511V41.35h3.511v1.174zm-8.187 0h-3.512V41.35h3.512v1.174zm-8.187 0h-3.512V41.35h3.512v1.174zm-8.188 0h-3.511V41.35h3.511v1.174zm-8.187 0h-3.512V41.35h3.512v1.174zm-8.187 0h-3.512V41.35h3.512v1.174zm-8.188 0h-3.511V41.35h3.511v1.174zm-8.187 0h-3.512V41.35h3.512v1.174zm-8.187 0h-3.512V41.35h3.512v1.174zm-8.188 0h-3.511V41.35h3.511v1.174zm-8.187 0h-3.511V41.35h3.511v1.174zm-8.187 0h-3.512V41.35h3.512v1.174zm-8.187 0H64.35V41.35h3.512v1.174zm-8.188 0h-3.511V41.35h3.511v1.174zm-8.187 0h-3.512V41.35h3.512v1.174zm-8.187 0h-3.512V41.35H43.3v1.174zm-8.187 0H31.6V41.35h3.512v1.174zm-8.188 0h-3.512V41.35h3.512v1.174zm-8.187 0h-3.512V41.35h3.512v1.174zm-8.187 0H7.039V41.35h3.512v1.174zM2.36 65.46H.594v1.175H2.36v-1.174zm638.622 1.175h-3.512v-1.174h3.512v1.174zm-8.198 0h-3.511v-1.174h3.511v1.174zm-8.177 0h-3.511v-1.174h3.511v1.174zm-8.187 0h-3.512v-1.174h3.512v1.174zm-8.197 0h-3.512v-1.174h3.512v1.174zm-8.188 0h-3.511v-1.174h3.511v1.174zm-8.187 0h-3.512v-1.174h3.512v1.174zm-8.187 0h-3.512v-1.174h3.512v1.174zm-8.187 0h-3.512v-1.174h3.512v1.174zm-8.188 0h-3.512v-1.174h3.512v1.174zm-8.187 0h-3.512v-1.174h3.512v1.174zm-8.187 0H547.4v-1.174h3.512v1.174zm-8.188 0h-3.511v-1.174h3.511v1.174zm-8.187 0h-3.512v-1.174h3.512v1.174zm-8.187 0h-3.512v-1.174h3.512v1.174zm-8.188 0h-3.511v-1.174h3.511v1.174zm-8.187 0h-3.511v-1.174h3.511v1.174zm-8.187 0h-3.512v-1.174h3.512v1.174zm-8.187 0h-3.512v-1.174h3.512v1.174zm-8.188 0h-3.511v-1.174h3.511v1.174zm-8.187 0h-3.512v-1.174h3.512v1.174zm-8.187 0h-3.512v-1.174h3.512v1.174zm-8.187 0h-3.512v-1.174h3.512v1.174zm-8.188 0h-3.512v-1.174h3.512v1.174zm-8.187 0h-3.512v-1.174h3.512v1.174zm-8.188 0h-3.511v-1.174h3.511v1.174zm-8.187 0h-3.511v-1.174h3.511v1.174zm-8.187 0h-3.512v-1.174h3.512v1.174zm-8.187 0h-3.512v-1.174h3.512v1.174zm-8.188 0h-3.511v-1.174h3.511v1.174zm-8.187 0h-3.512v-1.174h3.512v1.174zm-8.187 0h-3.512v-1.174h3.512v1.174zm-8.187 0h-3.512v-1.174h3.512v1.174zm-8.188 0h-3.511v-1.174h3.511v1.174zm-8.187 0h-3.512v-1.174h3.512v1.174zm-8.187 0h-3.512v-1.174h3.512v1.174zm-8.187 0h-3.512v-1.174h3.512v1.174zm-8.188 0h-3.512v-1.174h3.512v1.174zm-8.187 0h-3.512v-1.174h3.512v1.174zm-8.188 0h-3.511v-1.174h3.511v1.174zm-8.187 0h-3.511v-1.174h3.511v1.174zm-8.187 0h-3.512v-1.174h3.512v1.174zm-8.187 0h-3.512v-1.174h3.512v1.174zm-8.188 0h-3.511v-1.174h3.511v1.174zm-8.187 0h-3.511v-1.174h3.511v1.174zm-8.187 0h-3.512v-1.174h3.512v1.174zm-8.187 0h-3.512v-1.174h3.512v1.174zm-8.188 0h-3.511v-1.174h3.511v1.174zm-8.187 0h-3.512v-1.174h3.512v1.174zm-8.187 0h-3.512v-1.174h3.512v1.174zm-8.188 0h-3.511v-1.174h3.511v1.174zm-8.187 0h-3.512v-1.174h3.512v1.174zm-8.187 0h-3.512v-1.174h3.512v1.174zm-8.188 0h-3.511v-1.174h3.511v1.174zm-8.187 0h-3.511v-1.174h3.511v1.174zm-8.187 0h-3.512v-1.174h3.512v1.174zm-8.187 0h-3.512v-1.174h3.512v1.174zm-8.188 0h-3.511v-1.174h3.511v1.174zm-8.187 0h-3.511v-1.174h3.511v1.174zm-8.187 0h-3.512v-1.174h3.512v1.174zm-8.187 0h-3.512v-1.174h3.512v1.174zm-8.188 0h-3.511v-1.174h3.511v1.174zm-8.187 0h-3.512v-1.174h3.512v1.174zm-8.187 0h-3.512v-1.174h3.512v1.174zm-8.188 0h-3.511v-1.174h3.511v1.174zm-8.187 0h-3.512v-1.174h3.512v1.174zm-8.187 0h-3.512v-1.174h3.512v1.174zm-8.188 0h-3.511v-1.174h3.511v1.174zm-8.187 0h-3.511v-1.174h3.511v1.174zm-8.187 0h-3.512v-1.174h3.512v1.174zm-8.187 0H64.35v-1.174h3.512v1.174zm-8.188 0h-3.511v-1.174h3.511v1.174zm-8.187 0h-3.512v-1.174h3.512v1.174zm-8.187 0h-3.512v-1.174H43.3v1.174zm-8.187 0H31.6v-1.174h3.512v1.174zm-8.188 0h-3.512v-1.174h3.512v1.174zm-8.187 0h-3.512v-1.174h3.512v1.174zm-8.187 0H7.039v-1.174h3.512v1.174zM2.36 89.572H.594v1.175H2.36v-1.175zm638.622 1.175h-3.512v-1.175h3.512v1.175zm-8.198 0h-3.511v-1.175h3.511v1.175zm-8.177 0h-3.511v-1.175h3.511v1.175zm-8.187 0h-3.512v-1.175h3.512v1.175zm-8.197 0h-3.512v-1.175h3.512v1.175zm-8.188 0h-3.511v-1.175h3.511v1.175zm-8.187 0h-3.512v-1.175h3.512v1.175zm-8.187 0h-3.512v-1.175h3.512v1.175zm-8.187 0h-3.512v-1.175h3.512v1.175zm-8.188 0h-3.512v-1.175h3.512v1.175zm-8.187 0h-3.512v-1.175h3.512v1.175zm-8.187 0H547.4v-1.175h3.512v1.175zm-8.188 0h-3.511v-1.175h3.511v1.175zm-8.187 0h-3.512v-1.175h3.512v1.175zm-8.187 0h-3.512v-1.175h3.512v1.175zm-8.188 0h-3.511v-1.175h3.511v1.175zm-8.187 0h-3.511v-1.175h3.511v1.175zm-8.187 0h-3.512v-1.175h3.512v1.175zm-8.187 0h-3.512v-1.175h3.512v1.175zm-8.188 0h-3.511v-1.175h3.511v1.175zm-8.187 0h-3.512v-1.175h3.512v1.175zm-8.187 0h-3.512v-1.175h3.512v1.175zm-8.187 0h-3.512v-1.175h3.512v1.175zm-8.188 0h-3.512v-1.175h3.512v1.175zm-8.187 0h-3.512v-1.175h3.512v1.175zm-8.188 0h-3.511v-1.175h3.511v1.175zm-8.187 0h-3.511v-1.175h3.511v1.175zm-8.187 0h-3.512v-1.175h3.512v1.175zm-8.187 0h-3.512v-1.175h3.512v1.175zm-8.188 0h-3.511v-1.175h3.511v1.175zm-8.187 0h-3.512v-1.175h3.512v1.175zm-8.187 0h-3.512v-1.175h3.512v1.175zm-8.187 0h-3.512v-1.175h3.512v1.175zm-8.188 0h-3.511v-1.175h3.511v1.175zm-8.187 0h-3.512v-1.175h3.512v1.175zm-8.187 0h-3.512v-1.175h3.512v1.175zm-8.187 0h-3.512v-1.175h3.512v1.175zm-8.188 0h-3.512v-1.175h3.512v1.175zm-8.187 0h-3.512v-1.175h3.512v1.175zm-8.188 0h-3.511v-1.175h3.511v1.175zm-8.187 0h-3.511v-1.175h3.511v1.175zm-8.187 0h-3.512v-1.175h3.512v1.175zm-8.187 0h-3.512v-1.175h3.512v1.175zm-8.188 0h-3.511v-1.175h3.511v1.175zm-8.187 0h-3.511v-1.175h3.511v1.175zm-8.187 0h-3.512v-1.175h3.512v1.175zm-8.187 0h-3.512v-1.175h3.512v1.175zm-8.188 0h-3.511v-1.175h3.511v1.175zm-8.187 0h-3.512v-1.175h3.512v1.175zm-8.187 0h-3.512v-1.175h3.512v1.175zm-8.188 0h-3.511v-1.175h3.511v1.175zm-8.187 0h-3.512v-1.175h3.512v1.175zm-8.187 0h-3.512v-1.175h3.512v1.175zm-8.188 0h-3.511v-1.175h3.511v1.175zm-8.187 0h-3.511v-1.175h3.511v1.175zm-8.187 0h-3.512v-1.175h3.512v1.175zm-8.187 0h-3.512v-1.175h3.512v1.175zm-8.188 0h-3.511v-1.175h3.511v1.175zm-8.187 0h-3.511v-1.175h3.511v1.175zm-8.187 0h-3.512v-1.175h3.512v1.175zm-8.187 0h-3.512v-1.175h3.512v1.175zm-8.188 0h-3.511v-1.175h3.511v1.175zm-8.187 0h-3.512v-1.175h3.512v1.175zm-8.187 0h-3.512v-1.175h3.512v1.175zm-8.188 0h-3.511v-1.175h3.511v1.175zm-8.187 0h-3.512v-1.175h3.512v1.175zm-8.187 0h-3.512v-1.175h3.512v1.175zm-8.188 0h-3.511v-1.175h3.511v1.175zm-8.187 0h-3.511v-1.175h3.511v1.175zm-8.187 0h-3.512v-1.175h3.512v1.175zm-8.187 0H64.35v-1.175h3.512v1.175zm-8.188 0h-3.511v-1.175h3.511v1.175zm-8.187 0h-3.512v-1.175h3.512v1.175zm-8.187 0h-3.512v-1.175H43.3v1.175zm-8.187 0H31.6v-1.175h3.512v1.175zm-8.188 0h-3.512v-1.175h3.512v1.175zm-8.187 0h-3.512v-1.175h3.512v1.175zm-8.187 0H7.039v-1.175h3.512v1.175zM2.36 113.686H.594v1.174H2.36v-1.174zm638.622 1.174h-3.512v-1.174h3.512v1.174zm-8.198 0h-3.511v-1.174h3.511v1.174zm-8.177 0h-3.511v-1.174h3.511v1.174zm-8.187 0h-3.512v-1.174h3.512v1.174zm-8.197 0h-3.512v-1.174h3.512v1.174zm-8.188 0h-3.511v-1.174h3.511v1.174zm-8.187 0h-3.512v-1.174h3.512v1.174zm-8.187 0h-3.512v-1.174h3.512v1.174zm-8.187 0h-3.512v-1.174h3.512v1.174zm-8.188 0h-3.512v-1.174h3.512v1.174zm-8.187 0h-3.512v-1.174h3.512v1.174zm-8.187 0H547.4v-1.174h3.512v1.174zm-8.188 0h-3.511v-1.174h3.511v1.174zm-8.187 0h-3.512v-1.174h3.512v1.174zm-8.187 0h-3.512v-1.174h3.512v1.174zm-8.188 0h-3.511v-1.174h3.511v1.174zm-8.187 0h-3.511v-1.174h3.511v1.174zm-8.187 0h-3.512v-1.174h3.512v1.174zm-8.187 0h-3.512v-1.174h3.512v1.174zm-8.188 0h-3.511v-1.174h3.511v1.174zm-8.187 0h-3.512v-1.174h3.512v1.174zm-8.187 0h-3.512v-1.174h3.512v1.174zm-8.187 0h-3.512v-1.174h3.512v1.174zm-8.188 0h-3.512v-1.174h3.512v1.174zm-8.187 0h-3.512v-1.174h3.512v1.174zm-8.188 0h-3.511v-1.174h3.511v1.174zm-8.187 0h-3.511v-1.174h3.511v1.174zm-8.187 0h-3.512v-1.174h3.512v1.174zm-8.187 0h-3.512v-1.174h3.512v1.174zm-8.188 0h-3.511v-1.174h3.511v1.174zm-8.187 0h-3.512v-1.174h3.512v1.174zm-8.187 0h-3.512v-1.174h3.512v1.174zm-8.187 0h-3.512v-1.174h3.512v1.174zm-8.188 0h-3.511v-1.174h3.511v1.174zm-8.187 0h-3.512v-1.174h3.512v1.174zm-8.187 0h-3.512v-1.174h3.512v1.174zm-8.187 0h-3.512v-1.174h3.512v1.174zm-8.188 0h-3.512v-1.174h3.512v1.174zm-8.187 0h-3.512v-1.174h3.512v1.174zm-8.188 0h-3.511v-1.174h3.511v1.174zm-8.187 0h-3.511v-1.174h3.511v1.174zm-8.187 0h-3.512v-1.174h3.512v1.174zm-8.187 0h-3.512v-1.174h3.512v1.174zm-8.188 0h-3.511v-1.174h3.511v1.174zm-8.187 0h-3.511v-1.174h3.511v1.174zm-8.187 0h-3.512v-1.174h3.512v1.174zm-8.187 0h-3.512v-1.174h3.512v1.174zm-8.188 0h-3.511v-1.174h3.511v1.174zm-8.187 0h-3.512v-1.174h3.512v1.174zm-8.187 0h-3.512v-1.174h3.512v1.174zm-8.188 0h-3.511v-1.174h3.511v1.174zm-8.187 0h-3.512v-1.174h3.512v1.174zm-8.187 0h-3.512v-1.174h3.512v1.174zm-8.188 0h-3.511v-1.174h3.511v1.174zm-8.187 0h-3.511v-1.174h3.511v1.174zm-8.187 0h-3.512v-1.174h3.512v1.174zm-8.187 0h-3.512v-1.174h3.512v1.174zm-8.188 0h-3.511v-1.174h3.511v1.174zm-8.187 0h-3.511v-1.174h3.511v1.174zm-8.187 0h-3.512v-1.174h3.512v1.174zm-8.187 0h-3.512v-1.174h3.512v1.174zm-8.188 0h-3.511v-1.174h3.511v1.174zm-8.187 0h-3.512v-1.174h3.512v1.174zm-8.187 0h-3.512v-1.174h3.512v1.174zm-8.188 0h-3.511v-1.174h3.511v1.174zm-8.187 0h-3.512v-1.174h3.512v1.174zm-8.187 0h-3.512v-1.174h3.512v1.174zm-8.188 0h-3.511v-1.174h3.511v1.174zm-8.187 0h-3.511v-1.174h3.511v1.174zm-8.187 0h-3.512v-1.174h3.512v1.174zm-8.187 0H64.35v-1.174h3.512v1.174zm-8.188 0h-3.511v-1.174h3.511v1.174zm-8.187 0h-3.512v-1.174h3.512v1.174zm-8.187 0h-3.512v-1.174H43.3v1.174zm-8.187 0H31.6v-1.174h3.512v1.174zm-8.188 0h-3.512v-1.174h3.512v1.174zm-8.187 0h-3.512v-1.174h3.512v1.174zm-8.187 0H7.039v-1.174h3.512v1.174zM2.36 137.799H.594v1.174H2.36v-1.174zm638.622 1.174h-3.512v-1.174h3.512v1.174zm-8.198 0h-3.511v-1.174h3.511v1.174zm-8.177 0h-3.511v-1.174h3.511v1.174zm-8.187 0h-3.512v-1.174h3.512v1.174zm-8.197 0h-3.512v-1.174h3.512v1.174zm-8.188 0h-3.511v-1.174h3.511v1.174zm-8.187 0h-3.512v-1.174h3.512v1.174zm-8.187 0h-3.512v-1.174h3.512v1.174zm-8.187 0h-3.512v-1.174h3.512v1.174zm-8.188 0h-3.512v-1.174h3.512v1.174zm-8.187 0h-3.512v-1.174h3.512v1.174zm-8.187 0H547.4v-1.174h3.512v1.174zm-8.188 0h-3.511v-1.174h3.511v1.174zm-8.187 0h-3.512v-1.174h3.512v1.174zm-8.187 0h-3.512v-1.174h3.512v1.174zm-8.188 0h-3.511v-1.174h3.511v1.174zm-8.187 0h-3.511v-1.174h3.511v1.174zm-8.187 0h-3.512v-1.174h3.512v1.174zm-8.187 0h-3.512v-1.174h3.512v1.174zm-8.188 0h-3.511v-1.174h3.511v1.174zm-8.187 0h-3.512v-1.174h3.512v1.174zm-8.187 0h-3.512v-1.174h3.512v1.174zm-8.187 0h-3.512v-1.174h3.512v1.174zm-8.188 0h-3.512v-1.174h3.512v1.174zm-8.187 0h-3.512v-1.174h3.512v1.174zm-8.188 0h-3.511v-1.174h3.511v1.174zm-8.187 0h-3.511v-1.174h3.511v1.174zm-8.187 0h-3.512v-1.174h3.512v1.174zm-8.187 0h-3.512v-1.174h3.512v1.174zm-8.188 0h-3.511v-1.174h3.511v1.174zm-8.187 0h-3.512v-1.174h3.512v1.174zm-8.187 0h-3.512v-1.174h3.512v1.174zm-8.187 0h-3.512v-1.174h3.512v1.174zm-8.188 0h-3.511v-1.174h3.511v1.174zm-8.187 0h-3.512v-1.174h3.512v1.174zm-8.187 0h-3.512v-1.174h3.512v1.174zm-8.187 0h-3.512v-1.174h3.512v1.174zm-8.188 0h-3.512v-1.174h3.512v1.174zm-8.187 0h-3.512v-1.174h3.512v1.174zm-8.188 0h-3.511v-1.174h3.511v1.174zm-8.187 0h-3.511v-1.174h3.511v1.174zm-8.187 0h-3.512v-1.174h3.512v1.174zm-8.187 0h-3.512v-1.174h3.512v1.174zm-8.188 0h-3.511v-1.174h3.511v1.174zm-8.187 0h-3.511v-1.174h3.511v1.174zm-8.187 0h-3.512v-1.174h3.512v1.174zm-8.187 0h-3.512v-1.174h3.512v1.174zm-8.188 0h-3.511v-1.174h3.511v1.174zm-8.187 0h-3.512v-1.174h3.512v1.174zm-8.187 0h-3.512v-1.174h3.512v1.174zm-8.188 0h-3.511v-1.174h3.511v1.174zm-8.187 0h-3.512v-1.174h3.512v1.174zm-8.187 0h-3.512v-1.174h3.512v1.174zm-8.188 0h-3.511v-1.174h3.511v1.174zm-8.187 0h-3.511v-1.174h3.511v1.174zm-8.187 0h-3.512v-1.174h3.512v1.174zm-8.187 0h-3.512v-1.174h3.512v1.174zm-8.188 0h-3.511v-1.174h3.511v1.174zm-8.187 0h-3.511v-1.174h3.511v1.174zm-8.187 0h-3.512v-1.174h3.512v1.174zm-8.187 0h-3.512v-1.174h3.512v1.174zm-8.188 0h-3.511v-1.174h3.511v1.174zm-8.187 0h-3.512v-1.174h3.512v1.174zm-8.187 0h-3.512v-1.174h3.512v1.174zm-8.188 0h-3.511v-1.174h3.511v1.174zm-8.187 0h-3.512v-1.174h3.512v1.174zm-8.187 0h-3.512v-1.174h3.512v1.174zm-8.188 0h-3.511v-1.174h3.511v1.174zm-8.187 0h-3.511v-1.174h3.511v1.174zm-8.187 0h-3.512v-1.174h3.512v1.174zm-8.187 0H64.35v-1.174h3.512v1.174zm-8.188 0h-3.511v-1.174h3.511v1.174zm-8.187 0h-3.512v-1.174h3.512v1.174zm-8.187 0h-3.512v-1.174H43.3v1.174zm-8.187 0H31.6v-1.174h3.512v1.174zm-8.188 0h-3.512v-1.174h3.512v1.174zm-8.187 0h-3.512v-1.174h3.512v1.174zm-8.187 0H7.039v-1.174h3.512v1.174zM2.36 161.912H.594v1.175H2.36v-1.175zm638.622 1.175h-3.512v-1.175h3.512v1.175zm-8.198 0h-3.511v-1.175h3.511v1.175zm-8.177 0h-3.511v-1.175h3.511v1.175zm-8.187 0h-3.512v-1.175h3.512v1.175zm-8.197 0h-3.512v-1.175h3.512v1.175zm-8.188 0h-3.511v-1.175h3.511v1.175zm-8.187 0h-3.512v-1.175h3.512v1.175zm-8.187 0h-3.512v-1.175h3.512v1.175zm-8.187 0h-3.512v-1.175h3.512v1.175zm-8.188 0h-3.512v-1.175h3.512v1.175zm-8.187 0h-3.512v-1.175h3.512v1.175zm-8.187 0H547.4v-1.175h3.512v1.175zm-8.188 0h-3.511v-1.175h3.511v1.175zm-8.187 0h-3.512v-1.175h3.512v1.175zm-8.187 0h-3.512v-1.175h3.512v1.175zm-8.188 0h-3.511v-1.175h3.511v1.175zm-8.187 0h-3.511v-1.175h3.511v1.175zm-8.187 0h-3.512v-1.175h3.512v1.175zm-8.187 0h-3.512v-1.175h3.512v1.175zm-8.188 0h-3.511v-1.175h3.511v1.175zm-8.187 0h-3.512v-1.175h3.512v1.175zm-8.187 0h-3.512v-1.175h3.512v1.175zm-8.187 0h-3.512v-1.175h3.512v1.175zm-8.188 0h-3.512v-1.175h3.512v1.175zm-8.187 0h-3.512v-1.175h3.512v1.175zm-8.188 0h-3.511v-1.175h3.511v1.175zm-8.187 0h-3.511v-1.175h3.511v1.175zm-8.187 0h-3.512v-1.175h3.512v1.175zm-8.187 0h-3.512v-1.175h3.512v1.175zm-8.188 0h-3.511v-1.175h3.511v1.175zm-8.187 0h-3.512v-1.175h3.512v1.175zm-8.187 0h-3.512v-1.175h3.512v1.175zm-8.187 0h-3.512v-1.175h3.512v1.175zm-8.188 0h-3.511v-1.175h3.511v1.175zm-8.187 0h-3.512v-1.175h3.512v1.175zm-8.187 0h-3.512v-1.175h3.512v1.175zm-8.187 0h-3.512v-1.175h3.512v1.175zm-8.188 0h-3.512v-1.175h3.512v1.175zm-8.187 0h-3.512v-1.175h3.512v1.175zm-8.188 0h-3.511v-1.175h3.511v1.175zm-8.187 0h-3.511v-1.175h3.511v1.175zm-8.187 0h-3.512v-1.175h3.512v1.175zm-8.187 0h-3.512v-1.175h3.512v1.175zm-8.188 0h-3.511v-1.175h3.511v1.175zm-8.187 0h-3.511v-1.175h3.511v1.175zm-8.187 0h-3.512v-1.175h3.512v1.175zm-8.187 0h-3.512v-1.175h3.512v1.175zm-8.188 0h-3.511v-1.175h3.511v1.175zm-8.187 0h-3.512v-1.175h3.512v1.175zm-8.187 0h-3.512v-1.175h3.512v1.175zm-8.188 0h-3.511v-1.175h3.511v1.175zm-8.187 0h-3.512v-1.175h3.512v1.175zm-8.187 0h-3.512v-1.175h3.512v1.175zm-8.188 0h-3.511v-1.175h3.511v1.175zm-8.187 0h-3.511v-1.175h3.511v1.175zm-8.187 0h-3.512v-1.175h3.512v1.175zm-8.187 0h-3.512v-1.175h3.512v1.175zm-8.188 0h-3.511v-1.175h3.511v1.175zm-8.187 0h-3.511v-1.175h3.511v1.175zm-8.187 0h-3.512v-1.175h3.512v1.175zm-8.187 0h-3.512v-1.175h3.512v1.175zm-8.188 0h-3.511v-1.175h3.511v1.175zm-8.187 0h-3.512v-1.175h3.512v1.175zm-8.187 0h-3.512v-1.175h3.512v1.175zm-8.188 0h-3.511v-1.175h3.511v1.175zm-8.187 0h-3.512v-1.175h3.512v1.175zm-8.187 0h-3.512v-1.175h3.512v1.175zm-8.188 0h-3.511v-1.175h3.511v1.175zm-8.187 0h-3.511v-1.175h3.511v1.175zm-8.187 0h-3.512v-1.175h3.512v1.175zm-8.187 0H64.35v-1.175h3.512v1.175zm-8.188 0h-3.511v-1.175h3.511v1.175zm-8.187 0h-3.512v-1.175h3.512v1.175zm-8.187 0h-3.512v-1.175H43.3v1.175zm-8.187 0H31.6v-1.175h3.512v1.175zm-8.188 0h-3.512v-1.175h3.512v1.175zm-8.187 0h-3.512v-1.175h3.512v1.175zm-8.187 0H7.039v-1.175h3.512v1.175zm-8.191 22.94H.594v1.175H2.36v-1.175zm638.622 1.175h-3.512v-1.175h3.512v1.175zm-8.198 0h-3.511v-1.175h3.511v1.175zm-8.177 0h-3.511v-1.175h3.511v1.175zm-8.187 0h-3.512v-1.175h3.512v1.175zm-8.197 0h-3.512v-1.175h3.512v1.175zm-8.188 0h-3.511v-1.175h3.511v1.175zm-8.187 0h-3.512v-1.175h3.512v1.175zm-8.187 0h-3.512v-1.175h3.512v1.175zm-8.187 0h-3.512v-1.175h3.512v1.175zm-8.188 0h-3.512v-1.175h3.512v1.175zm-8.187 0h-3.512v-1.175h3.512v1.175zm-8.187 0H547.4v-1.175h3.512v1.175zm-8.188 0h-3.511v-1.175h3.511v1.175zm-8.187 0h-3.512v-1.175h3.512v1.175zm-8.187 0h-3.512v-1.175h3.512v1.175zm-8.188 0h-3.511v-1.175h3.511v1.175zm-8.187 0h-3.511v-1.175h3.511v1.175zm-8.187 0h-3.512v-1.175h3.512v1.175zm-8.187 0h-3.512v-1.175h3.512v1.175zm-8.188 0h-3.511v-1.175h3.511v1.175zm-8.187 0h-3.512v-1.175h3.512v1.175zm-8.187 0h-3.512v-1.175h3.512v1.175zm-8.187 0h-3.512v-1.175h3.512v1.175zm-8.188 0h-3.512v-1.175h3.512v1.175zm-8.187 0h-3.512v-1.175h3.512v1.175zm-8.188 0h-3.511v-1.175h3.511v1.175zm-8.187 0h-3.511v-1.175h3.511v1.175zm-8.187 0h-3.512v-1.175h3.512v1.175zm-8.187 0h-3.512v-1.175h3.512v1.175zm-8.188 0h-3.511v-1.175h3.511v1.175zm-8.187 0h-3.512v-1.175h3.512v1.175zm-8.187 0h-3.512v-1.175h3.512v1.175zm-8.187 0h-3.512v-1.175h3.512v1.175zm-8.188 0h-3.511v-1.175h3.511v1.175zm-8.187 0h-3.512v-1.175h3.512v1.175zm-8.187 0h-3.512v-1.175h3.512v1.175zm-8.187 0h-3.512v-1.175h3.512v1.175zm-8.188 0h-3.512v-1.175h3.512v1.175zm-8.187 0h-3.512v-1.175h3.512v1.175zm-8.188 0h-3.511v-1.175h3.511v1.175zm-8.187 0h-3.511v-1.175h3.511v1.175zm-8.187 0h-3.512v-1.175h3.512v1.175zm-8.187 0h-3.512v-1.175h3.512v1.175zm-8.188 0h-3.511v-1.175h3.511v1.175zm-8.187 0h-3.511v-1.175h3.511v1.175zm-8.187 0h-3.512v-1.175h3.512v1.175zm-8.187 0h-3.512v-1.175h3.512v1.175zm-8.188 0h-3.511v-1.175h3.511v1.175zm-8.187 0h-3.512v-1.175h3.512v1.175zm-8.187 0h-3.512v-1.175h3.512v1.175zm-8.188 0h-3.511v-1.175h3.511v1.175zm-8.187 0h-3.512v-1.175h3.512v1.175zm-8.187 0h-3.512v-1.175h3.512v1.175zm-8.188 0h-3.511v-1.175h3.511v1.175zm-8.187 0h-3.511v-1.175h3.511v1.175zm-8.187 0h-3.512v-1.175h3.512v1.175zm-8.187 0h-3.512v-1.175h3.512v1.175zm-8.188 0h-3.511v-1.175h3.511v1.175zm-8.187 0h-3.511v-1.175h3.511v1.175zm-8.187 0h-3.512v-1.175h3.512v1.175zm-8.187 0h-3.512v-1.175h3.512v1.175zm-8.188 0h-3.511v-1.175h3.511v1.175zm-8.187 0h-3.512v-1.175h3.512v1.175zm-8.187 0h-3.512v-1.175h3.512v1.175zm-8.188 0h-3.511v-1.175h3.511v1.175zm-8.187 0h-3.512v-1.175h3.512v1.175zm-8.187 0h-3.512v-1.175h3.512v1.175zm-8.188 0h-3.511v-1.175h3.511v1.175zm-8.187 0h-3.511v-1.175h3.511v1.175zm-8.187 0h-3.512v-1.175h3.512v1.175zm-8.187 0H64.35v-1.175h3.512v1.175zm-8.188 0h-3.511v-1.175h3.511v1.175zm-8.187 0h-3.512v-1.175h3.512v1.175zm-8.187 0h-3.512v-1.175H43.3v1.175zm-8.187 0H31.6v-1.175h3.512v1.175zm-8.188 0h-3.512v-1.175h3.512v1.175zm-8.187 0h-3.512v-1.175h3.512v1.175zm-8.187 0H7.039v-1.175h3.512v1.175z"/><path d="M1.174 186.216H0v-3.533h1.174v3.533zm0-8.241H0v-3.534h1.174v3.534zm0-8.242H0v-3.534h1.174v3.534zm0-8.242H0v-3.533h1.174v3.533zm0-8.252H0v-3.533h1.174v3.533zm0-8.241H0v-3.534h1.174v3.534zm0-8.242H0v-3.534h1.174v3.534zm0-8.242H0v-3.533h1.174v3.533zm0-8.241H0v-3.534h1.174v3.534zm0-8.242H0v-3.534h1.174v3.534zm0-8.242H0v-3.533h1.174v3.533zm0-8.252H0v-3.533h1.174v3.533zm0-8.241H0v-3.534h1.174v3.534zm0-8.242H0V75.52h1.174v3.534zm0-8.242H0V67.28h1.174v3.533zm0-8.241H0v-3.534h1.174v3.534zm0-8.242H0v-3.534h1.174v3.534zm0-8.242H0v-3.534h1.174v3.534zm0-8.242H0v-3.533h1.174v3.533zm0-8.241H0V26.07h1.174v3.534zm0-8.252H0v-3.534h1.174v3.534zm107.808 164.864h-1.173v-3.533h1.173v3.533zm0-8.241h-1.173v-3.534h1.173v3.534zm0-8.242h-1.173v-3.534h1.173v3.534zm0-8.242h-1.173v-3.533h1.173v3.533zm0-8.252h-1.173v-3.533h1.173v3.533zm0-8.241h-1.173v-3.534h1.173v3.534zm0-8.242h-1.173v-3.534h1.173v3.534zm0-8.242h-1.173v-3.533h1.173v3.533zm0-8.241h-1.173v-3.534h1.173v3.534zm0-8.242h-1.173v-3.534h1.173v3.534zm0-8.242h-1.173v-3.533h1.173v3.533zm0-8.252h-1.173v-3.533h1.173v3.533zm0-8.241h-1.173v-3.534h1.173v3.534zm0-8.242h-1.173V75.52h1.173v3.534zm0-8.242h-1.173V67.28h1.173v3.533zm0-8.241h-1.173v-3.534h1.173v3.534zm0-8.242h-1.173v-3.534h1.173v3.534zm0-8.242h-1.173v-3.534h1.173v3.534zm0-8.242h-1.173v-3.533h1.173v3.533zm0-8.241h-1.173V26.07h1.173v3.534zm0-8.252h-1.173v-3.534h1.173v3.534zm107.801 164.864h-1.174v-3.533h1.174v3.533zm0-8.241h-1.174v-3.534h1.174v3.534zm0-8.242h-1.174v-3.534h1.174v3.534zm0-8.242h-1.174v-3.533h1.174v3.533zm0-8.252h-1.174v-3.533h1.174v3.533zm0-8.241h-1.174v-3.534h1.174v3.534zm0-8.242h-1.174v-3.534h1.174v3.534zm0-8.242h-1.174v-3.533h1.174v3.533zm0-8.241h-1.174v-3.534h1.174v3.534zm0-8.242h-1.174v-3.534h1.174v3.534zm0-8.242h-1.174v-3.533h1.174v3.533zm0-8.252h-1.174v-3.533h1.174v3.533zm0-8.241h-1.174v-3.534h1.174v3.534zm0-8.242h-1.174V75.52h1.174v3.534zm0-8.242h-1.174V67.28h1.174v3.533zm0-8.241h-1.174v-3.534h1.174v3.534zm0-8.242h-1.174v-3.534h1.174v3.534zm0-8.242h-1.174v-3.534h1.174v3.534zm0-8.242h-1.174v-3.533h1.174v3.533zm0-8.241h-1.174V26.07h1.174v3.534zm0-8.252h-1.174v-3.534h1.174v3.534zm107.809 164.864h-1.174v-3.533h1.174v3.533zm0-8.241h-1.174v-3.534h1.174v3.534zm0-8.242h-1.174v-3.534h1.174v3.534zm0-8.242h-1.174v-3.533h1.174v3.533zm0-8.252h-1.174v-3.533h1.174v3.533zm0-8.241h-1.174v-3.534h1.174v3.534zm0-8.242h-1.174v-3.534h1.174v3.534zm0-8.242h-1.174v-3.533h1.174v3.533zm0-8.241h-1.174v-3.534h1.174v3.534zm0-8.242h-1.174v-3.534h1.174v3.534zm0-8.242h-1.174v-3.533h1.174v3.533zm0-8.252h-1.174v-3.533h1.174v3.533zm0-8.241h-1.174v-3.534h1.174v3.534zm0-8.242h-1.174V75.52h1.174v3.534zm0-8.242h-1.174V67.28h1.174v3.533zm0-8.241h-1.174v-3.534h1.174v3.534zm0-8.242h-1.174v-3.534h1.174v3.534zm0-8.242h-1.174v-3.534h1.174v3.534zm0-8.242h-1.174v-3.533h1.174v3.533zm0-8.241h-1.174V26.07h1.174v3.534zm0-8.252h-1.174v-3.534h1.174v3.534zm107.797 164.864h-1.174v-3.533h1.174v3.533zm0-8.241h-1.174v-3.534h1.174v3.534zm0-8.242h-1.174v-3.534h1.174v3.534zm0-8.242h-1.174v-3.533h1.174v3.533zm0-8.252h-1.174v-3.533h1.174v3.533zm0-8.241h-1.174v-3.534h1.174v3.534zm0-8.242h-1.174v-3.534h1.174v3.534zm0-8.242h-1.174v-3.533h1.174v3.533zm0-8.241h-1.174v-3.534h1.174v3.534zm0-8.242h-1.174v-3.534h1.174v3.534zm0-8.242h-1.174v-3.533h1.174v3.533zm0-8.252h-1.174v-3.533h1.174v3.533zm0-8.241h-1.174v-3.534h1.174v3.534zm0-8.242h-1.174V75.52h1.174v3.534zm0-8.242h-1.174V67.28h1.174v3.533zm0-8.241h-1.174v-3.534h1.174v3.534zm0-8.242h-1.174v-3.534h1.174v3.534zm0-8.242h-1.174v-3.534h1.174v3.534zm0-8.242h-1.174v-3.533h1.174v3.533zm0-8.241h-1.174V26.07h1.174v3.534zm0-8.252h-1.174v-3.534h1.174v3.534zm107.812 164.864h-1.174v-3.533h1.174v3.533zm0-8.241h-1.174v-3.534h1.174v3.534zm0-8.242h-1.174v-3.534h1.174v3.534zm0-8.242h-1.174v-3.533h1.174v3.533zm0-8.252h-1.174v-3.533h1.174v3.533zm0-8.241h-1.174v-3.534h1.174v3.534zm0-8.242h-1.174v-3.534h1.174v3.534zm0-8.242h-1.174v-3.533h1.174v3.533zm0-8.241h-1.174v-3.534h1.174v3.534zm0-8.242h-1.174v-3.534h1.174v3.534zm0-8.242h-1.174v-3.533h1.174v3.533zm0-8.252h-1.174v-3.533h1.174v3.533zm0-8.241h-1.174v-3.534h1.174v3.534zm0-8.242h-1.174V75.52h1.174v3.534zm0-8.242h-1.174V67.28h1.174v3.533zm0-8.241h-1.174v-3.534h1.174v3.534zm0-8.242h-1.174v-3.534h1.174v3.534zm0-8.242h-1.174v-3.534h1.174v3.534zm0-8.242h-1.174v-3.533h1.174v3.533zm0-8.241h-1.174V26.07h1.174v3.534zm0-8.252h-1.174v-3.534h1.174v3.534z"/><path d="M392.098 147.899c-1.575 0-2.98-.874-3.682-2.329l-15.522-32.104c-2.207-4.577-6.923-7.529-12-7.529h-15.572c-6.512 0-12.19-4.628-13.495-11.012l-14.719-71.716s-.03-.15-.191-.16c-.14 0-.18.1-.19.15l-18.211 73.523a13.129 13.129 0 01-12.772 9.998h-18.432c-4.354 0-8.328 2.57-10.124 6.545l-9.913 21.985a8.377 8.377 0 01-6.441 4.869 8.37 8.37 0 01-7.565-2.801l-3.943-4.528a12.445 12.445 0 00-9.392-4.276h-49.615a19.697 19.697 0 01-15.953-8.181l-27.512-38.318a9.267 9.267 0 00-6.431-3.784 9.21 9.21 0 00-7.124 2.218L95.189 96.31a27.93 27.93 0 01-18.412 6.927H.613v-1.998h76.164a25.942 25.942 0 0017.097-6.425l18.11-15.86a11.194 11.194 0 018.669-2.701 11.263 11.263 0 017.837 4.608l27.511 38.317a17.654 17.654 0 0014.328 7.348h49.615c4.184 0 8.157 1.807 10.907 4.969l3.943 4.528a6.39 6.39 0 005.769 2.138 6.376 6.376 0 004.906-3.704l9.913-21.985a13.133 13.133 0 0111.95-7.719h18.432c5.147 0 9.602-3.484 10.836-8.483l18.211-73.523c.25-1.024 1.143-1.716 2.177-1.666a2.15 2.15 0 012.107 1.756l14.719 71.716c1.124 5.451 5.97 9.417 11.538 9.417h15.572c5.84 0 11.258 3.403 13.806 8.663l15.522 32.103c.481.994 1.414 1.265 2.147 1.175.722-.08 1.575-.552 1.816-1.636l3.482-15.5c1.013-4.527 4.966-7.69 9.612-7.69h80.869c6.01 0 11.208-3.864 12.943-9.617l9.02-29.915c.562-1.857 2.117-3.122 4.054-3.292 1.936-.171 3.682.803 4.555 2.54l30.341 60.121c.863 1.716 2.599 2.71 4.515 2.6a4.696 4.696 0 004.184-3.102l10.365-28.299c2.378-6.505 8.629-10.872 15.552-10.872h63.762v1.998h-63.762c-6.081 0-11.579 3.835-13.666 9.557l-10.364 28.298c-.944 2.57-3.221 4.257-5.94 4.417-2.729.161-5.188-1.254-6.412-3.694l-30.341-60.131c-.592-1.185-1.736-1.516-2.599-1.446-.862.08-1.926.613-2.307 1.878l-9.02 29.915c-1.997 6.605-7.967 11.042-14.86 11.042h-80.869a7.792 7.792 0 00-7.656 6.134l-3.481 15.499c-.392 1.737-1.776 2.982-3.542 3.183a4.06 4.06 0 01-.492.03l-.06-.03z"/><path d="M316.723 22.957h-1.996v163.66h1.996V22.957zM7.785 7.068v.964H2.206v-.753l3.16-3.052c.823-.803.974-1.285.974-1.777 0-.803-.562-1.285-1.656-1.285-.832 0-1.505.271-1.986.844l-.753-.653C2.547.613 3.581.182 4.785.182c1.615 0 2.659.833 2.659 2.168 0 .753-.221 1.436-1.275 2.44L3.792 7.077h3.983l.01-.01zm.871-2.921c0-2.53 1.355-3.975 3.171-3.975 1.816 0 3.16 1.445 3.16 3.975 0 2.53-1.354 3.975-3.16 3.975s-3.17-1.445-3.17-3.975zm5.228 0c0-1.987-.843-2.981-2.057-2.981S9.76 2.16 9.76 4.147c0 1.988.843 2.982 2.067 2.982 1.224 0 2.057-.994 2.057-2.982zm7.624 1.556c0 1.345-.953 2.419-2.94 2.419-1.093 0-2.187-.351-2.85-.944l.512-.873c.522.492 1.385.833 2.328.833 1.174 0 1.846-.542 1.846-1.385s-.551-1.426-2.347-1.426H16.29l.411-4.065h4.385v.963h-3.452l-.21 2.129h.862c2.318 0 3.231.963 3.231 2.339l-.01.01zm6.324 0c0 1.345-.953 2.419-2.94 2.419-1.093 0-2.187-.351-2.849-.944l.512-.873c.521.492 1.384.833 2.328.833 1.173 0 1.846-.542 1.846-1.385s-.552-1.426-2.348-1.426h-1.766l.411-4.065h4.385v.963h-3.452l-.21 2.129h.863c2.317 0 3.23.963 3.23 2.339l-.01.01zm7.675.421h-1.475v1.907H32.96V6.124h-4.315v-.773l3.974-5.08h1.194l-3.803 4.91h2.98V3.493h1.043V5.18h1.475v.954-.01zm6.37-2.077c0 2.65-1.495 4.075-3.673 4.075-.732 0-1.434-.14-1.926-.452l.421-.863c.412.271.934.362 1.495.362 1.576 0 2.579-.984 2.579-2.932v-.28c-.452.672-1.274 1.023-2.238 1.023-1.545 0-2.648-.923-2.648-2.349 0-1.425 1.194-2.45 2.739-2.45 2.087 0 3.26 1.396 3.26 3.876l-.01-.01zM40.512 2.57c0-.803-.642-1.496-1.856-1.496-1.013 0-1.706.592-1.706 1.506 0 .913.672 1.496 1.766 1.496 1.094 0 1.796-.653 1.796-1.506zm7.867 4.498v.964h-5.58v-.753l3.162-3.052c.822-.803.973-1.285.973-1.777 0-.803-.562-1.285-1.656-1.285-.833 0-1.505.271-1.986.844l-.753-.653C43.141.613 44.175.182 45.38.182c1.615 0 2.658.833 2.658 2.168 0 .753-.22 1.436-1.274 2.44l-2.378 2.288h3.983l.01-.01zm.934-2.538h2.98v.923h-2.98v-.924zm10.983 1.594h-1.475v1.907h-1.073V6.124h-4.314v-.773l3.973-5.08H58.6l-3.803 4.91h2.98V3.493h1.043V5.18h1.475v.954-.01zm5.853-.372c0 1.315-.963 2.38-2.94 2.38-1.114 0-2.198-.352-2.85-.944l.512-.874c.522.492 1.385.834 2.338.834 1.164 0 1.826-.532 1.826-1.376 0-.843-.592-1.355-1.916-1.355h-.622v-.773l1.956-2.399h-3.742V.281h5.127v.753l-2.027 2.51c1.555.14 2.338 1.024 2.338 2.218v-.01zm6.441 1.316v.964h-5.58v-.753l3.161-3.052c.823-.803.973-1.285.973-1.777 0-.803-.561-1.285-1.655-1.285-.833 0-1.505.271-1.987.844l-.752-.653C67.352.613 68.385.182 69.59.182c1.615 0 2.658.833 2.658 2.168 0 .753-.22 1.436-1.274 2.44l-2.378 2.288h3.983l.01-.01zm226.907-.714c0 1.495-1.104 2.71-3.352 2.71-1.264 0-2.508-.401-3.25-1.074l.582-1.004c.592.562 1.585.954 2.668.954 1.335 0 2.087-.613 2.087-1.566 0-.954-.672-1.546-2.187-1.546h-.712v-.884l2.227-2.74h-4.264V.1h5.849v.863l-2.317 2.861c1.775.16 2.669 1.164 2.669 2.53zm7.357 1.516v1.105h-6.372V8.11l3.612-3.483c.933-.914 1.114-1.466 1.114-2.028 0-.914-.642-1.466-1.886-1.466-.953 0-1.726.302-2.268.964l-.863-.753C300.874.492 302.058 0 303.432 0c1.846 0 3.04.954 3.04 2.47 0 .863-.25 1.636-1.454 2.79l-2.709 2.61h4.545zm8.506-1.085h-1.686v2.179h-1.224V6.785h-4.927v-.883L312.059.1h1.364l-4.344 5.6h3.411V3.774h1.194V5.7h1.686v1.094l-.01-.01zm.995 1.387c0-.512.392-.863.863-.863.472 0 .833.351.833.863s-.381.873-.833.873a.872.872 0 01-.863-.873zm2.747-3.635c0-2.89 1.545-4.537 3.621-4.537 2.077 0 3.613 1.646 3.613 4.537 0 2.892-1.546 4.538-3.613 4.538-2.066 0-3.621-1.646-3.621-4.538zm5.969 0c0-2.268-.963-3.413-2.348-3.413-1.384 0-2.357 1.145-2.357 3.413 0 2.27.963 3.414 2.357 3.414 1.395 0 2.348-1.145 2.348-3.414zm2.48 0c0-2.89 1.545-4.537 3.622-4.537s3.612 1.646 3.612 4.537c0 2.892-1.545 4.538-3.612 4.538s-3.622-1.646-3.622-4.538zm5.97 0c0-2.268-.964-3.413-2.338-3.413-1.375 0-2.358 1.145-2.358 3.413 0 2.27.963 3.414 2.358 3.414 1.394 0 2.338-1.145 2.338-3.414zm2.487 0c0-2.89 1.545-4.537 3.622-4.537s3.612 1.646 3.612 4.537c0 2.892-1.545 4.538-3.612 4.538s-3.622-1.646-3.622-4.538zm5.96 0c0-2.268-.963-3.413-2.348-3.413-1.385 0-2.358 1.145-2.358 3.413 0 2.27.963 3.414 2.358 3.414s2.348-1.145 2.348-3.414z"/></g><path d="M79.55 108c2.296 0 4.119-2.195 5.558-5.181 1.429 2.986 3.261 5.181 5.558 5.181 4.148 0 6.8-7.218 8.277-13.26 1.321-5.368 2.247-11.894 2.74-19.003l3.804-1.81 4.099 11.559 4.1-11.559 11.037 5.26-5.243-11.074L131 64l-11.52-4.113 5.243-11.074-11.037 5.26-4.1-11.559-4.099 11.559-3.804-1.81c-.483-7.109-1.419-13.635-2.74-19.004C97.455 27.21 94.814 20 90.666 20c-2.296 0-4.12 2.195-5.558 5.181C83.678 22.195 81.846 20 79.55 20c-2.415 0-4.326 2.442-5.785 5.685C72.297 22.442 70.395 20 67.981 20c-2.415 0-4.326 2.442-5.785 5.685C60.728 22.442 58.826 20 56.411 20c-4.148 0-6.8 7.218-8.277 13.26C46.114 41.475 45 52.391 45 64c0 11.608 1.114 22.514 3.134 30.74 1.488 6.052 4.129 13.26 8.277 13.26 2.415 0 4.327-2.442 5.785-5.685 1.468 3.243 3.37 5.685 5.785 5.685 2.414 0 4.326-2.442 5.784-5.685 1.469 3.243 3.37 5.685 5.785 5.685zM58.166 63.05c.059-11.123 1.143-21.534 3.084-29.405.296-1.206.611-2.334.936-3.382.325 1.048.64 2.176.936 3.382 1.902 7.732 2.986 17.906 3.075 28.793l-8.041.613h.01zm11.588-.88c.109-10.787 1.193-20.862 3.075-28.525.296-1.206.611-2.334.936-3.382.325 1.048.64 2.176.936 3.382 1.853 7.524 2.927 17.363 3.065 27.913l-8.021.613h.01zm11.116-.85c.158-10.47 1.232-20.21 3.065-27.675a51.363 51.363 0 011.173-4.103c.414 1.245.808 2.61 1.172 4.103 1.794 7.317 2.868 16.809 3.055 27.033l-8.465.643zm9.796-39.718c2.355 0 4.878 4.499 6.73 12.043 1.242 5.062 2.139 11.163 2.631 17.827l-5.577-2.66 5.242 11.075-8.76.672c-.197-10.303-1.281-19.894-3.095-27.3-.492-1.997-1.103-4.123-1.862-6.07 1.468-3.58 3.114-5.587 4.69-5.587zm-11.116 0c1.576 0 3.222 2.007 4.69 5.586-.758 1.948-1.37 4.074-1.862 6.071-1.725 7.03-2.789 16.028-3.065 25.738-.276-9.71-1.33-18.717-3.064-25.738-.444-1.79-.986-3.688-1.636-5.468 1.527-3.955 3.271-6.19 4.927-6.19h.01zm-11.58 0c1.666 0 3.4 2.234 4.928 6.19-.65 1.78-1.192 3.678-1.636 5.467-1.921 7.822-3.015 18.075-3.124 29.03l-.345.03c-.098-10.975-1.202-21.239-3.124-29.06-.443-1.79-.985-3.688-1.635-5.468 1.527-3.955 3.271-6.19 4.927-6.19h.01zM49.672 33.645c1.853-7.544 4.366-12.043 6.73-12.043 1.666 0 3.4 2.234 4.928 6.19-.65 1.78-1.193 3.678-1.636 5.467-1.97 8.03-3.075 18.619-3.134 29.92l-9.972.762c0-11.45 1.103-22.208 3.084-30.296zm50.021 34.458L94.45 79.178l5.577-2.66c-.492 6.664-1.39 12.775-2.63 17.827-1.853 7.544-4.366 12.043-6.731 12.043-1.577 0-3.223-2.007-4.691-5.586.759-1.948 1.37-4.074 1.862-6.071 1.823-7.406 2.898-16.987 3.095-27.3l8.76.672zm-10.357-.79c-.187 10.223-1.261 19.725-3.055 27.032a51.375 51.375 0 01-1.172 4.104 52.593 52.593 0 01-1.173-4.104c-1.833-7.465-2.907-17.214-3.065-27.675l8.465.642zm-11.569-.88c-.148 10.56-1.222 20.398-3.065 27.912a58.053 58.053 0 01-.936 3.382 58.053 58.053 0 01-.936-3.382c-1.882-7.663-2.966-17.738-3.075-28.526l8.022.613h-.01zm-11.56-.88c-.098 10.895-1.182 21.07-3.074 28.802a57.974 57.974 0 01-.936 3.382 57.976 57.976 0 01-.936-3.382c-1.932-7.88-3.025-18.292-3.085-29.406l8.042.613-.01-.01zm-9.804 40.835c-2.356 0-4.878-4.499-6.731-12.043-1.99-8.088-3.084-18.836-3.084-30.296l9.972.762c.05 11.291 1.153 21.891 3.134 29.92.444 1.79.986 3.688 1.636 5.468-1.528 3.955-3.272 6.189-4.927 6.189zm11.569 0c-1.666 0-3.4-2.234-4.928-6.189.65-1.78 1.193-3.678 1.636-5.468 1.922-7.821 3.026-18.085 3.124-29.06l.345.03c.099 10.965 1.202 21.219 3.124 29.03.444 1.79.985 3.688 1.636 5.468-1.528 3.955-3.272 6.189-4.927 6.189h-.01zm6.651-6.189c.65-1.78 1.193-3.678 1.636-5.468 1.725-7.03 2.79-16.028 3.065-25.738.276 9.71 1.33 18.718 3.065 25.738.493 1.997 1.104 4.123 1.862 6.071-1.468 3.579-3.114 5.586-4.69 5.586-1.666 0-3.4-2.234-4.928-6.189h-.01z" fill="#EF9033"/></svg>