<svg width="90" height="160" fill="none" xmlns="http://www.w3.org/2000/svg"><g opacity=".16" fill="#8A8A8A"><path d="M93.614 89.533h-8.222a2.392 2.392 0 01-2.071-1.202l-4.111-7.136a2.41 2.41 0 010-2.398l4.11-7.136a2.403 2.403 0 012.072-1.202h8.222a2.39 2.39 0 012.07 1.202l4.112 7.136a2.41 2.41 0 010 2.398l-4.111 7.136a2.403 2.403 0 01-2.071 1.202zm-8.222-18.02a1.34 1.34 0 00-1.162.675l-4.11 7.136a1.361 1.361 0 000 1.344l4.11 7.136a1.34 1.34 0 001.162.675h8.222a1.34 1.34 0 001.161-.675l4.111-7.136a1.361 1.361 0 000-1.344l-4.11-7.136a1.34 1.34 0 00-1.162-.675h-8.222z"/><path d="M85.626 90.505c-.836 0-1.63-.416-2.103-1.117l-4.942-7.347a2.558 2.558 0 01-.178-2.535l3.874-7.963a2.527 2.527 0 012.103-1.418l8.815-.617a2.54 2.54 0 012.277 1.112l4.941 7.347c.505.749.573 1.724.179 2.535l-3.875 7.964a2.527 2.527 0 01-2.102 1.418l-8.816.616c-.058 0-.116.005-.174.005zm7.743-19.959h-.1l-8.816.617a1.483 1.483 0 00-1.23.833l-3.874 7.963a1.493 1.493 0 00.105 1.481l4.941 7.347c.295.438.8.685 1.336.654l8.815-.617a1.483 1.483 0 001.23-.832l3.875-7.964a1.48 1.48 0 00-.105-1.481L94.604 71.2a1.48 1.48 0 00-1.23-.654h-.005z"/><path d="M85.943 91.529c-.82 0-1.608-.38-2.118-1.033l-5.851-7.51a2.708 2.708 0 01-.373-2.668l3.558-8.833a2.68 2.68 0 012.114-1.655l9.41-1.328a2.705 2.705 0 012.491 1.007l5.851 7.51c.589.754.731 1.776.373 2.667l-3.559 8.833a2.68 2.68 0 01-2.118 1.655l-9.41 1.328a2.963 2.963 0 01-.373.027h.005zm7.118-22a1.62 1.62 0 00-.226.017l-9.41 1.328a1.641 1.641 0 00-1.288 1.007l-3.559 8.833a1.655 1.655 0 00.226 1.623l5.851 7.51c.358.459.941.696 1.514.612l9.41-1.328a1.633 1.633 0 001.288-1.007l3.559-8.833a1.657 1.657 0 00-.226-1.624l-5.851-7.51a1.63 1.63 0 00-1.288-.627z"/><path d="M86.344 92.595a2.846 2.846 0 01-2.118-.944l-6.84-7.615a2.877 2.877 0 01-.593-2.794l3.16-9.745a2.862 2.862 0 012.118-1.907l9.998-2.13c.989-.21 2.03.127 2.707.88l6.84 7.616c.678.754.904 1.824.594 2.793l-3.16 9.746a2.862 2.862 0 01-2.118 1.907l-9.999 2.13a2.795 2.795 0 01-.589.063zm6.314-24.144c-.12 0-.247.01-.373.037l-9.999 2.13a1.804 1.804 0 00-1.335 1.206l-3.16 9.745c-.2.611-.052 1.286.374 1.76l6.839 7.616c.426.475 1.083.69 1.709.559l9.998-2.13a1.804 1.804 0 001.335-1.206l3.16-9.745a1.807 1.807 0 00-.374-1.76l-6.839-7.616a1.792 1.792 0 00-1.335-.596z"/><path d="M86.848 93.719a3.016 3.016 0 01-2.103-.849l-7.906-7.652a3.042 3.042 0 01-.83-2.915l2.66-10.688a3.05 3.05 0 012.097-2.182l10.56-3.036a3.033 3.033 0 012.934.732l7.906 7.653a3.055 3.055 0 01.836 2.915l-2.66 10.688a3.05 3.05 0 01-2.097 2.182l-10.561 3.036a2.98 2.98 0 01-.83.116h-.006zm5.31-26.39c-.18 0-.364.027-.542.075l-10.561 3.035a1.977 1.977 0 00-1.367 1.423l-2.66 10.689a1.98 1.98 0 00.542 1.897l7.906 7.653a1.97 1.97 0 001.913.48l10.561-3.036a1.976 1.976 0 001.367-1.423l2.66-10.689a1.982 1.982 0 00-.541-1.897l-7.907-7.653a1.983 1.983 0 00-1.372-.553z"/><path d="M87.453 94.883a3.19 3.19 0 01-2.066-.753l-9.052-7.616a3.228 3.228 0 01-1.098-3.025l2.05-11.67a3.235 3.235 0 012.06-2.466L90.45 65.3a3.198 3.198 0 013.159.559l9.052 7.616a3.227 3.227 0 011.099 3.025l-2.05 11.669a3.236 3.236 0 01-2.06 2.466l-11.103 4.053a3.15 3.15 0 01-1.094.195zm4.1-28.713c-.246 0-.499.042-.735.132l-11.103 4.053a2.183 2.183 0 00-1.388 1.66l-2.05 11.669a2.182 2.182 0 00.742 2.034l9.052 7.616a2.157 2.157 0 002.124.374l11.102-4.053a2.174 2.174 0 001.388-1.66l2.05-11.669a2.184 2.184 0 00-.741-2.034l-9.053-7.616a2.156 2.156 0 00-1.388-.506z"/><path d="M88.18 96.087a3.4 3.4 0 01-2.009-.654l-10.277-7.49a3.437 3.437 0 01-1.387-3.124l1.33-12.67a3.425 3.425 0 012.002-2.768l11.608-5.18a3.42 3.42 0 013.395.358l10.277 7.49a3.432 3.432 0 011.388 3.125l-1.33 12.67a3.419 3.419 0 01-2.008 2.767l-11.607 5.18a3.438 3.438 0 01-1.388.296h.006zm2.65-31.122c-.327 0-.653.068-.958.205l-11.607 5.181a2.374 2.374 0 00-1.388 1.913l-1.33 12.67c-.089.838.28 1.666.963 2.161l10.277 7.49c.678.495 1.577.59 2.35.247l11.607-5.18a2.374 2.374 0 001.387-1.914l1.33-12.67a2.362 2.362 0 00-.962-2.16l-10.277-7.49a2.35 2.35 0 00-1.388-.453h-.005z"/><path d="M89.028 97.327c-.673 0-1.34-.184-1.924-.553l-11.586-7.258a3.652 3.652 0 01-1.703-3.215l.478-13.687a3.647 3.647 0 011.924-3.083l12.065-6.43a3.628 3.628 0 013.627.127l11.586 7.257a3.651 3.651 0 011.703 3.215l-.478 13.687a3.65 3.65 0 01-1.924 3.089l-12.065 6.43c-.53.284-1.12.427-1.703.427v-.006zm.952-33.599c-.416 0-.83.1-1.21.3l-12.064 6.43a2.592 2.592 0 00-1.367 2.193l-.478 13.687a2.595 2.595 0 001.21 2.283l11.585 7.257c.778.49 1.766.522 2.576.09l12.064-6.43a2.59 2.59 0 001.367-2.193l.479-13.687a2.596 2.596 0 00-1.209-2.282l-11.587-7.258a2.585 2.585 0 00-1.366-.39z"/><path d="M90.013 98.59c-.62 0-1.246-.148-1.814-.454L75.23 91.22a3.885 3.885 0 01-2.045-3.284l-.515-14.72a3.888 3.888 0 011.814-3.42l12.459-7.806a3.855 3.855 0 013.858-.137l12.969 6.915a3.887 3.887 0 012.045 3.283l.509 14.72a3.886 3.886 0 01-1.813 3.421L92.052 98c-.62.39-1.335.585-2.05.585l.01.005zm-1.026-36.13a2.81 2.81 0 00-1.492.427l-12.46 7.806a2.82 2.82 0 00-1.319 2.487l.516 14.72a2.835 2.835 0 001.493 2.393l12.968 6.915a2.81 2.81 0 002.807-.1l12.459-7.805a2.82 2.82 0 001.319-2.488l-.51-14.72a2.839 2.839 0 00-1.487-2.393l-12.969-6.915a2.78 2.78 0 00-1.32-.327h-.005z"/><path d="M91.146 99.869a4.125 4.125 0 01-1.672-.353l-14.43-6.44a4.127 4.127 0 01-2.418-3.337l-1.65-15.748a4.149 4.149 0 011.67-3.768l12.78-9.308a4.117 4.117 0 014.09-.432l14.43 6.44a4.125 4.125 0 012.418 3.337l1.651 15.748a4.15 4.15 0 01-1.672 3.768l-12.78 9.308a4.106 4.106 0 01-2.422.785h.005zm-3.296-38.69c-.636 0-1.272.2-1.803.585l-12.78 9.307a3.077 3.077 0 00-1.246 2.804l1.651 15.748a3.082 3.082 0 001.798 2.483l14.43 6.44a3.063 3.063 0 003.044-.321l12.779-9.308a3.079 3.079 0 001.246-2.804l-1.651-15.748a3.08 3.08 0 00-1.798-2.482l-14.43-6.44a3.006 3.006 0 00-1.246-.264h.006z"/><path d="M92.446 101.163a4.264 4.264 0 01-1.492-.264l-15.96-5.823a4.4 4.4 0 01-2.818-3.368l-2.949-16.77a4.415 4.415 0 011.498-4.133l13.01-10.947a4.392 4.392 0 014.317-.764l15.959 5.824a4.4 4.4 0 012.818 3.368l2.949 16.77a4.419 4.419 0 01-1.498 4.132l-13.01 10.947a4.371 4.371 0 01-2.824 1.028zM86.553 59.89c-.772 0-1.54.269-2.144.78l-13.01 10.947a3.357 3.357 0 00-1.142 3.14l2.95 16.771a3.345 3.345 0 002.144 2.562l15.96 5.824a3.334 3.334 0 003.28-.58l13.011-10.947a3.358 3.358 0 001.141-3.14l-2.95-16.771a3.353 3.353 0 00-2.144-2.562l-15.96-5.824a3.245 3.245 0 00-1.136-.2z"/><path d="M93.913 102.454a4.63 4.63 0 01-1.282-.179l-17.558-5.05a4.697 4.697 0 01-3.249-3.373L67.41 76.086a4.703 4.703 0 011.287-4.507l13.137-12.717a4.683 4.683 0 014.537-1.133l17.558 5.049a4.695 4.695 0 013.248 3.373l4.421 17.767a4.703 4.703 0 01-1.287 4.506L97.173 101.14a4.68 4.68 0 01-3.254 1.313h-.006zm-8.826-43.85c-.925 0-1.84.358-2.523 1.017L69.427 72.338a3.648 3.648 0 00-.999 3.495l4.416 17.766a3.642 3.642 0 002.518 2.614l17.558 5.05a3.62 3.62 0 003.517-.881l13.136-12.717a3.645 3.645 0 00.999-3.494l-4.421-17.767a3.64 3.64 0 00-2.518-2.614l-17.557-5.05a3.563 3.563 0 00-.994-.142l.005.006z"/><path d="M95.566 103.722c-.342 0-.689-.037-1.03-.111l-19.209-4.095a4.998 4.998 0 01-3.706-3.347l-6.066-18.725a5.03 5.03 0 011.035-4.891l13.142-14.631a4.983 4.983 0 014.742-1.544l19.208 4.095a5.007 5.007 0 013.706 3.346l6.067 18.726a5.032 5.032 0 01-1.036 4.891l-13.142 14.631a4.992 4.992 0 01-3.711 1.655zM83.438 57.326a3.942 3.942 0 00-2.928 1.307L67.368 73.264a3.96 3.96 0 00-.82 3.858l6.067 18.726a3.943 3.943 0 002.922 2.64l19.209 4.096a3.943 3.943 0 003.743-1.218l13.142-14.63a3.975 3.975 0 00.82-3.859l-6.067-18.725a3.943 3.943 0 00-2.923-2.64l-19.208-4.096a3.852 3.852 0 00-.815-.084v-.006z"/><path d="M97.405 104.96a5.11 5.11 0 01-.736-.052l-20.912-2.947a5.339 5.339 0 01-4.195-3.283L63.651 79.05a5.367 5.367 0 01.741-5.287l13-16.68a5.324 5.324 0 014.937-1.998l20.911 2.946a5.34 5.34 0 014.195 3.284l7.912 19.627a5.37 5.37 0 01-.742 5.286l-13 16.681a5.333 5.333 0 01-4.2 2.05zM81.598 56.088c-1.304 0-2.555.6-3.37 1.644l-13 16.68a4.312 4.312 0 00-.594 4.243l7.912 19.628a4.291 4.291 0 003.364 2.635l20.912 2.946a4.268 4.268 0 003.958-1.602l13-16.681a4.311 4.311 0 00.594-4.243l-7.911-19.627a4.283 4.283 0 00-3.365-2.635L82.187 56.13a4.418 4.418 0 00-.59-.043z"/><path d="M99.453 106.159c-.132 0-.263 0-.395-.016l-22.651-1.586a5.697 5.697 0 01-4.71-3.189l-9.951-20.46a5.733 5.733 0 01.394-5.686l12.695-18.874a5.69 5.69 0 015.11-2.498l22.651 1.586a5.698 5.698 0 014.711 3.189l9.951 20.46c.888 1.823.736 4-.395 5.687l-12.695 18.873a5.704 5.704 0 01-4.715 2.514zM79.55 54.893c-1.53 0-2.98.765-3.842 2.045L63.013 75.812a4.68 4.68 0 00-.326 4.633l9.95 20.459a4.648 4.648 0 003.844 2.599l22.651 1.586a4.645 4.645 0 004.164-2.034l12.695-18.874a4.681 4.681 0 00.326-4.632l-9.951-20.46a4.657 4.657 0 00-3.843-2.599l-22.652-1.586a6.476 6.476 0 00-.32-.01z"/><path d="M101.711 107.284H77.299a6.074 6.074 0 01-5.257-3.046L59.836 83.04a6.11 6.11 0 010-6.087l12.206-21.198a6.093 6.093 0 015.257-3.046h24.412a6.074 6.074 0 015.257 3.046l12.207 21.198a6.114 6.114 0 010 6.087l-12.207 21.198a6.093 6.093 0 01-5.257 3.046zm-24.418-53.52a5.029 5.029 0 00-4.347 2.518L60.74 77.48a5.06 5.06 0 000 5.033l12.206 21.198a5.028 5.028 0 004.347 2.519h24.413a5.03 5.03 0 004.348-2.519l12.206-21.198a5.058 5.058 0 000-5.033l-12.206-21.198a5.03 5.03 0 00-4.348-2.519H77.293z"/><path d="M77.993 110.159a6.5 6.5 0 01-5.383-2.867l-14.682-21.82a6.529 6.529 0 01-.452-6.488l11.507-23.653a6.502 6.502 0 015.377-3.637l26.19-1.834a6.51 6.51 0 015.835 2.851l14.677 21.82a6.527 6.527 0 01.452 6.488l-11.507 23.653a6.503 6.503 0 01-5.378 3.637l-26.19 1.834a6.141 6.141 0 01-.446.016zm23.009-59.266c-.126 0-.252 0-.379.01l-26.189 1.834a5.465 5.465 0 00-4.51 3.047L58.417 79.438a5.486 5.486 0 00.378 5.439l14.682 21.819a5.456 5.456 0 004.89 2.393l26.189-1.834a5.466 5.466 0 004.51-3.046l11.507-23.654a5.472 5.472 0 00-.378-5.44l-14.677-21.819a5.452 5.452 0 00-4.511-2.403h-.005z"/><path d="M78.93 113.193a6.94 6.94 0 01-5.473-2.673L56.078 88.221a6.995 6.995 0 01-.967-6.888L65.688 55.09a6.97 6.97 0 015.467-4.285l27.95-3.937a6.96 6.96 0 016.435 2.604l17.379 22.3a6.996 6.996 0 01.967 6.888l-10.577 26.241a6.97 6.97 0 01-5.467 4.285l-27.95 3.937a6.615 6.615 0 01-.957.069h-.005zm21.137-65.338a6.11 6.11 0 00-.814.058L71.302 51.85a5.914 5.914 0 00-4.642 3.631L56.083 81.723a5.93 5.93 0 00.82 5.845l17.38 22.299a5.91 5.91 0 005.456 2.213l27.951-3.937a5.918 5.918 0 004.641-3.636l10.577-26.242a5.93 5.93 0 00-.82-5.845l-17.379-22.299a5.898 5.898 0 00-4.642-2.266z"/><path d="M80.13 116.378a7.434 7.434 0 01-5.525-2.462L54.298 91.301a7.474 7.474 0 01-1.54-7.279l9.377-28.94a7.451 7.451 0 015.515-4.98l29.69-6.324a7.447 7.447 0 017.06 2.297l20.307 22.616a7.487 7.487 0 011.546 7.278l-9.378 28.94a7.451 7.451 0 01-5.515 4.981l-29.69 6.324a7.219 7.219 0 01-1.535.164h-.006zm18.74-71.705c-.436 0-.878.048-1.314.137l-29.69 6.325a6.386 6.386 0 00-4.732 4.274l-9.378 28.94a6.415 6.415 0 001.325 6.246l20.307 22.615a6.364 6.364 0 006.056 1.971l29.69-6.324a6.386 6.386 0 004.731-4.274l9.379-28.94a6.416 6.416 0 00-1.325-6.246l-20.307-22.615a6.395 6.395 0 00-4.742-2.114v.005z"/><path d="M81.618 119.708a7.93 7.93 0 01-5.524-2.235L52.617 94.742a7.998 7.998 0 01-2.187-7.653l7.895-31.75a7.98 7.98 0 015.515-5.728l31.373-9.018a7.95 7.95 0 017.706 1.924l23.477 22.731a7.986 7.986 0 012.187 7.653l-7.896 31.749a7.979 7.979 0 01-5.514 5.729L83.8 119.397a7.91 7.91 0 01-2.176.305l-.006.006zm15.77-78.366c-.63 0-1.266.09-1.892.263l-31.372 9.018a6.917 6.917 0 00-4.784 4.97l-7.896 31.749a6.934 6.934 0 001.898 6.64l23.477 22.732a6.896 6.896 0 006.687 1.671l31.372-9.018a6.915 6.915 0 004.784-4.97l7.896-31.749a6.938 6.938 0 00-1.898-6.64l-23.477-22.732a6.883 6.883 0 00-4.794-1.934z"/><path d="M83.414 123.167a8.497 8.497 0 01-5.472-1.992L51.059 98.56a8.555 8.555 0 01-2.907-8.006l6.092-34.648a8.535 8.535 0 015.462-6.525L92.682 37.35a8.504 8.504 0 018.369 1.48l26.883 22.616a8.552 8.552 0 012.907 8.006l-6.092 34.648a8.538 8.538 0 01-5.462 6.525l-32.976 12.032a8.464 8.464 0 01-2.897.511zm12.17-85.28c-.852 0-1.714.147-2.54.447L60.07 50.367a7.49 7.49 0 00-4.79 5.718l-6.092 34.648a7.484 7.484 0 002.55 7.015l26.883 22.615a7.461 7.461 0 007.333 1.297l32.976-12.032a7.489 7.489 0 004.789-5.719l6.093-34.648a7.484 7.484 0 00-2.549-7.015l-26.884-22.615a7.45 7.45 0 00-4.794-1.745z"/><path d="M85.563 126.743c-1.893 0-3.78-.59-5.357-1.739l-30.527-22.236a9.156 9.156 0 01-3.7-8.333l3.942-37.626a9.133 9.133 0 015.347-7.378l34.474-15.39a9.1 9.1 0 019.047.954l30.526 22.236a9.157 9.157 0 013.701 8.333l-3.943 37.625a9.132 9.132 0 01-5.346 7.379l-34.474 15.39a9.045 9.045 0 01-3.696.785h.006zm7.874-92.438a7.939 7.939 0 00-3.264.695L55.699 50.39a8.09 8.09 0 00-4.732 6.525L47.025 94.54a8.096 8.096 0 003.275 7.369l30.526 22.235a8.05 8.05 0 008.001.844l34.474-15.39a8.088 8.088 0 004.731-6.525l3.943-37.625a8.095 8.095 0 00-3.275-7.368L98.174 35.844a8.033 8.033 0 00-4.737-1.54z"/><path d="M88.088 130.42a9.734 9.734 0 01-5.168-1.481l-34.41-21.556a9.805 9.805 0 01-4.573-8.628l1.414-40.656a9.795 9.795 0 015.162-8.285l35.825-19.1a9.74 9.74 0 019.736.342l34.411 21.556a9.802 9.802 0 014.573 8.628l-1.414 40.656a9.795 9.795 0 01-5.162 8.285l-35.825 19.1a9.75 9.75 0 01-4.574 1.139h.006zm2.828-99.786a8.665 8.665 0 00-4.08 1.018l-35.825 19.1a8.732 8.732 0 00-4.605 7.389l-1.414 40.656a8.741 8.741 0 004.08 7.695l34.41 21.556a8.701 8.701 0 008.685.306l35.825-19.1a8.738 8.738 0 004.605-7.39l1.414-40.656a8.758 8.758 0 00-4.079-7.695L95.521 31.957a8.664 8.664 0 00-4.61-1.323h.005z"/><path d="M91.021 134.175a10.4 10.4 0 01-4.899-1.223L47.6 112.419a10.503 10.503 0 01-5.53-8.876L40.545 59.83a10.491 10.491 0 014.9-9.239l36.997-23.18a10.436 10.436 0 0110.43-.363l38.522 20.534a10.502 10.502 0 015.53 8.875l1.525 43.713a10.493 10.493 0 01-4.9 9.239l-36.997 23.18a10.423 10.423 0 01-5.536 1.586h.005zM87.983 26.874c-1.735 0-3.464.48-4.978 1.428l-36.998 23.18a9.445 9.445 0 00-4.405 8.306l1.525 43.713a9.437 9.437 0 004.972 7.979l38.523 20.534a9.38 9.38 0 009.378-.327l36.997-23.179a9.444 9.444 0 004.405-8.306l-1.524-43.713a9.44 9.44 0 00-4.973-7.98L92.383 27.976a9.373 9.373 0 00-4.405-1.097l.005-.005z"/><path d="M94.398 137.979c-1.54 0-3.091-.316-4.542-.964l-42.859-19.132a11.24 11.24 0 01-6.57-9.07l-4.905-46.776a11.266 11.266 0 014.547-10.245l37.954-27.649a11.186 11.186 0 0111.123-1.17l42.859 19.132a11.238 11.238 0 016.571 9.07l4.905 46.775a11.268 11.268 0 01-4.547 10.246l-37.954 27.649a11.182 11.182 0 01-6.582 2.134zM84.605 23.068c-2.109 0-4.206.659-5.962 1.934L40.69 52.651a10.196 10.196 0 00-4.121 9.281l4.904 46.775c.379 3.6 2.66 6.746 5.956 8.217l42.86 19.132a10.147 10.147 0 0010.076-1.06l37.955-27.643a10.197 10.197 0 004.121-9.281l-4.905-46.776a10.179 10.179 0 00-5.956-8.216L88.721 23.948a10.118 10.118 0 00-4.117-.875v-.005z"/><path d="M98.248 141.82c-1.378 0-2.76-.237-4.085-.722l-47.4-17.298a12.047 12.047 0 01-7.707-9.207l-8.758-49.806a12.07 12.07 0 014.1-11.295l38.643-32.508a11.986 11.986 0 0111.802-2.087l47.4 17.298a12.047 12.047 0 017.707 9.207l8.758 49.806a12.075 12.075 0 01-4.1 11.295l-38.643 32.508a12.002 12.002 0 01-7.717 2.809zM80.758 19.235c-2.539 0-5.046.88-7.039 2.561L35.076 54.304a11.01 11.01 0 00-3.737 10.304l8.758 49.805a10.979 10.979 0 007.028 8.396l47.4 17.298a10.945 10.945 0 0010.767-1.903l38.643-32.508a11.01 11.01 0 003.737-10.304l-8.758-49.805a10.979 10.979 0 00-7.028-8.396l-47.4-17.298a10.833 10.833 0 00-3.728-.658z"/><path d="M102.607 145.641a12.83 12.83 0 01-3.527-.495l-52.137-14.989a12.908 12.908 0 01-8.926-9.266L24.895 68.124a12.932 12.932 0 013.544-12.38l39.016-37.779a12.85 12.85 0 0112.464-3.115l52.137 14.99c4.4 1.264 7.817 4.817 8.926 9.265l13.121 52.767a12.932 12.932 0 01-3.543 12.381l-39.016 37.778a12.87 12.87 0 01-8.942 3.61h.005zM76.391 15.404a11.829 11.829 0 00-8.211 3.315L29.164 56.497a11.869 11.869 0 00-3.249 11.369l13.121 52.767a11.846 11.846 0 008.196 8.507l52.137 14.989a11.82 11.82 0 0011.449-2.862l39.016-37.779a11.867 11.867 0 003.249-11.368l-13.121-52.768a11.846 11.846 0 00-8.195-8.506l-52.138-14.99a11.743 11.743 0 00-3.238-.452z"/><path d="M107.505 149.422c-.946 0-1.902-.1-2.849-.3l-57.047-12.159a13.823 13.823 0 01-10.235-9.239L19.35 72.11a13.882 13.882 0 012.864-13.508L61.24 15.147a13.782 13.782 0 0113.1-4.269l57.047 12.159a13.82 13.82 0 0110.235 9.239l18.026 55.614c1.514 4.68.42 9.855-2.865 13.508l-39.027 43.455a13.802 13.802 0 01-10.256 4.569h.005zM71.491 11.632c-3.57 0-7.034 1.507-9.473 4.216L22.991 59.303a12.81 12.81 0 00-2.644 12.48l18.026 55.614a12.78 12.78 0 009.457 8.538l57.047 12.159a12.725 12.725 0 0012.101-3.942l39.027-43.455a12.81 12.81 0 002.644-12.48l-18.026-55.614a12.778 12.778 0 00-9.457-8.538l-57.047-12.16a12.728 12.728 0 00-2.628-.279v.006z"/><path d="M112.98 153.107c-.678 0-1.362-.047-2.04-.142l-62.104-8.749c-5.21-.732-9.672-4.227-11.644-9.118L13.7 76.802a14.885 14.885 0 012.055-14.668l38.611-49.547a14.799 14.799 0 0113.7-5.55l62.104 8.75a14.805 14.805 0 0111.638 9.117L165.301 83.2a14.887 14.887 0 01-2.055 14.668l-38.612 49.547a14.801 14.801 0 01-11.654 5.692zM66.02 7.944a13.744 13.744 0 00-10.823 5.286L16.585 62.777a13.819 13.819 0 00-1.908 13.624l23.493 58.297a13.754 13.754 0 0010.813 8.469l62.104 8.749a13.741 13.741 0 0012.722-5.154l38.611-49.547a13.832 13.832 0 001.909-13.625l-23.493-58.296a13.757 13.757 0 00-10.813-8.47L67.918 8.076c-.63-.09-1.267-.132-1.897-.132z"/><path d="M119.059 156.648c-.363 0-.731-.011-1.099-.037l-67.271-4.717c-5.63-.396-10.661-3.8-13.137-8.881L7.992 82.245a15.964 15.964 0 011.105-15.848l37.707-56.052c3.154-4.69 8.61-7.362 14.24-6.962L128.317 8.1c5.63.396 10.666 3.8 13.137 8.886l29.559 60.768a15.964 15.964 0 01-1.104 15.849l-37.707 56.051a15.883 15.883 0 01-13.142 7.004v-.01zM59.951 4.4a14.84 14.84 0 00-12.275 6.536L9.97 66.986c-2.944 4.38-3.343 10.052-1.03 14.795l29.56 60.768a14.83 14.83 0 0012.263 8.296l67.272 4.717c5.262.374 10.351-2.124 13.294-6.504l37.708-56.051c2.943-4.38 3.343-10.05 1.03-14.794l-29.559-60.768a14.831 14.831 0 00-12.264-8.296L60.971 4.432a13.324 13.324 0 00-1.025-.037l.005.005z"/><path d="M125.754 160H53.246c-6.056 0-11.696-3.268-14.719-8.522L2.271 88.522a17.126 17.126 0 010-17.044L38.527 8.522C41.555 3.268 47.196 0 53.247 0h72.507c6.056 0 11.696 3.268 14.719 8.522l36.256 62.956a17.126 17.126 0 010 17.044l-36.256 62.956c-3.028 5.254-8.669 8.522-14.719 8.522zM53.246 1.054a15.98 15.98 0 00-13.81 7.995L3.18 72.005a16.077 16.077 0 000 15.99l36.257 62.956a15.98 15.98 0 0013.81 7.995h72.507a15.979 15.979 0 0013.809-7.995l36.257-62.956a16.08 16.08 0 000-15.99L139.563 9.049a15.978 15.978 0 00-13.809-7.995H53.246z"/></g><path d="M90 96.737c-7.348 0-13.328-5.945-13.328-13.25 0-7.304 5.98-13.249 13.328-13.249 7.348 0 13.328 5.945 13.328 13.25 0 7.304-5.98 13.25-13.328 13.25zm0-25.67c-6.89 0-12.494 5.572-12.494 12.42 0 6.85 5.605 12.421 12.494 12.421 6.89 0 12.494-5.572 12.494-12.42 0-6.849-5.605-12.42-12.494-12.42z" fill="#EF9033"/><path d="M90.001 91.941c4.6 0 8.33-3.707 8.33-8.28 0-4.573-3.73-8.28-8.33-8.28s-8.33 3.707-8.33 8.28c0 4.573 3.73 8.28 8.33 8.28z" fill="#EF9033"/><path d="M90.002 88.892c-2.9 0-5.26-2.347-5.26-5.23 0-2.882 2.36-5.228 5.26-5.228s5.26 2.346 5.26 5.229c0 2.882-2.36 5.229-5.26 5.229zm0-9.908c-2.594 0-4.704 2.097-4.704 4.676s2.11 4.676 4.704 4.676 4.704-2.097 4.704-4.676-2.11-4.676-4.704-4.676z" fill="#fff"/><path d="M90 96.934c-11.977 0-23.237-4.637-31.705-13.056L58 83.585l.295-.293C66.763 74.874 78.023 70.236 90 70.236c11.977 0 23.237 4.638 31.705 13.056l.295.293-.295.293C113.237 92.297 101.977 96.934 90 96.934zM59.182 83.585c8.276 8.076 19.202 12.52 30.818 12.52s22.542-4.444 30.818-12.52c-8.276-8.075-19.202-12.52-30.818-12.52s-22.542 4.445-30.818 12.52z" fill="#EF9033"/><path d="M121.411 79.154a.422.422 0 01-.295-.121c-17.156-17.056-45.072-17.056-62.232 0a.416.416 0 01-.59-.586C66.765 70.028 78.025 65.39 90 65.39c11.977 0 23.237 4.637 31.706 13.056a.41.41 0 010 .586.423.423 0 01-.295.121zM90 102.001c-11.977 0-23.237-4.638-31.705-13.056a.416.416 0 01.59-.586c8.31 8.26 19.36 12.812 31.115 12.812 11.755 0 22.803-4.549 31.116-12.812a.417.417 0 01.59 0 .41.41 0 010 .586C113.237 97.363 101.977 102 90 102z" fill="#EF9033"/><path d="M90 65.938a.415.415 0 01-.418-.415v-8.108c0-.23.186-.415.417-.415.23 0 .417.185.417.415v8.108c0 .23-.186.415-.417.415zm-12.432 1.823a.412.412 0 01-.398-.293l-2.402-7.75a.413.413 0 01.275-.516.42.42 0 01.523.273l2.402 7.75a.413.413 0 01-.397.536h-.003zm-10.671 4.741a.42.42 0 01-.337-.169L61.727 65.8a.413.413 0 01.089-.58.419.419 0 01.584.088l4.834 6.533a.413.413 0 01-.336.66z" fill="#EF9033"/></svg>