<svg width="390" height="390" fill="none" xmlns="http://www.w3.org/2000/svg"><path d="M202.159 329.271c3.447.056 6.896.187 10.343.417 3.444.26 6.882.616 10.31 1.075 6.85.948 13.654 2.361 20.301 4.403 6.614 2.096 13.14 4.797 18.894 8.975 1.415 1.071 2.808 2.202 4.03 3.534 1.232 1.317 2.378 2.76 3.231 4.418.865 1.642 1.471 3.466 1.658 5.363.022.476.098.951.067 1.427l-.078 1.428-.256 1.406c-.078.471-.261.909-.391 1.365-.616 1.783-1.502 3.462-2.625 4.916-1.113 1.46-2.355 2.809-3.721 3.98-2.703 2.391-5.736 4.295-8.86 5.935-6.271 3.27-12.941 5.539-19.702 7.286a125.644 125.644 0 01-10.236 2.202 159.365 159.365 0 01-10.35 1.476c-3.463.386-6.936.672-10.411.848-3.478.201-6.958.264-10.44.276-6.962-.04-13.925-.431-20.844-1.251-6.92-.817-13.806-2.033-20.562-3.829-6.74-1.837-13.401-4.16-19.615-7.559-3.091-1.712-6.083-3.693-8.727-6.173-1.291-1.272-2.52-2.633-3.539-4.186-1.002-1.56-1.819-3.277-2.277-5.127a13.458 13.458 0 01-.109-5.675c.365-1.864 1.104-3.626 2.083-5.19.992-1.555 2.179-2.944 3.458-4.212 1.315-1.222 2.687-2.374 4.155-3.36 2.907-2.031 6.036-3.65 9.234-5.055a87.276 87.276 0 019.815-3.574c13.346-3.919 27.216-5.502 41.001-5.581-13.742.913-27.461 3.002-40.423 7.347-3.231 1.094-6.408 2.328-9.469 3.78-3.056 1.45-6.014 3.101-8.682 5.09-1.357.967-2.577 2.077-3.755 3.206-1.13 1.171-2.148 2.422-2.968 3.769-.805 1.351-1.362 2.806-1.62 4.291a10.572 10.572 0 00.182 4.461c.401 1.457 1.09 2.844 1.959 4.141.889 1.293 1.993 2.464 3.163 3.572 2.402 2.176 5.195 4.001 8.132 5.572 5.904 3.134 12.371 5.308 18.928 7.001 13.166 3.338 26.854 4.733 40.494 4.762 13.64.044 27.335-1.254 40.534-4.481 6.588-1.611 13.07-3.736 19.044-6.755 2.982-1.506 5.823-3.272 8.303-5.382 2.483-2.085 4.61-4.595 5.638-7.467 1.111-2.855.763-6.033-.635-8.807-.677-1.402-1.653-2.691-2.731-3.895-1.069-1.215-2.312-2.307-3.603-3.34-5.262-4.077-11.549-6.921-17.964-9.176-6.441-2.26-13.124-3.876-19.875-5.125-6.761-1.222-13.605-2.04-20.484-2.522h-.005z" fill="#EF9033"/><path d="M202.77 331.937c2.452.017 4.908.11 7.362.291 2.45.201 4.899.482 7.334.878 4.869.789 9.692 2.021 14.323 3.879 2.305.951 4.56 2.059 6.69 3.415 2.125 1.353 4.145 2.944 5.86 4.885 1.715 1.93 3.094 4.266 3.765 6.87.334 1.302.483 2.637.435 4.005a13.205 13.205 0 01-.819 3.991c-.957 2.546-2.573 4.724-4.416 6.549-1.855 1.829-3.944 3.337-6.119 4.656-4.363 2.623-9.075 4.483-13.867 5.928-4.807 1.424-9.725 2.375-14.671 3.01-4.949.628-9.933.916-14.915.897a113.695 113.695 0 01-14.902-1.099c-4.937-.709-9.848-1.73-14.626-3.26-4.769-1.541-9.447-3.513-13.723-6.312-2.125-1.41-4.16-3.024-5.899-4.991-1.724-1.961-3.165-4.319-3.795-6.994-.642-2.677-.338-5.502.647-7.98.99-2.489 2.599-4.628 4.454-6.398 3.745-3.544 8.288-5.875 12.924-7.65 4.669-1.731 9.504-2.888 14.38-3.626a98.036 98.036 0 017.341-.81c2.454-.162 4.911-.239 7.362-.239-2.444.194-4.88.461-7.301.815a98.051 98.051 0 00-7.208 1.279c-4.757 1.033-9.443 2.396-13.858 4.321-4.399 1.9-8.628 4.34-11.845 7.673-1.585 1.665-2.914 3.544-3.648 5.605-.739 2.049-.888 4.27-.334 6.303.547 2.049 1.751 3.946 3.286 5.583 1.518 1.661 3.364 3.083 5.327 4.334 3.954 2.492 8.408 4.29 12.973 5.675 9.155 2.768 18.832 3.951 28.464 3.993 9.635.084 19.321-.977 28.543-3.565 4.598-1.295 9.095-2.991 13.16-5.338 2.023-1.175 3.939-2.517 5.585-4.087 1.659-1.55 3.047-3.344 3.862-5.333.405-.993.654-2.03.734-3.082a11.304 11.304 0 00-.251-3.209c-.467-2.124-1.566-4.122-2.997-5.893-1.435-1.777-3.219-3.323-5.152-4.675-1.935-1.354-4.039-2.506-6.216-3.515-4.352-2.04-9.016-3.478-13.761-4.561a95.523 95.523 0 00-7.194-1.346 109.821 109.821 0 00-7.294-.869v-.003z" fill="#EF9033"/><path d="M199.83 333.235a9.784 9.784 0 00-1.038-2.038c-.099-.164-.218-.316-.332-.468l-.173-.23-.184-.22c-.244-.297-.517-.569-.787-.841l-.429-.384a4.387 4.387 0 00-.22-.185l-.225-.178-.227-.176c-.078-.056-.157-.107-.237-.163a35.35 35.35 0 01-.152-.106c.41-.265.834-.508 1.279-.721a13.032 13.032 0 014.146-1.223 6.004 6.004 0 00-1.121-.115 9.54 9.54 0 00-1.132.052 10.05 10.05 0 00-2.224.52 9.834 9.834 0 00-1.884.913 2.299 2.299 0 00-.13-.072l-.256-.127c-.17-.084-.338-.171-.511-.253l-.526-.218a14.151 14.151 0 00-4.373-1.002c.346.143.691.276 1.037.403l.51.211c.168.07.341.133.507.206l.497.225c.166.077.334.14.495.224.322.167.654.307.964.488l.474.255.436.26-.009.007-.223.183c-.301.241-.576.51-.851.777l-.388.424c-.066.07-.126.143-.187.218l-.18.222-.178.225c-.057.078-.109.155-.166.235-.109.156-.22.311-.324.47l-.294.488c-.047.081-.1.161-.142.245l-.128.253c-.085.169-.173.335-.256.506l-.22.52a13.714 13.714 0 00-1.014 4.324c.144-.342.279-.684.407-1.026l.213-.504c.072-.166.136-.337.209-.501l.227-.492c.079-.164.142-.33.228-.489.168-.319.31-.647.493-.953l.258-.469.279-.454.14-.227c.047-.075.1-.148.147-.221l.298-.438.318-.421c.054-.07.104-.141.159-.211l.17-.201.168-.202a2.97 2.97 0 01.173-.199l.36-.384c.389-.393.801-.764 1.239-1.105l.417.306c.071.054.142.103.213.157l.204.169.204.166c.068.054.137.11.201.171l.389.356a12.25 12.25 0 012.485 3.359 12.66 12.66 0 011.236 4.099c.078-.363.109-.736.116-1.108a9.33 9.33 0 00-.052-1.12 9.691 9.691 0 00-.526-2.199l.003.007z" fill="#EF9033"/><path d="M202.406 358.32l31.806-31.805V189.937l.239-.445c7.841-14.544 14.458-26.801 22.298-41.344l.239-.445.423-.277 121.331-79.75c1.764-8.532 3.161-15.28 4.558-22.028a75535.14 75535.14 0 004.557-22.04l-8.131-12.369c-8.532-1.763-15.28-3.16-22.028-4.557-6.748-1.397-13.496-2.793-22.026-4.556L223.276 76.002l-.5.328h-55.542l-.5-.328L54.327 2.126c-8.53 1.763-15.277 3.16-22.024 4.556-6.748 1.396-13.497 2.794-22.029 4.557L2.126 23.632c1.763 8.53 3.16 15.278 4.557 22.026 1.396 6.748 2.793 13.496 4.556 22.028l121.331 79.75.423.277.239.444c3.952 7.33 7.55 14.001 11.149 20.672 3.598 6.671 7.198 13.343 11.149 20.673l.24.444v136.569l31.805 31.805h14.831z" stroke="#8A8A8A" stroke-width="4"/></svg>