<svg width="391" height="456" fill="none" xmlns="http://www.w3.org/2000/svg"><path d="M390.329 389.464c-129.856 2.296-259.932 0-389.829 0V.501h389.805c0 129.652.423 259.311.024 388.963z" stroke="#8A8A8A" stroke-miterlimit="10"/><path d="M19.567 19.661a265.164 265.164 0 00-19.063.288V.501h19.49c-.13 6.387-.28 12.773-.427 19.16zm37.953 2.113c-6.331-.46-12.664-.92-19-1.312.328-6.653.662-13.307.964-19.962h19.49c-.468 7.093-.961 14.184-1.453 21.274zm38.785 1.836c-6.528-.015-13.056-.257-19.575-.594.586-7.505 1.176-15.01 1.735-22.516h19.49c-.525 7.705-1.089 15.408-1.65 23.11zm40.514-1.752c-6.844-.53-13.61.576-20.417 1.122.369-7.492.735-14.983 1.042-22.478h19.49c.077 7.119-.022 14.238-.115 21.356zm38.305-1.091c-6.288.43-12.583.775-18.882.996.154-7.086.299-14.174.184-21.262h19.49c-.041 6.762-.405 13.517-.791 20.266h-.001zm37.395-2.412c-6.253.252-12.499.651-18.742 1.086.717-6.293 1.347-12.609 1.626-18.939h19.49c-.593 5.99-1.413 11.91-2.374 17.853v0zm38.991.835c-6.594-.665-13.225-.988-19.85-1.11 1.113-5.848 2.051-11.664 2.724-17.579h19.491c-.352 6.27-1.262 12.513-2.365 18.69zm40.155.87h-20.009c.883-6.471 1.563-13.025 1.709-19.559h19.49c-.037 6.539-.524 13.058-1.19 19.56zm39.92 0h-19.921c.451-6.513.749-13.03.687-19.56h19.49c.135 6.516 0 13.05-.256 19.56zm39.38 0h-19.596c.102-6.5.12-13.06-.041-19.56h19.491c.122 6.488.155 13.072.146 19.56z" stroke="#8A8A8A" stroke-miterlimit="10"/><path d="M37.536 41.368c-6.13-.875-12.233-1.587-18.407-2.075l.435-19.632c6.323.13 12.642.407 18.953.801-.342 6.968-.673 13.937-.981 20.906zm37.422 6.057c-6.33-.817-12.63-1.871-18.919-2.958.46-7.566.96-15.13 1.479-22.692 6.4.463 12.8.91 19.209 1.243a2218.77 2218.77 0 00-1.769 24.407zm40.356.867c-6.907.658-13.758.987-20.7.793.507-8.496 1.082-16.986 1.691-25.474 6.702.015 13.414-.146 20.1-.633a2016.97 2016.97 0 00-1.091 25.314h0zm40.269-2.466c-6.327.559-12.695.69-19.04.45.051-8.14.159-16.28.274-24.419 6.472.165 12.95.137 19.42-.094-.195 8.021-.443 16.041-.654 24.063zm35.478-5.173c-5.836.974-11.669 1.969-17.51 2.917.544-7.6 1.09-15.199 1.574-22.803 6.22-.423 12.437-.891 18.656-1.327-.841 7.08-1.769 14.146-2.72 21.213zm36.159-3.246c-6.202-.008-12.3.27-18.478.81 1.332-6.606 2.657-13.216 3.78-19.862 6.374-.255 12.76-.391 19.14-.274-1.294 6.484-2.854 12.909-4.442 19.326zm40.812 3.415c-7.192.014-13.823-.059-20.911-1.46 1.619-6.69 3.182-13.394 4.393-20.172 6.747.731 13.368.845 20.146.87-1.028 6.969-2.258 13.853-3.628 20.762zm41.661-.324l-20.818.21a483.04 483.04 0 002.79-20.645h19.994c-.473 6.822-1.196 13.64-1.966 20.435h0zm41.079-.571l-20.405.297c.494-6.72.951-13.43 1.216-20.162h19.788c-.105 6.642-.328 13.227-.599 19.865zm39.534-.53l-19.517.242c.094-6.558.164-13.02.173-19.579h19.344v19.337z" stroke="#8A8A8A" stroke-miterlimit="10"/><path d="M18.794 59.37c-6.182-.68-12.079-.873-18.29-.525V39.397a126.7 126.7 0 0118.627-.104c-.138 6.692-.251 13.384-.337 20.077zm36.066 9.118c-6.023-1.82-12.037-3.665-18.106-5.325.216-7.267.481-14.53.784-21.794 6.182.947 12.343 2.026 18.504 3.096a1247.56 1247.56 0 00-1.183 24.023zm38.552 8.293c-6.697-.661-13.261-1.674-19.826-3.174.36-8.734.825-17.458 1.375-26.183 6.517.839 13.078 1.478 19.65 1.663a1117.25 1117.25 0 00-1.2 27.694v0zm43.425-3.248c-7.417-1.121-14.773 1.602-22.025 2.738.029-9.33.184-18.653.5-27.978 7.05-.923 14.078-2.942 21.235-2.016-.019 9.089.066 18.17.29 27.256zm35.146-5.063c-5.561 1.533-11.09 2.843-16.764 3.885.022-8.845.161-17.686.371-26.529 6.019-.584 11.983-1.352 17.962-2.256a1489.825 1489.825 0 00-1.569 24.9zm32.422-9.032c-5.522 1.172-10.924 2.58-16.343 4.155.95-7.653 1.964-15.297 2.996-22.94 5.885-.936 11.76-1.767 17.682-2.435-1.447 7.073-2.908 14.143-4.335 21.22zm37.208.716c-6.534-1.405-12.966-2.365-19.668-2.434a2494.232 2494.232 0 005.276-20.313c6.708.16 13.281.896 19.899 1.957a1007.422 1007.422 0 01-5.507 20.79zm43.568 1.549c-7.288.138-14.576.256-21.865.35a933.438 933.438 0 004.715-21.232 4861.03 4861.03 0 0020.846-.115 1065.652 1065.652 0 01-3.696 20.996zm43.426-1.08l-21.603.587c.948-6.899 1.857-13.8 2.691-20.713l20.67-.272a1600.39 1600.39 0 01-1.759 20.398h.001zm41.833-1.237l-20.628.61c.35-6.689.688-13.378.961-20.07l20.021-.288c-.095 6.583-.222 13.166-.354 19.748zM36.378 85.79c-5.741-2.42-11.657-4.47-17.718-5.928.009-6.83.044-13.661.132-20.491 6.083.968 11.996 2.257 17.96 3.793-.193 7.542-.32 15.081-.374 22.625zm36.649 15.662c-6.354-2.331-12.572-4.91-18.742-7.693.078-8.427.272-16.847.567-25.269 6.195 1.864 12.42 3.673 18.728 5.118a893.185 893.185 0 00-.553 27.844zm42.519 5.288c-7.576.737-14.736.686-22.305-.19a808.557 808.557 0 01.173-29.77c7.231.42 14.202.256 21.4-.509.038 10.167.276 20.312.732 30.469h0z" stroke="#8A8A8A" stroke-miterlimit="10"/><path d="M155.883 101.016c-5.885 1.447-11.411 2.192-17.471 2.382a703.958 703.958 0 01-1.576-29.866c6.236.057 12.203-.326 18.379-1.178.038 9.564.247 19.108.668 28.662zm29.729-13.303c-4.807 2.434-9.563 4.966-14.413 7.315.086-8.862.36-17.705.779-26.557 5.374-1.587 10.725-3.247 16.085-4.878a635.148 635.148 0 00-2.451 24.12zm31.103-9.452c-5.63.47-10.972 1.297-16.348 3.102 1.239-7.33 2.6-14.631 4.039-21.925a122.215 122.215 0 0117.537-1.718 1308.225 1308.225 0 00-5.228 20.541zm41.633 4.661c-8.04.133-14.694.239-22.442-2.228 1.886-6.852 3.804-13.695 5.706-20.542 7.445 1.997 14.061 1.987 21.703 1.903l-4.967 20.867zm45.791-1.243c-7.622.26-15.246.5-22.869.719l3.907-20.692A5079.43 5079.43 0 00307 61.21l-2.86 20.468h-.001zm44.628-1.735l-22.044.891c.613-6.74 1.256-13.476 1.886-20.214l21.203-.625c-.349 6.649-.708 13.298-1.045 19.948zm41.54-1.65c-6.756.243-13.513.51-20.268.78l.397-19.687c6.623-.19 13.247-.375 19.871-.541v19.448zM18.839 100.741A50.734 50.734 0 00.5 97.743V78.295c6.286-.175 11.992.355 18.159 1.568.014 6.96.072 13.918.18 20.878zm35.821 19.444c-5.988-3.704-11.958-7.432-18.03-10.999a734.474 734.474 0 01-.25-23.398c6.028 2.524 11.958 5.272 17.911 7.968a794.78 794.78 0 00.37 26.429zm39.964 18.069c-7.295-1.833-14.05-4.294-20.897-7.414a721.86 721.86 0 01-.696-29.389c6.679 2.215 13.27 3.923 20.206 5.1a687.3 687.3 0 001.387 31.703zm47.372-2.607c-8.221.195-15.683 2.722-23.849 3.882a627.429 627.429 0 01-2.604-32.788c7.482-1.206 15.195-4.381 22.868-3.342a595.314 595.314 0 003.585 32.248zm30.003-12.846c-4.247 3.336-8.763 6.364-13.655 8.68a547.427 547.427 0 01-2.461-30.463c5.27-1.664 10.338-3.58 15.317-5.99.01 9.275.261 18.514.799 27.773z" stroke="#8A8A8A" stroke-miterlimit="10"/><path d="M197.473 103.338c-4.62 2.588-8.879 5.764-12.953 9.129.11-8.271.493-16.504 1.089-24.755 4.779-2.42 9.673-4.64 14.756-6.35-1.152 7.31-2.135 14.614-2.892 21.976zm33.444-3.215c-6.19-1.595-12.081-2.577-18.495-1.853 1.237-6.715 2.728-13.367 4.296-20.01 6.611-.206 12.806.845 19.189 2.434-1.747 6.456-3.458 12.918-4.99 19.429zm46.934 1.984c-7.962.214-15.926.39-23.89.506 1.35-6.589 2.856-13.142 4.389-19.69 7.642-.146 15.284-.323 22.926-.527-1.209 6.56-2.389 13.122-3.425 19.711zm47.27-1.643c-7.817.319-15.635.623-23.453.898.73-6.572 1.57-13.133 2.473-19.684 7.527-.266 15.052-.548 22.577-.84a907.122 907.122 0 00-1.597 19.626zm44.617-1.901l-21.828.937c.23-6.52.521-13.04.852-19.556l21.276-.871a2344.99 2344.99 0 00-.3 19.49zM37.716 133.299c-5.892-4.222-11.802-8.04-18.277-11.324-.26-7.077-.459-14.154-.6-21.235 6.19 2.21 12.118 5.137 17.789 8.446.214 8.046.6 16.08 1.088 24.113zm38.382 28.359c-6.866-4.325-13.379-9.035-19.812-13.973a686.668 686.668 0 01-1.626-27.501c6.247 3.791 12.533 7.38 19.068 10.655.544 10.3 1.33 20.557 2.37 30.819zm47.166 12.805c-8.755.374-16.705-.482-25.157-2.719a607.9 607.9 0 01-3.482-33.491c7.783 1.779 15.599 1.896 23.522 1.276a579.998 579.998 0 005.117 34.934zm40.089-11.054c-4.618 3.533-9.448 5.316-15.041 6.642a532.864 532.864 0 01-6.316-34.403c5.77-.625 11.058-1.673 16.348-4.167a461.91 461.91 0 005.009 31.928zm22.258-26.099c-3.463 4.698-6.89 9.415-10.452 14.041a366.101 366.101 0 01-3.163-28.551c4.258-3.343 8.35-6.887 12.524-10.333.024 8.316.361 16.559 1.091 24.843zm24.325-20.318c-5.034 1.397-9.534 4.211-13.356 7.722-.028-7.162.3-14.24.894-21.375 4.622-2.584 9.676-4.393 14.944-5.067-1.148 6.189-2 12.444-2.482 18.72zm41.046 3.325c-8.651-.023-15.239-.218-23.427-2.743.912-5.871 2.062-11.651 3.36-17.449 8.087 2.599 14.493 2.617 23.043 2.489-1.149 5.887-2.168 11.759-2.976 17.703z" stroke="#8A8A8A" stroke-miterlimit="10"/><path d="M300.137 119.72c-8.178.179-16.356.329-24.535.443.583-6.049 1.355-12.045 2.247-18.055 7.941-.211 15.881-.466 23.82-.747-.634 6.117-1.162 12.221-1.532 18.359zm47.391-1.325l-23.298.701c.151-6.216.456-12.429.891-18.632l22.789-.962a604.128 604.128 0 00-.382 18.893zm42.778-1.204c-6.878.149-13.756.338-20.633.534-.03-6.387-.007-12.774.065-19.16 6.855-.286 13.711-.569 20.568-.822v19.448zM20.975 142.784c-6.747-3.178-13.04-5.225-20.475-6.145v-19.448c6.546.225 13.05 1.916 18.938 4.786.294 6.971.577 13.887 1.537 20.807zm39.588 29.38c-6.61-5.472-13.177-10.991-19.903-16.324-2.152-7.363-2.415-14.934-2.941-22.541 6.309 4.638 12.389 9.58 18.568 14.386.753 8.433.972 16.636 4.276 24.479zm44.511 27.852c-8.32-3.176-15.871-7.15-23.379-11.909-4.574-7.974-4.587-17.444-5.597-26.446 7.094 4.139 14.194 7.503 22.008 10.084 1.389 9.729 1.824 19.812 6.968 28.271zm52.64.689c-8.675 1.13-17.226 2.965-26.006 3.539-5.262-9.105-6.49-19.486-8.442-29.782 8.504-.976 16.609-3.288 25.047-4.414 2.453 10.632 4.773 20.787 9.401 30.657zm24.016-21.172c-2.912 4.984-5.868 9.796-10.016 13.879-3.866-9.829-6.207-19.661-8.362-30.003 4.532-3.476 8.187-7.683 11.809-12.056 1.623 9.616 3.632 18.875 6.569 28.18zm17.05-31.821c-3.321 4.926-6.102 9.978-8.776 15.279-1.937-8.528-3.426-16.987-4.391-25.681 3.408-4.436 6.832-8.799 10.967-12.597.265 7.746 1.096 15.324 2.2 22.999zm28.036-11.084c-5.78-.974-10.996-1.498-16.51.989-.514-6.88-.909-13.735-.365-20.626 6.064-1.632 11.613-.75 17.617.582-.926 6.348-.946 12.652-.742 19.055z" stroke="#8A8A8A" stroke-miterlimit="10"/><path d="M275.854 139.155c-8.39.061-16.779.078-25.169.041-.483-6.379-.512-12.536.297-18.88 8.208-.004 16.414-.058 24.62-.154-.571 6.413-.447 12.585.252 18.993h0zm48.858-.881c-8.032.202-16.064.38-24.096.536a120.053 120.053 0 01-.481-19.091c8.032-.187 16.064-.394 24.095-.625-.16 6.414.008 12.782.482 19.18zm45.115-1.197l-21.953.583c-.221-6.419-.373-12.843-.343-19.266l22.144-.67c.028 6.451.137 12.901.152 19.353zm-325.728 36c-6.86-4.242-13.832-8.354-21.314-11.425-.442-6.302-1.024-12.598-1.805-18.868 7.047 3.574 13.427 8.281 19.683 13.058a226.646 226.646 0 013.436 17.235zm43.223 28.4c-7.519-4.444-14.788-9.21-22.004-14.124-1.168-5.209-2.894-10.193-4.755-15.188 6.86 5.592 13.81 10.96 21.134 15.941 2.27 4.272 4.255 8.725 5.625 13.371zm49.839 15.756c-9.098-.51-17.501-2.09-26.183-4.794-1.329-4.448-3.635-8.409-5.904-12.423 8.879 2.805 17.299 4.163 26.634 4.229 2.367 4.045 4.453 8.386 5.453 12.989v-.001zm41.151-4.849c-4.665 3.542-9.502 4.169-15.176 4.283-.962-5.626-3.146-10.763-5.417-15.962 5.34-.858 10.168-3.531 14.002-7.295 2.41 6.255 4.779 12.514 6.591 18.974zm17.556-29.165c-2.372 5.622-4.793 11.158-7.56 16.598-2.184-6.765-4.416-13.512-6.578-20.284 2.888-5.454 5.577-10.99 8.275-16.54 1.702 6.829 3.543 13.577 5.863 20.226zm18.719-28.253c-4.764 3.013-7.828 7.266-10.869 11.881-2.419-6.205-3.749-12.605-4.937-19.136 3.002-4.181 6.805-7.901 11.521-10.095.801 5.981 1.554 11.882 4.285 17.35z" stroke="#8A8A8A" stroke-miterlimit="10"/><path d="M256.159 154.082c-8.607-.276-16.5-1.062-24.949-2.252-3.406-4.396-3.79-9.896-4.394-15.202 8.28 2.202 15.204 2.504 23.872 2.568.908 5.352 1.688 10.692 5.471 14.886zm49.245 1.051a3478.82 3478.82 0 01-23.957-.4c-3.424-4.676-4.509-10.008-5.592-15.578 8.257-.079 16.511-.196 24.766-.344.982 5.698 2.057 11.157 4.783 16.322zm44.396.333h-21.653c-1.871-5.59-2.72-11.36-3.432-17.189l23.158-.616c.382 6.008.889 11.869 1.927 17.805zm40.506.621c-6.609-.143-13.219-.244-19.828-.326-.371-6.221-.611-12.451-.654-18.683 6.827-.166 13.654-.326 20.482-.438v19.448-.001zM23.565 179.954c-7.427-2.405-15.242-4.076-23.061-4.419v-19.448c7.866.888 14.907 2.744 22.279 5.565a489.29 489.29 0 01.781 18.302h.001zm43.441 20.889c-7.121-3.993-14.253-7.942-21.52-11.665a142.886 142.886 0 00-1.392-16.103c7.172 4.618 14.191 9.449 21.222 14.278.87 4.596 1.419 8.825 1.69 13.49zm44.764 21.191c-7.885-2.659-15.421-5.844-22.913-9.449.162-3.6-.462-7.684-1.537-11.107 7.672 4.277 15.393 7.955 23.657 10.962 1.295 4.307 1.409 6.128.793 9.594zm50.542 6.444c-8.941-1.928-16.693-1.299-25.832-1.654 1.392-3.39 1.581-5.192.68-9.592 8.911-.05 17.159-1.489 25.97-.565.352 4.072.668 7.886-.818 11.812v-.001zm29.81-14.787c-3.264 4.88-6.536 9.366-11.725 12.388.067-4.7-1.02-9.156-2.092-13.694 4.405-3.401 7.216-7.855 10.002-12.569 1.481 4.56 2.88 9.168 3.815 13.875zm17.243-36.373c-3.35 5.963-5.976 12.309-8.658 18.587-1.645-4.221-3.271-8.436-4.836-12.688 2.398-5.603 4.892-11.036 7.849-16.368 1.666 3.676 3.314 7.159 5.645 10.469zm30.414-21.212c-6.929.661-12.797 2.156-18.465 6.414-2.942-2.047-4.407-3.065-6.728-7.553 5.289-3.271 10.6-3.436 16.62-3.137 2.745 3.336 4.612 3.63 8.573 4.276zm50.827 5.727l-24.696-3.038c-4.464-.9-6.562-1.318-9.754-4.713 8.429.252 16.859.468 25.289.65 2.139 2.99 5.81 5.636 9.161 7.101z" stroke="#8A8A8A" stroke-miterlimit="10"/><path d="M333.721 167.389a4346.016 4346.016 0 00-20.681-2.716c-3.214-2.797-5.388-5.97-7.638-9.541 7.582.095 15.163.263 22.745.331 1.609 4.181 3.25 8.078 5.574 11.926zm38.124 5.358c-6.228-.92-12.46-1.813-18.694-2.69-1.345-4.779-2.495-9.702-3.354-14.592 6.893.059 13.787.208 20.68.295.379 5.67.84 11.327 1.368 16.987zM45.102 204.73c-7.135-2.621-14.27-4.891-21.645-6.749.135-6.012.173-12.013.107-18.026 7.554 2.403 14.854 5.666 21.924 9.224.15 5.186.013 10.379-.386 15.551zm41.734 17.858c-6.977-2.938-13.892-6.004-20.809-9.081.759-4.084 1.113-8.511.978-12.663 7.22 4.041 14.461 8.011 21.85 11.74-.132 4.144-.571 6.068-2.02 10.004zm43.633 12.175c-7.624-.962-14.937-2.474-22.348-4.516 2.261-3.205 3.036-4.751 3.652-8.216 8.177 2.423 16.204 4.025 24.71 4.793-1.392 3.39-2.648 4.861-6.014 7.939zm47.742 3.03c-7.166 3.095-14.835 2.069-22.231.626 2.586-2.674 5.129-6.385 6.333-9.938 6.21.746 12.51.946 18.086-2.401.046 3.812-.811 8.165-2.188 11.713zm25.521-31.397c-3.276 6.612-6.672 12.973-10.838 19.079.327-3.806.027-8.053-.769-11.786 3.36-5.69 5.976-11.728 8.582-17.785 1.625 4.28 2.281 6.022 3.025 10.492zm24.976-38.734c-5.749 5.383-10.119 11.128-14.271 17.821-1.741-3.653-2.841-4.863-5.07-8.165 3.093-5.479 6.873-10.948 11.952-14.797 2.943 2.047 4.539 2.583 7.389 5.141zm49.029-6.452c-9.19-2.113-18.003-4.806-27.491-3.347-4.262-1.319-6.508-1.11-10.469-1.756 8.589-.321 17.661 1.442 26.13 2.69 3.957.583 7.998 1.228 11.83 2.413zm44.325 11.473c-6.826-1.994-13.689-3.851-20.566-5.663-3.5-1.973-7.248-3.5-10.891-5.184l22.435 2.84c2.996 2.682 6.12 5.221 9.022 8.007zm35.137 11.111a1470.254 1470.254 0 00-16.869-5.538c-2.188-3.63-4.453-7.216-6.611-10.864 6.48.87 12.958 1.755 19.434 2.666 1.294 4.594 2.7 9.156 4.046 13.736zm33.113 11.187a2531.31 2531.31 0 01-16.747-5.632 2803.07 2803.07 0 01-1.713-16.604c6.156.909 12.31 1.836 18.46 2.788v19.448z" stroke="#8A8A8A" stroke-miterlimit="10"/><path d="M22.595 216.022A186.494 186.494 0 00.504 214.43v-19.448c7.818.375 15.305 1.377 22.954 2.997a654.803 654.803 0 01-.863 18.042v.001zm40.19 10.193c-6.473-2.156-13.001-4.104-19.582-5.904.843-5.166 1.495-10.363 1.899-15.582 7.053 2.759 14.001 5.722 20.929 8.778-.89 4.356-1.952 8.451-3.246 12.708zm37.9 12.324c-6.36-1.749-12.64-3.787-18.892-5.887 1.96-3.111 3.788-6.601 5.044-10.064 7.017 2.836 14.053 5.416 21.281 7.66-2.261 3.205-3.792 4.766-7.432 8.291h-.001zm44.164 10.223c-8.937-3.217-15.814-4.488-24.935-5.969 3.613-2.544 7.273-5.051 10.551-8.028 3.949.432 7.816.281 11.76.54 4.913.324 8.917 1.673 13.753 3.113-3.439 3.738-7.288 7.033-11.129 10.344zm45.485-9.268c-5.623 5.413-10.897 8.875-18.373 11.331 2.356-4.2 4.588-8.505 6.25-13.032 5.946-2.591 10.966-7.031 14.681-12.316-.352 4.743-1.339 9.427-2.558 14.017zm27.314-41.789c-4.731 7.307-9.068 14.828-13.481 22.327.162-4.58.358-9.096-.433-13.636 3.414-7.047 6.748-14.147 10.702-20.914 1.918 3.883 2.528 7.997 3.212 12.223zm42.684-32.2c-9.419 2.433-17.803 6.04-25.36 12.271-1.609-3.767-3.061-7.38-6.265-10.114 6.21-5.433 13.58-8.133 21.546-9.799 4.531 1.194 7.155 4.25 10.08 7.642h-.001zm51.949 11.341c-7.536-2.783-15.165-5.272-22.838-7.65a24.258 24.258 0 00-11.701-7.986c7.941 1.848 15.866 3.756 23.756 5.809a33.15 33.15 0 0110.783 9.827h0zm34.599 15.06a465.508 465.508 0 00-15.882-7.502 48.856 48.856 0 00-8.936-11.722 764.516 764.516 0 0118.271 5.573c2.576 4.393 4.634 8.939 6.547 13.651zm28.372 14.976c-4.7-2.468-9.372-4.987-14.049-7.497-1.194-5.24-2.491-10.434-4.004-15.593l16.361 5.558c.604 5.84 1.174 11.683 1.692 17.532zM40.06 236.503c-6.281-.985-12.611-1.671-18.95-2.133a891.558 891.558 0 001.486-18.348c6.957 1.123 13.78 2.562 20.61 4.289-.887 5.431-1.993 10.813-3.146 16.192z" stroke="#8A8A8A" stroke-miterlimit="10"/><path d="M74.26 243.937a545.771 545.771 0 00-16.588-4.099c1.854-4.483 3.603-9.014 5.116-13.624 6.349 2.108 12.669 4.303 19.01 6.436-2.357 3.864-4.958 7.569-7.538 11.287zm31.365 8.717c-5.178-1.38-10.335-2.833-15.488-4.298 3.522-3.267 7.086-6.489 10.549-9.818 6.327 1.737 12.74 3.256 19.23 4.255-4.776 3.271-9.557 6.53-14.291 9.861zm56.243 15.817c-11.234.729-21.895-2.674-32.223-6.685 5.017-4.404 10.114-8.708 15.206-13.025 8.935 2.485 17.891 4.329 27.111 2.063-3.294 5.921-6.734 11.763-10.094 17.647zm39.352-26.315c-5.093 6.462-10.372 12.989-17.056 17.906 2.161-6.821 4.366-13.641 6.167-20.569 5.517-5.774 9.717-12.672 13.83-19.46-.48 7.429-1.72 14.789-2.941 22.123zm37.107-41.908c-7.805 5.949-14.338 12.583-20.611 20.104.388-7.527.799-15.13-.071-22.644 5.129-7.398 10.565-13.941 17.323-19.931 2.471 7.201 2.888 14.946 3.358 22.471h.001zm60.477-9.625c-11.203-3.207-19.342-5.189-31.069-3.184-1.462-7.581-3.036-15.396-7.407-21.934 10.946-1.939 18.684.518 29.111 3.691 5.003 6.232 7.299 13.855 9.365 21.428v-.001zm39.571 14.463c-5.635-2.671-11.419-5.033-17.261-7.212-2.081-7.322-4.334-14.762-8.837-21.03 6.299 2.375 12.563 4.832 18.719 7.558 3.6 6.456 5.578 13.569 7.379 20.684zm26.053 14.375c-4.027-2.445-8.068-4.866-12.17-7.184-1.349-6.908-2.861-13.778-5.379-20.371 4.812 2.422 9.578 4.934 14.324 7.481 1.447 6.632 2.4 13.341 3.225 20.074zm25.881 14.419a217.755 217.755 0 01-13.752-7.223c-.336-6.598-.738-13.19-1.303-19.773 4.973 2.611 9.997 5.107 15.055 7.548v19.448zM19.131 253.312c-6.208-.091-12.419-.059-18.627.015v-19.448c6.876-.082 13.743-.013 20.604.49a1035.093 1035.093 0 01-1.976 18.943h0zm31.953 1.941c-5.032-.636-10.088-1.071-15.15-1.365a899.441 899.441 0 004.126-17.385 371.492 371.492 0 0117.61 3.337c-2.133 5.163-4.365 10.286-6.586 15.413zm26.052 5.902c-4.055-1.472-8.194-2.521-12.378-3.546 3.13-4.582 6.307-9.13 9.5-13.67a1430.304 1430.304 0 0115.88 4.419 394.047 394.047 0 00-13.002 12.798v-.001zm33.942 18.614c-7.611-4.441-14.902-9.535-22.687-13.676 5.591-4.682 11.284-9.214 17.233-13.438 8.622 2.288 15.733 5.404 24.019 9.132-6.452 5.733-12.588 11.76-18.565 17.982z" stroke="#8A8A8A" stroke-miterlimit="10"/><path d="M174.103 291.503c-8.501 3.45-16.993 3.547-25.958 2.532 4.4-8.617 8.942-17.147 13.718-25.563 8.278-1.023 15.542-3.333 22.299-8.41-3.347 10.483-6.736 20.952-10.059 31.441zm39.261-31.722c-6.473 6.048-12.727 12.319-19.239 18.326 2.51-11.955 5.002-23.917 7.1-35.952 5.499-7.271 10.835-14.654 16.493-21.804-.832 13.2-2.562 26.333-4.354 39.43v0zm56.824-27.709c-11.813 1.781-22.537 4.979-33.192 10.387 1.034-14.026 1.953-28.143 1.333-42.213 9.303-6.254 18.502-10.167 29.41-12.807 2.489 14.702 2.549 29.771 2.449 44.633v0zm55.978 4.597c-7.483-1.298-15.008-2.321-22.538-3.3-.578-14.288-1.394-28.8-4.823-42.744 7.509 2.204 14.968 4.534 22.309 7.252 3.232 12.664 4.273 25.791 5.052 38.792h0zm29.199 6.637c-4.182-1.241-8.402-2.291-12.639-3.324-.735-11.715-1.763-23.42-4.351-34.894a211.618 211.618 0 0113.882 7.189c1.805 10.268 2.575 20.63 3.108 31.029zm21.738 6.675a340.07 340.07 0 01-10.962-3.341c-.27-9.083-.706-18.143-1.711-27.179 4.017 2.44 8.044 4.866 12.127 7.195.359 7.772.5 15.546.546 23.325zM33.378 275.594c-5.186-.609-10.385-1.093-15.589-1.516.217-6.946.444-13.865 1.343-20.764 5.604.106 11.204.25 16.8.575-2.122 7.043-2.222 14.417-2.554 21.705zm26.552 5.164c-4.124-1.296-8.32-2.188-12.547-3.064.352-7.427-.015-15.709 3.695-22.443a224.16 224.16 0 0113.676 2.356c-5.006 6.949-4.515 14.841-4.823 23.15v.001zm21.18 10.498a56.986 56.986 0 00-9.973-6.101c.195-9.007-.785-17.365 6-24.001a77.86 77.86 0 0111.255 4.938c-4.262 3.731-6.322 5.273-6.79 10.824-.403 4.791-.492 9.535-.491 14.341v-.001z" stroke="#8A8A8A" stroke-miterlimit="10"/><path d="M140.401 320.241c-13.333-2.367-25.724-8.282-37.604-14.528.035-11.113.604-17.661 8.28-25.943 11.636 6.234 23.87 12.251 37.07 14.265-4.46 8.958-6.87 16.333-7.746 26.206zm48.934-12.39c-6.927 4.74-13.746 8.543-21.687 11.288 1.046-9.639 3.544-18.366 6.459-27.637 7.574-2.98 13.939-8.128 20.014-13.396-2.126 9.984-4.103 19.583-4.786 29.745zm45.888-31.375c-8.906 4.358-16.981 9.48-24.961 15.341.213-10.883 1.542-21.216 3.099-32.035 7.418-6.625 14.988-12.366 23.632-17.324-.959 11.431-1.677 22.578-1.77 34.018zm66.855-9.34c-11.075-.406-21.993-.813-33.058.134.786-11.698.917-23.485 1.168-35.198 11.446-1.126 22.099-.127 33.443 1.297.263 11.481.317 22.462-1.553 33.767zm38.98 1.89c-5.549-.361-11.102-.66-16.656-.945 2.125-10.715 2.212-20.365 1.767-31.414 5.545.996 11.073 2.038 16.561 3.313.448 10.242.185 19.09-1.672 29.045v.001zm24.167 1.883c-3.738-.322-7.477-.64-11.217-.94 1.328-9.062 1.661-17.433 1.357-26.663 3.607 1.057 7.194 2.188 10.773 3.334.125 8.188-.178 16.13-.913 24.269zm25.086 1.867c-4.55-.288-9.094-.581-13.639-.933.252-7.29.405-14.569.427-21.864 4.37 1.26 8.785 2.311 13.212 3.346v19.451zM17.667 294.45a1940.138 1940.138 0 00-17.163-2.228v-19.448c5.763.418 11.524.844 17.284 1.301a611.82 611.82 0 00-.12 20.375zm30.188 5.304c-4.78-1.119-9.598-2.065-14.435-2.896a359.98 359.98 0 01-.04-21.267c4.69.551 9.369 1.226 14.01 2.103-.161 7.384-.02 14.688.465 22.06zm25.308 8.504a163.714 163.714 0 00-12.095-4.807c-.843-7.587-1.186-15.062-1.133-22.693 3.793 1.133 7.66 2.627 11.202 4.396.098 7.757.536 15.473 2.026 23.104z" stroke="#8A8A8A" stroke-miterlimit="10"/><path d="M105.42 326.957c-7.668-3.792-14.219-7.824-21.184-12.471-2.08-7.601-2.798-15.386-3.123-23.231 7.064 5.346 13.816 9.962 21.69 14.455.179 7.235.756 14.222 2.617 21.247zm61.657 9.164c-8.997 2.295-17.289 2.76-26.515 1.929-.765-5.965-.554-11.83-.16-17.811 9.509 1.36 17.902 1.264 27.247-1.1-.499 5.671-.851 11.287-.572 16.982zm43.129-24.795c-7.084 4.794-14.064 9.73-21.247 14.376-.087-5.971.052-11.887.376-17.85 7.094-5.192 13.937-10.704 20.926-16.035a576.716 576.716 0 00-.055 19.509zm56.582-22.483c-11.052 1.614-21.704 4.223-31.972 8.686.188-7.018.329-14.034.405-21.053 10.96-4.775 21.943-7.644 33.794-9.207-.547 7.218-1.311 14.392-2.227 21.574zm52.792.277a3873.47 3873.47 0 00-21.818-.73c1.611-7.059 3.07-14.122 4.315-21.254 7.442.283 14.885.577 22.323.947-1.45 7.053-3.074 14.051-4.82 21.037h0zm31.053 1.318c-4.658-.224-9.317-.439-13.977-.64a610.019 610.019 0 004.398-20.771c4.32.294 8.638.593 12.954.942a745.22 745.22 0 01-3.375 20.469zm25.203 1.207a3355.1 3355.1 0 01-12.688-.595c.757-6.707 1.484-13.418 2.079-20.141 3.814.329 7.63.646 11.447.937-.229 6.602-.52 13.201-.838 19.799v0zM34.728 316.282c-5.505-.868-11.025-1.632-16.548-2.377-.244-6.482-.439-12.967-.516-19.453a472.556 472.556 0 0115.75 2.406c.241 6.485.723 12.962 1.314 19.424zm30.02 6.176a231.386 231.386 0 00-14.522-3.408c-1.04-6.395-1.894-12.833-2.374-19.296a233.11 233.11 0 0113.216 3.697c.918 6.412 2.087 12.723 3.68 19.007zm26.43 9.732a201.537 201.537 0 00-12.805-5.434c-2.234-6.059-3.876-12.186-5.209-18.496a80.135 80.135 0 0111.071 6.228c1.816 6.149 3.987 11.996 6.944 17.702zm52.66 18.91c-11.076-1.16-21.542-4.613-31.84-8.694-2.922-4.908-4.866-10.026-6.58-15.448 11.281 5.056 22.802 9.505 35.146 11.093.778 4.482 1.584 8.8 3.274 13.049zm46.165-10.24c-6.926 3.485-13.769 6.349-21.23 8.517-.954-4.392-1.345-8.783-1.695-13.254 7.839-2.607 14.829-6.129 21.883-10.42.136 5.064.49 10.121 1.042 15.157zm44.134-22.9c-8.093 3.243-15.781 7.021-23.412 11.219a830.254 830.254 0 01-.518-17.85c7.878-5.27 15.991-9.851 24.61-13.798-.203 6.81-.434 13.62-.68 20.429z" stroke="#8A8A8A" stroke-miterlimit="10"/><path d="M292.183 310.323c-9.656-.186-19.106-.411-28.742.506a862.203 862.203 0 003.351-21.985c10.413-1.051 20.542-.775 30.971-.455a865.954 865.954 0 01-5.58 21.934zm39.233.702l-17.713-.301a1034.25 1034.25 0 005.875-21.604c5.693.213 11.386.434 17.078.679a1201.002 1201.002 0 01-5.24 21.226v0zm29.234.392l-14.021-.171a1468 1468 0 004.006-20.81l12.514.612a1992.546 1992.546 0 01-2.499 20.369zm29.712.208h-15.569c.369-6.637.726-13.341 1.047-19.981 4.832.214 9.687.411 14.522.59v19.391zM19.004 332.786a4981.55 4981.55 0 00-18.5-1.665v-19.449c5.895.728 11.788 1.467 17.679 2.234.237 6.295.529 12.588.821 18.88zm34.515 3.839a823.187 823.187 0 00-16.863-2.067 1258.47 1258.47 0 01-1.925-18.276 361.321 361.321 0 0115.495 2.768 693.994 693.994 0 003.293 17.575zm31.59 5.758a285.439 285.439 0 00-15.46-3.213c-1.74-5.547-3.394-11.099-4.903-16.713a166.75 166.75 0 0113.624 4.297 247.296 247.296 0 006.738 15.63v-.001zm35.38 11.836c-6.836-2.711-13.521-5.558-20.535-7.769-3.177-4.621-6.063-9.358-8.778-14.261 6.97 3.442 13.686 7.043 20.821 10.217 2.49 4.171 5.403 8.068 8.492 11.813zm51.134 5.9c-7.759 1.218-15.126 1.487-22.976.957-2.018-3.601-3.085-5.483-4.807-9.975 8.469.602 16.657.383 24.936-1.725.983 4.718 1.627 6.786 2.847 10.743h0zm40.011-14.477c-6.592 2.843-13.161 5.73-19.816 8.425a416.122 416.122 0 01-1.814-13.209c7.025-3.675 13.827-7.772 20.722-11.681.257 5.492.546 10.98.908 16.465zm48.085-13.086c-8.968.968-17.568 2.595-26.25 5.011.198-6.536.432-13.072.67-19.607 9.636-3.456 19.153-5.735 29.301-7.129-1.221 7.245-2.476 14.484-3.721 21.725zm47.74-.284c-7.101.001-14.202-.036-21.303-.082 2.022-7.287 4.045-14.573 6.028-21.87l21.524.402c-2.061 7.19-4.155 14.37-6.249 21.55z" stroke="#8A8A8A" stroke-miterlimit="10"/><path d="M342.395 332.025c-5.506.079-11.013.135-16.52.182 1.855-7.059 3.711-14.117 5.541-21.183l15.211.224c-1.398 6.929-2.816 13.853-4.232 20.777zm31.266-.563l-15.665.303 2.652-20.346 14.14.208-1.127 19.835zM38.532 352.384a2168.16 2168.16 0 00-18.732-.943 1910.49 1910.49 0 00-.796-18.655c5.888.559 11.771 1.145 17.652 1.773.663 5.939 1.302 11.877 1.876 17.825zm35.922 2.6a1039.242 1039.242 0 00-17.717-1.46c-.998-5.648-2.092-11.273-3.218-16.898a395.493 395.493 0 0116.132 2.547c1.664 5.252 3.343 10.498 4.803 15.811zm34.128 4.375a580.661 580.661 0 00-16.86-2.472c-2.045-4.905-4.336-9.701-6.613-14.502a222.016 222.016 0 0114.845 4.066c2.934 4.263 5.912 8.501 8.628 12.908zm44.821 10.309c-8.39-.824-16.483-2.759-24.557-5.111-2.72-3.509-5.521-6.919-8.354-10.339 9.192 3.219 18.429 5.883 28.155 6.857 2.018 3.601 3.075 5.207 4.756 8.593zm40.352-3.594c-6.332 1.575-12.765 2.773-19.251 3.495-1.012-3.684-1.663-5.493-2.883-9.451 6.958-1.496 13.546-3.545 20.197-6.051.645 4.003 1.317 8.001 1.937 12.007zm39.342-9.923a328.463 328.463 0 00-20.342 4.846 1230.79 1230.79 0 01-1.118-15.355 224.668 224.668 0 0121.834-8.078c-.19 6.194-.322 12.39-.374 18.587zm47.399-2.903c-8.04-.005-16.076-.151-24.113.101 1.032-6.946 2.162-13.873 3.336-20.796 8.826-.595 17.596-.428 26.435-.363a1369.94 1369.94 0 00-5.658 21.058z" stroke="#8A8A8A" stroke-miterlimit="10"/><path d="M320.58 352.845c-6.354.135-12.709.232-19.064.301 1.93-6.972 3.923-13.926 5.942-20.873 6.14-.006 12.28-.027 18.42-.067a1908.39 1908.39 0 00-5.298 20.639zm34.882-1.01c-5.706.196-11.412.383-17.118.557a2137.187 2137.187 0 014.054-20.368c5.2-.075 10.401-.163 15.601-.26a2335.294 2335.294 0 00-2.537 20.071zm34.912-1.236l-17.788.623c.34-6.588.702-13.175 1.076-19.761l16.712-.312v19.45zM20.24 370.218l-19.736-.201v-19.449l19.296.873a671.71 671.71 0 01.44 18.777zm38.65.57c-6.397-.137-12.794-.242-19.192-.334a417.103 417.103 0 00-1.163-18.071c6.071.347 12.139.723 18.205 1.14a248.786 248.786 0 012.15 17.265zm37.662 1.213c-6.24-.287-12.481-.518-18.724-.717-.847-5.511-1.9-10.919-3.379-16.301a751.98 751.98 0 0117.27 1.904c2.037 4.89 3.724 9.931 4.833 15.113v.001zm38.452 3.586c-6.723-1.461-13.076-2.149-19.934-2.586-1.57-4.803-3.844-9.345-6.492-13.642 7.081 1.197 13.426 2.927 20.261 5.2 2.485 3.22 4.814 7.182 6.165 11.028zm41.302 3.359c-6.594.238-13.206.089-19.786-.378-.711-3.847-1.441-5.513-3.122-8.899 7.051.523 14.064.693 21.105-.099 1.011 3.684 1.447 5.478 1.803 9.376zm37.593-3.432c-6.242.732-12.482 1.476-18.733 2.112-.303-3.856-.805-7.732-1.412-11.551 6.365-1.571 12.673-3.352 18.997-5.077l1.148 14.516zm40.281-2.969c-6.975.117-13.922.414-20.877.974a552.423 552.423 0 01-.211-17.366c7.7-1.508 15.461-2.323 23.287-2.802-.933 6.372-1.691 12.774-2.199 19.194zm42.375.176c-6.843.059-13.687.055-20.532.029 1.297-6.547 2.849-13.028 4.469-19.501 7.006-.005 14.013-.026 21.018-.103-1.755 6.501-3.455 13.01-4.955 19.574v.001zm38.314-.743c-6.268.184-12.537.339-18.807.466 1.38-6.563 2.922-13.084 4.514-19.598 5.921-.132 11.843-.283 17.764-.452a655.832 655.832 0 00-3.471 19.584zm36.822-1.261l-18.386.665a878.194 878.194 0 012.155-19.545l17.126-.613c-.336 6.495-.635 12.994-.895 19.493zM39.486 389.464h-19.49c.22-6.412.308-12.831.247-19.247 6.485.069 12.97.143 19.454.237.22 6.334.13 12.682-.21 19.01zm38.98.001h-19.49c.374-6.214.388-12.466-.09-18.676 6.317.135 12.633.293 18.948.494.652 6.117.841 12.034.632 18.182z" stroke="#8A8A8A" stroke-miterlimit="10"/><path d="M117.448 389.464h-19.49c.064-5.923-.164-11.648-1.4-17.465 6.176.295 12.348.627 18.519 1.001 1.762 5.432 2.23 10.794 2.371 16.464zm38.977-.001h-19.491c.278-4.7-.317-9.445-1.926-13.879a219.92 219.92 0 0021.512 2.982c.711 3.847.797 5.913-.096 10.897h.001zm38.98.002h-19.491c.745-4.598.748-6.621.392-10.518 6.299-.223 12.59-.678 18.86-1.321.346 3.897.443 7.933.239 11.839zm38.98-.001h-19.491a915.244 915.244 0 00-.996-13.951c6.459-.754 12.924-1.473 19.406-1.996.187 5.325.523 10.646 1.081 15.947zm39.177.484c-6.565-.194-13.118-.528-19.688-.484-.307-5.657-.046-11.273.307-16.921 7.281.019 14.562.156 21.843.207-1.045 5.71-2.01 11.405-2.462 17.198zm39.317.553c-6.537.002-13.074-.043-19.609-.128.894-5.936 2.015-11.786 3.288-17.652 6.502-.056 13.004-.145 19.506-.278-1.206 6.004-2.285 12.001-3.185 18.058zm38.921-.35c-6.47.104-12.939.189-19.409.253a346.127 346.127 0 012.481-18.425c6.145-.185 12.289-.385 18.434-.596a499.313 499.313 0 00-1.506 18.768zm38.532-.686l-19.227.349c.135-6.367.33-12.733.586-19.097l18.641-.677v19.425z" stroke="#8A8A8A" stroke-miterlimit="10"/><path d="M187.59 454l-32.099-32.069V285.394l-.179-.333c-3.952-7.324-7.551-13.989-11.15-20.655a65724.07 65724.07 0 01-11.148-20.653l-.18-.334-.316-.208-121.506-79.793a101377.6 101377.6 0 00-4.598-22.209l-4.6-22.222 8.36-12.704c8.627-1.781 15.428-3.188 22.23-4.594 6.8-1.407 13.602-2.813 22.229-4.594l112.569 73.924.375.246h55.242l.375-.246 112.58-73.924c8.627 1.781 15.428 3.187 22.229 4.593a50553.24 50553.24 0 0022.229 4.595l8.376 12.728c-1.783 8.618-3.191 15.413-4.598 22.208-1.408 6.795-2.814 13.59-4.597 22.209l-121.506 79.793-.316.208-.18.333c-3.951 7.323-7.55 13.988-11.148 20.653-3.599 6.665-7.198 13.331-11.15 20.654l-.179.334v136.528L202.835 454H187.59z" stroke="#EF9033" stroke-width="3"/><path d="M122.2 191.5l30.999 18v36l-30.999 18-30.997-18v-36l30.997-18z" stroke="#E9E9E7" stroke-width="2" stroke-linecap="round" stroke-linejoin="round"/><path d="M91.48 209.341l30.723 18.159v36m0-36l30.999-18.159" stroke="#E9E9E7" stroke-width="2" stroke-linecap="round" stroke-linejoin="round"/><path d="M122.201 203.896l20.325 11.802v23.604l-20.325 11.799-20.322-11.799v-23.604l20.322-11.802z" stroke="#E9E9E7" stroke-width="2" stroke-linecap="round" stroke-linejoin="round"/><path d="M102.059 215.594L122.2 227.5v23.602m.003-23.602l20.325-11.906" stroke="#E9E9E7" stroke-width="2" stroke-linecap="round" stroke-linejoin="round"/></svg>