<svg width="361" height="390" fill="none" xmlns="http://www.w3.org/2000/svg"><path d="M93.118 160.021H90V111.84h48.407v3.114H93.118v45.067zm176.883 0h-3.118v-45.067h-45.289v-3.114h48.407v48.181zm0 117.818h-48.407v-3.114h45.289v-45.067h3.118v48.181zm-131.594 0H90v-48.181h3.118v45.067h45.289v3.114zm6.461-85.494c-17.336 0-31.446-14.045-31.446-31.299 0-17.255 14.11-31.3 31.446-31.3 17.336 0 31.447 14.045 31.447 31.3 0 17.254-14.111 31.299-31.447 31.299zm0-59.496c-15.621 0-28.328 12.648-28.328 28.197 0 15.548 12.707 28.196 28.328 28.196 15.622 0 28.329-12.648 28.329-28.196 0-15.549-12.707-28.197-28.329-28.197z" fill="#E2E1DC"/><path d="M146.423 131.303h-3.118v59.496h3.118v-59.496z" fill="#E2E1DC"/><path d="M174.759 159.498h-59.775v3.103h59.775v-3.103zm40.351 32.847c-17.335 0-31.446-14.045-31.446-31.299 0-17.255 14.111-31.3 31.446-31.3 17.336 0 31.447 14.045 31.447 31.3 0 17.254-14.111 31.299-31.447 31.299zm0-59.496c-15.621 0-28.328 12.648-28.328 28.197 0 15.548 12.707 28.196 28.328 28.196 15.622 0 28.329-12.648 28.329-28.196 0-15.549-12.707-28.197-28.329-28.197zm-70.242 128.045c-17.336 0-31.446-14.045-31.446-31.299 0-17.255 14.11-31.3 31.446-31.3 17.336 0 31.447 14.045 31.447 31.3 0 17.254-14.111 31.299-31.447 31.299zm0-59.496c-15.621 0-28.328 12.648-28.328 28.197 0 15.548 12.707 28.196 28.328 28.196 15.622 0 28.329-12.648 28.329-28.196 0-15.549-12.707-28.197-28.329-28.197zm70.242 59.496c-17.335 0-31.446-14.045-31.446-31.299 0-17.255 14.111-31.3 31.446-31.3 17.336 0 31.447 14.045 31.447 31.3 0 17.254-14.111 31.299-31.447 31.299zm0-59.496c-15.621 0-28.328 12.648-28.328 28.197 0 15.548 12.707 28.196 28.328 28.196 15.622 0 28.329-12.648 28.329-28.196 0-15.549-12.707-28.197-28.329-28.197z" fill="#E2E1DC"/><path d="M215.785 166.889c-3.235 0-5.871-2.623-5.871-5.844 0-3.22 2.636-5.844 5.871-5.844 3.236 0 5.872 2.624 5.872 5.844 0 3.221-2.636 5.844-5.872 5.844zm0-8.574a2.754 2.754 0 00-2.753 2.741 2.746 2.746 0 002.753 2.74 2.746 2.746 0 002.754-2.74 2.747 2.747 0 00-2.754-2.741zm-20.736 49.174l-2.205 2.195 42.214 42.017 2.205-2.195-42.214-42.017z" fill="#E2E1DC"/><path d="M235.066 207.489l-42.214 42.017 2.204 2.194 42.214-42.017-2.204-2.194zm-90.198 24.601l-19.778-24.858 2.443-1.92 17.335 21.777 17.325-21.777 2.454 1.92-19.779 24.858z" fill="#E2E1DC"/><path d="M2 202.406l31.806 31.806h136.578l.444.239c14.544 7.841 26.801 14.458 41.344 22.298l.445.239.278.423 79.75 121.331c8.531 1.764 15.279 3.161 22.027 4.558a75535.14 75535.14 0 0022.04 4.557l12.369-8.131c1.764-8.532 3.161-15.28 4.558-22.028l4.555-22.026-73.876-112.396-.328-.5v-55.542l.328-.5 73.876-112.407c-1.763-8.53-3.159-15.277-4.555-22.024-1.397-6.748-2.794-13.497-4.558-22.029l-12.393-8.148c-8.53 1.763-15.278 3.16-22.026 4.557-6.748 1.396-13.496 2.793-22.027 4.556l-79.75 121.331-.278.423-.444.239c-7.329 3.952-14.001 7.55-20.672 11.149-6.671 3.598-13.343 7.198-20.673 11.149l-.444.24H33.806L2 187.575v14.831z" stroke="#EF9033" stroke-width="4"/></svg>