<svg width="50" height="49" fill="none" xmlns="http://www.w3.org/2000/svg"><path d="M24.534 25.207l24.033 11.646L24.534 48.5.5 36.853l24.034-11.646z" stroke="#EF9033" stroke-linecap="round" stroke-linejoin="round"/><path d="M24.534 20.266l24.033 11.646-24.033 11.646L.5 31.912l24.034-11.646z" stroke="#EF9033" stroke-linecap="round" stroke-linejoin="round"/><path d="M24.534 15.324l24.033 11.648-24.033 11.646L.5 26.972l24.034-11.648z" stroke="#EF9033" stroke-linecap="round" stroke-linejoin="round"/><path d="M24.534 10.383l24.033 11.646-24.033 11.646L.5 22.03l24.034-11.646z" stroke="#EF9033" stroke-linecap="round" stroke-linejoin="round"/><path d="M24.534 5.441l24.033 11.646-24.033 11.648L.5 17.087 24.534 5.441z" stroke="#EF9033" stroke-linecap="round" stroke-linejoin="round"/><path d="M24.534.5l24.033 11.646-24.033 11.646L.5 12.146 24.534.5z" stroke="#EF9033" stroke-linecap="round" stroke-linejoin="round"/></svg>