<svg width="50" height="46" fill="none" xmlns="http://www.w3.org/2000/svg"><path d="M24.533 30.883c13.265 0 24.034 3.274 24.034 7.308 0 4.033-10.77 7.309-24.034 7.309C11.267 45.5.5 42.224.5 38.19c0-4.033 10.769-7.307 24.033-7.307z" stroke="#EF9033" stroke-linecap="round" stroke-linejoin="round"/><path d="M24.533 24.805c13.265 0 24.034 3.276 24.034 7.307 0 4.032-10.77 7.31-24.034 7.31C11.267 39.422.5 36.145.5 32.111c0-4.033 10.769-7.307 24.033-7.307z" stroke="#EF9033" stroke-linecap="round" stroke-linejoin="round"/><path d="M24.533 18.729c13.265 0 24.034 3.275 24.034 7.309 0 4.033-10.77 7.307-24.034 7.307C11.267 33.345.5 30.071.5 26.038c0-4.034 10.769-7.31 24.033-7.31z" stroke="#EF9033" stroke-linecap="round" stroke-linejoin="round"/><path d="M24.533 12.654c13.265 0 24.034 3.275 24.034 7.308 0 4.033-10.77 7.31-24.034 7.31C11.267 27.271.5 23.994.5 19.961c0-4.033 10.769-7.308 24.033-7.308z" stroke="#EF9033" stroke-linecap="round" stroke-linejoin="round"/><path d="M24.533 6.578c13.265 0 24.034 3.276 24.034 7.308s-10.77 7.309-24.034 7.309C11.267 21.195.5 17.919.5 13.885c0-4.032 10.769-7.307 24.033-7.307z" stroke="#EF9033" stroke-linecap="round" stroke-linejoin="round"/><path d="M24.533.5c13.265 0 24.034 3.276 24.034 7.31 0 4.032-10.77 7.307-24.034 7.307C11.267 15.117.5 11.842.5 7.809.5 3.776 11.269.5 24.533.5z" stroke="#EF9033" stroke-linecap="round" stroke-linejoin="round"/></svg>